<?xml version="1.0" encoding="UTF-8" standalone="no"?>
<!DOCTYPE svg PUBLIC "-//W3C//DTD SVG 1.1//EN"
 "http://www.w3.org/Graphics/SVG/1.1/DTD/svg11.dtd">
<!-- Generated by graphviz version 13.1.2 (0)
 -->
<!-- Title: G Pages: 1 -->
<svg width="227pt" height="96pt"
 viewBox="0.00 0.00 227.00 96.00" xmlns="http://www.w3.org/2000/svg" xmlns:xlink="http://www.w3.org/1999/xlink">
<g id="graph0" class="graph" transform="scale(1 1) rotate(0) translate(4 92)">
<title>G</title>
<polygon fill="white" stroke="none" points="-4,4 -4,-92 222.5,-92 222.5,4 -4,4"/>
<!-- arr_1 -->
<g id="node1" class="node">
<title>arr_1</title>
<path fill="#ffffff" stroke="none" d="M206.5,-88C206.5,-88 116,-88 116,-88 110,-88 104,-82 104,-76 104,-76 104,-12 104,-12 104,-6 110,0 116,0 116,0 206.5,0 206.5,0 212.5,0 218.5,-6 218.5,-12 218.5,-12 218.5,-76 218.5,-76 218.5,-82 212.5,-88 206.5,-88"/>
<text xml:space="preserve" text-anchor="start" x="150.75" y="-69.8" font-family="Helvetica,sans-Serif" font-weight="bold" font-size="16.00">arr</text>
<polygon fill="#ffffff" stroke="none" points="111,-35.75 111,-58.5 127.75,-58.5 127.75,-35.75 111,-35.75"/>
<polygon fill="none" stroke="#1f2933" points="111,-35.75 111,-58.5 127.75,-58.5 127.75,-35.75 111,-35.75"/>
<text xml:space="preserve" text-anchor="start" x="116" y="-42.1" font-family="Helvetica,sans-Serif" font-size="12.00" fill="#0f172a">3</text>
<polygon fill="#ffffff" stroke="none" points="127.75,-35.75 127.75,-58.5 144.5,-58.5 144.5,-35.75 127.75,-35.75"/>
<polygon fill="none" stroke="#1f2933" points="127.75,-35.75 127.75,-58.5 144.5,-58.5 144.5,-35.75 127.75,-35.75"/>
<text xml:space="preserve" text-anchor="start" x="132.75" y="-42.1" font-family="Helvetica,sans-Serif" font-size="12.00" fill="#0f172a">1</text>
<polygon fill="#ffffff" stroke="none" points="144.5,-35.75 144.5,-58.5 161.25,-58.5 161.25,-35.75 144.5,-35.75"/>
<polygon fill="none" stroke="#1f2933" points="144.5,-35.75 144.5,-58.5 161.25,-58.5 161.25,-35.75 144.5,-35.75"/>
<text xml:space="preserve" text-anchor="start" x="149.5" y="-42.1" font-family="Helvetica,sans-Serif" font-size="12.00" fill="#0f172a">2</text>
<polygon fill="#ffffff" stroke="none" points="161.25,-35.75 161.25,-58.5 178,-58.5 178,-35.75 161.25,-35.75"/>
<polygon fill="none" stroke="#1f2933" points="161.25,-35.75 161.25,-58.5 178,-58.5 178,-35.75 161.25,-35.75"/>
<text xml:space="preserve" text-anchor="start" x="166.25" y="-42.1" font-family="Helvetica,sans-Serif" font-size="12.00" fill="#0f172a">4</text>
<polygon fill="#ffffff" stroke="none" points="178,-35.75 178,-58.5 194.75,-58.5 194.75,-35.75 178,-35.75"/>
<polygon fill="none" stroke="#1f2933" points="178,-35.75 178,-58.5 194.75,-58.5 194.75,-35.75 178,-35.75"/>
<text xml:space="preserve" text-anchor="start" x="183" y="-42.1" font-family="Helvetica,sans-Serif" font-size="12.00" fill="#0f172a">1</text>
<polygon fill="#ffffff" stroke="none" points="194.75,-35.75 194.75,-58.5 211.5,-58.5 211.5,-35.75 194.75,-35.75"/>
<polygon fill="none" stroke="#1f2933" points="194.75,-35.75 194.75,-58.5 211.5,-58.5 211.5,-35.75 194.75,-35.75"/>
<text xml:space="preserve" text-anchor="start" x="199.75" y="-42.1" font-family="Helvetica,sans-Serif" font-size="12.00" fill="#0f172a">5</text>
<polygon fill="none" stroke="#1f2933" points="110,-34.75 110,-59.5 212.5,-59.5 212.5,-34.75 110,-34.75"/>
<text xml:space="preserve" text-anchor="start" x="116.83" y="-13.35" font-family="Helvetica,sans-Serif" font-size="12.00" fill="#dc2626">0</text>
<text xml:space="preserve" text-anchor="start" x="133.25" y="-13.35" font-family="Helvetica,sans-Serif" font-size="12.00" fill="#dc2626">1</text>
<text xml:space="preserve" text-anchor="start" x="149.67" y="-13.35" font-family="Helvetica,sans-Serif" font-size="12.00" fill="#dc2626">2</text>
<text xml:space="preserve" text-anchor="start" x="166.08" y="-13.35" font-family="Helvetica,sans-Serif" font-size="12.00" fill="#dc2626">3</text>
<text xml:space="preserve" text-anchor="start" x="182.5" y="-13.35" font-family="Helvetica,sans-Serif" font-size="12.00" fill="#dc2626">4</text>
<text xml:space="preserve" text-anchor="start" x="198.92" y="-13.35" font-family="Helvetica,sans-Serif" font-size="12.00" fill="#dc2626">5</text>
</g>
<!-- anchor_arr -->
<g id="node2" class="node">
<title>anchor_arr</title>
<path fill="#ffffff" stroke="none" d="M42,-62C42,-62 12,-62 12,-62 6,-62 0,-56 0,-50 0,-50 0,-38 0,-38 0,-32 6,-26 12,-26 12,-26 42,-26 42,-26 48,-26 54,-32 54,-38 54,-38 54,-50 54,-50 54,-56 48,-62 42,-62"/>
<text xml:space="preserve" text-anchor="middle" x="27" y="-38.2" font-family="Helvetica,sans-Serif" font-size="14.00" fill="#6b7280">arr</text>
</g>
<!-- anchor_arr&#45;&gt;arr_1 -->
<g id="edge1" class="edge">
<title>anchor_arr&#45;&gt;arr_1</title>
<path fill="none" stroke="#9ca3af" stroke-dasharray="5,2" d="M53.81,-44C65.14,-44 79.02,-44 92.97,-44"/>
<polygon fill="#9ca3af" stroke="#9ca3af" points="92.62,-47.5 102.62,-44 92.62,-40.5 92.62,-47.5"/>
</g>
</g>
</svg>
