<?xml version="1.0" encoding="UTF-8" standalone="no"?>
<!DOCTYPE svg PUBLIC "-//W3C//DTD SVG 1.1//EN"
 "http://www.w3.org/Graphics/SVG/1.1/DTD/svg11.dtd">
<!-- Generated by graphviz version 13.1.2 (0)
 -->
<!-- Title: G Pages: 1 -->
<svg width="865pt" height="548pt"
 viewBox="0.00 0.00 865.00 548.00" xmlns="http://www.w3.org/2000/svg" xmlns:xlink="http://www.w3.org/1999/xlink">
<g id="graph0" class="graph" transform="scale(1 1) rotate(0) translate(4 543.75)">
<title>G</title>
<polygon fill="white" stroke="none" points="-4,4 -4,-543.75 861,-543.75 861,4 -4,4"/>
<!-- table_1 -->
<g id="node1" class="node">
<title>table_1</title>
<path fill="#ffffff" stroke="none" d="M845,-539.75C845,-539.75 162.75,-539.75 162.75,-539.75 156.75,-539.75 150.75,-533.75 150.75,-527.75 150.75,-527.75 150.75,-12 150.75,-12 150.75,-6 156.75,0 162.75,0 162.75,0 845,0 845,0 851,0 857,-6 857,-12 857,-12 857,-527.75 857,-527.75 857,-533.75 851,-539.75 845,-539.75"/>
<text xml:space="preserve" text-anchor="start" x="449.88" y="-521.55" font-family="Helvetica,sans-Serif" font-weight="bold" font-size="16.00">complex_auto</text>
<polygon fill="#e5e7eb" stroke="none" points="155.75,-491.25 155.75,-512.25 209,-512.25 209,-491.25 155.75,-491.25"/>
<polygon fill="none" stroke="#1f2933" points="155.75,-491.25 155.75,-512.25 209,-512.25 209,-491.25 155.75,-491.25"/>
<text xml:space="preserve" text-anchor="start" x="170" y="-496.95" font-family="Helvetica,sans-Serif" font-weight="bold" font-size="14.00">Key</text>
<polygon fill="#e5e7eb" stroke="none" points="209,-491.25 209,-512.25 852,-512.25 852,-491.25 209,-491.25"/>
<polygon fill="none" stroke="#1f2933" points="209,-491.25 209,-512.25 852,-512.25 852,-491.25 209,-491.25"/>
<text xml:space="preserve" text-anchor="start" x="512.5" y="-496.95" font-family="Helvetica,sans-Serif" font-weight="bold" font-size="14.00">Value</text>
<polygon fill="none" stroke="#1f2933" points="155.75,-296.5 155.75,-491.25 209,-491.25 209,-296.5 155.75,-296.5"/>
<text xml:space="preserve" text-anchor="start" x="167" y="-388.07" font-family="Helvetica,sans-Serif" font-size="14.00">meta</text>
<polygon fill="none" stroke="#1f2933" points="209,-296.5 209,-491.25 852,-491.25 852,-296.5 209,-296.5"/>
<polygon fill="#e5e7eb" stroke="none" points="213,-466.25 213,-487.25 449.5,-487.25 449.5,-466.25 213,-466.25"/>
<polygon fill="none" stroke="#1f2933" points="213,-466.25 213,-487.25 449.5,-487.25 449.5,-466.25 213,-466.25"/>
<text xml:space="preserve" text-anchor="start" x="318.88" y="-471.95" font-family="Helvetica,sans-Serif" font-weight="bold" font-size="14.00">Key</text>
<polygon fill="#e5e7eb" stroke="none" points="449.5,-466.25 449.5,-487.25 848,-487.25 848,-466.25 449.5,-466.25"/>
<polygon fill="none" stroke="#1f2933" points="449.5,-466.25 449.5,-487.25 848,-487.25 848,-466.25 449.5,-466.25"/>
<text xml:space="preserve" text-anchor="start" x="630.75" y="-471.95" font-family="Helvetica,sans-Serif" font-weight="bold" font-size="14.00">Value</text>
<polygon fill="none" stroke="#1f2933" points="213,-445.25 213,-466.25 449.5,-466.25 449.5,-445.25 213,-445.25"/>
<text xml:space="preserve" text-anchor="start" x="326" y="-449.95" font-family="Helvetica,sans-Serif" font-size="14.00">id</text>
<polygon fill="none" stroke="#1f2933" points="449.5,-445.25 449.5,-466.25 848,-466.25 848,-445.25 449.5,-445.25"/>
<text xml:space="preserve" text-anchor="start" x="630.38" y="-450.73" font-family="Helvetica,sans-Serif" font-size="12.00" fill="#0f172a">exp&#45;42</text>
<polygon fill="none" stroke="#1f2933" points="213,-300.5 213,-445.25 449.5,-445.25 449.5,-300.5 213,-300.5"/>
<text xml:space="preserve" text-anchor="start" x="312.88" y="-367.07" font-family="Helvetica,sans-Serif" font-size="14.00">owner</text>
<polygon fill="none" stroke="#1f2933" points="449.5,-300.5 449.5,-445.25 848,-445.25 848,-300.5 449.5,-300.5"/>
<polygon fill="#e5e7eb" stroke="none" points="453.5,-420.25 453.5,-441.25 590.88,-441.25 590.88,-420.25 453.5,-420.25"/>
<polygon fill="none" stroke="#1f2933" points="453.5,-420.25 453.5,-441.25 590.88,-441.25 590.88,-420.25 453.5,-420.25"/>
<text xml:space="preserve" text-anchor="start" x="509.81" y="-425.95" font-family="Helvetica,sans-Serif" font-weight="bold" font-size="14.00">Key</text>
<polygon fill="#e5e7eb" stroke="none" points="590.88,-420.25 590.88,-441.25 844,-441.25 844,-420.25 590.88,-420.25"/>
<polygon fill="none" stroke="#1f2933" points="590.88,-420.25 590.88,-441.25 844,-441.25 844,-420.25 590.88,-420.25"/>
<text xml:space="preserve" text-anchor="start" x="699.44" y="-425.95" font-family="Helvetica,sans-Serif" font-weight="bold" font-size="14.00">Value</text>
<polygon fill="none" stroke="#1f2933" points="453.5,-399.25 453.5,-420.25 590.88,-420.25 590.88,-399.25 453.5,-399.25"/>
<text xml:space="preserve" text-anchor="start" x="504.94" y="-403.95" font-family="Helvetica,sans-Serif" font-size="14.00">name</text>
<polygon fill="none" stroke="#1f2933" points="590.88,-399.25 590.88,-420.25 844,-420.25 844,-399.25 590.88,-399.25"/>
<text xml:space="preserve" text-anchor="start" x="706.56" y="-404.73" font-family="Helvetica,sans-Serif" font-size="12.00" fill="#0f172a">Ada</text>
<polygon fill="none" stroke="#1f2933" points="453.5,-304.5 453.5,-399.25 590.88,-399.25 590.88,-304.5 453.5,-304.5"/>
<text xml:space="preserve" text-anchor="start" x="506.81" y="-346.07" font-family="Helvetica,sans-Serif" font-size="14.00">team</text>
<polygon fill="none" stroke="#1f2933" points="590.88,-304.5 590.88,-399.25 844,-399.25 844,-304.5 590.88,-304.5"/>
<polygon fill="#ffffff" stroke="none" points="596.88,-339.25 596.88,-393.25 686.81,-393.25 686.81,-339.25 596.88,-339.25"/>
<polygon fill="none" stroke="#1f2933" points="596.88,-339.25 596.88,-393.25 686.81,-393.25 686.81,-339.25 596.88,-339.25"/>
<text xml:space="preserve" text-anchor="start" x="626.09" y="-361.23" font-family="Helvetica,sans-Serif" font-size="12.00" fill="#0f172a">vision</text>
<polygon fill="#ffffff" stroke="none" points="686.81,-339.25 686.81,-393.25 838,-393.25 838,-339.25 686.81,-339.25"/>
<polygon fill="none" stroke="#1f2933" points="686.81,-339.25 686.81,-393.25 838,-393.25 838,-339.25 686.81,-339.25"/>
<polygon fill="#e5e7eb" stroke="none" points="692.81,-366.25 692.81,-387.25 760.53,-387.25 760.53,-366.25 692.81,-366.25"/>
<polygon fill="none" stroke="#1f2933" points="692.81,-366.25 692.81,-387.25 760.53,-387.25 760.53,-366.25 692.81,-366.25"/>
<text xml:space="preserve" text-anchor="start" x="714.3" y="-371.95" font-family="Helvetica,sans-Serif" font-weight="bold" font-size="14.00">Key</text>
<polygon fill="#e5e7eb" stroke="none" points="760.53,-366.25 760.53,-387.25 832,-387.25 832,-366.25 760.53,-366.25"/>
<polygon fill="none" stroke="#1f2933" points="760.53,-366.25 760.53,-387.25 832,-387.25 832,-366.25 760.53,-366.25"/>
<text xml:space="preserve" text-anchor="start" x="778.27" y="-371.95" font-family="Helvetica,sans-Serif" font-weight="bold" font-size="14.00">Value</text>
<polygon fill="none" stroke="#1f2933" points="692.81,-345.25 692.81,-366.25 760.53,-366.25 760.53,-345.25 692.81,-345.25"/>
<text xml:space="preserve" text-anchor="start" x="707.92" y="-349.95" font-family="Helvetica,sans-Serif" font-size="14.00">region</text>
<polygon fill="none" stroke="#1f2933" points="760.53,-345.25 760.53,-366.25 832,-366.25 832,-345.25 760.53,-345.25"/>
<text xml:space="preserve" text-anchor="start" x="775.64" y="-350.73" font-family="Helvetica,sans-Serif" font-size="12.00" fill="#0f172a">us&#45;west</text>
<polygon fill="none" stroke="#1f2933" points="691.81,-344.25 691.81,-388.25 833,-388.25 833,-344.25 691.81,-344.25"/>
<polygon fill="none" stroke="#1f2933" points="595.88,-338.25 595.88,-394.25 839,-394.25 839,-338.25 595.88,-338.25"/>
<text xml:space="preserve" text-anchor="start" x="654.28" y="-316.85" font-family="Helvetica,sans-Serif" font-size="12.00" fill="#dc2626">0</text>
<text xml:space="preserve" text-anchor="start" x="773.84" y="-316.85" font-family="Helvetica,sans-Serif" font-size="12.00" fill="#dc2626">1</text>
<polygon fill="none" stroke="#1f2933" points="452.5,-303.5 452.5,-442.25 845,-442.25 845,-303.5 452.5,-303.5"/>
<polygon fill="none" stroke="#1f2933" points="212,-299.5 212,-488.25 849,-488.25 849,-299.5 212,-299.5"/>
<polygon fill="none" stroke="#1f2933" points="155.75,-64.5 155.75,-296.5 209,-296.5 209,-64.5 155.75,-64.5"/>
<text xml:space="preserve" text-anchor="start" x="158.75" y="-174.7" font-family="Helvetica,sans-Serif" font-size="14.00">batches</text>
<polygon fill="none" stroke="#1f2933" points="209,-64.5 209,-296.5 852,-296.5 852,-64.5 209,-64.5"/>
<polygon fill="#ffffff" stroke="none" points="215,-99.25 215,-290.5 525.75,-290.5 525.75,-99.25 215,-99.25"/>
<polygon fill="none" stroke="#1f2933" points="215,-99.25 215,-290.5 525.75,-290.5 525.75,-99.25 215,-99.25"/>
<polygon fill="#e5e7eb" stroke="none" points="221,-263.5 221,-284.5 266.75,-284.5 266.75,-263.5 221,-263.5"/>
<polygon fill="none" stroke="#1f2933" points="221,-263.5 221,-284.5 266.75,-284.5 266.75,-263.5 221,-263.5"/>
<text xml:space="preserve" text-anchor="start" x="231.5" y="-269.2" font-family="Helvetica,sans-Serif" font-weight="bold" font-size="14.00">Key</text>
<polygon fill="#e5e7eb" stroke="none" points="266.75,-263.5 266.75,-284.5 519.75,-284.5 519.75,-263.5 266.75,-263.5"/>
<polygon fill="none" stroke="#1f2933" points="266.75,-263.5 266.75,-284.5 519.75,-284.5 519.75,-263.5 266.75,-263.5"/>
<text xml:space="preserve" text-anchor="start" x="375.25" y="-269.2" font-family="Helvetica,sans-Serif" font-weight="bold" font-size="14.00">Value</text>
<polygon fill="none" stroke="#1f2933" points="221,-242.5 221,-263.5 266.75,-263.5 266.75,-242.5 221,-242.5"/>
<text xml:space="preserve" text-anchor="start" x="231.12" y="-247.2" font-family="Helvetica,sans-Serif" font-size="14.00">step</text>
<polygon fill="none" stroke="#1f2933" points="266.75,-242.5 266.75,-263.5 519.75,-263.5 519.75,-242.5 266.75,-242.5"/>
<text xml:space="preserve" text-anchor="start" x="389.88" y="-247.97" font-family="Helvetica,sans-Serif" font-size="12.00" fill="#0f172a">1</text>
<polygon fill="none" stroke="#1f2933" points="221,-105.25 221,-242.5 266.75,-242.5 266.75,-105.25 221,-105.25"/>
<text xml:space="preserve" text-anchor="start" x="224" y="-168.07" font-family="Helvetica,sans-Serif" font-size="14.00">scores</text>
<polygon fill="none" stroke="#1f2933" points="266.75,-105.25 266.75,-242.5 519.75,-242.5 519.75,-105.25 266.75,-105.25"/>
<polygon fill="#ffffff" stroke="none" points="272.75,-140 272.75,-236.5 306,-236.5 306,-140 272.75,-140"/>
<polygon fill="none" stroke="#1f2933" points="272.75,-140 272.75,-236.5 306,-236.5 306,-140 272.75,-140"/>
<text xml:space="preserve" text-anchor="start" x="277.75" y="-183.22" font-family="Helvetica,sans-Serif" font-size="12.00" fill="#0f172a">0.91</text>
<polygon fill="#ffffff" stroke="none" points="306,-140 306,-236.5 339.25,-236.5 339.25,-140 306,-140"/>
<polygon fill="none" stroke="#1f2933" points="306,-140 306,-236.5 339.25,-236.5 339.25,-140 306,-140"/>
<text xml:space="preserve" text-anchor="start" x="311" y="-183.22" font-family="Helvetica,sans-Serif" font-size="12.00" fill="#0f172a">0.88</text>
<polygon fill="#ffffff" stroke="none" points="339.25,-140 339.25,-236.5 513.75,-236.5 513.75,-140 339.25,-140"/>
<polygon fill="none" stroke="#1f2933" points="339.25,-140 339.25,-236.5 513.75,-236.5 513.75,-140 339.25,-140"/>
<polygon fill="#e5e7eb" stroke="none" points="345.25,-209.5 345.25,-230.5 392.5,-230.5 392.5,-209.5 345.25,-209.5"/>
<polygon fill="none" stroke="#1f2933" points="345.25,-209.5 345.25,-230.5 392.5,-230.5 392.5,-209.5 345.25,-209.5"/>
<text xml:space="preserve" text-anchor="start" x="356.5" y="-215.2" font-family="Helvetica,sans-Serif" font-weight="bold" font-size="14.00">Key</text>
<polygon fill="#e5e7eb" stroke="none" points="392.5,-209.5 392.5,-230.5 507.75,-230.5 507.75,-209.5 392.5,-209.5"/>
<polygon fill="none" stroke="#1f2933" points="392.5,-209.5 392.5,-230.5 507.75,-230.5 507.75,-209.5 392.5,-209.5"/>
<text xml:space="preserve" text-anchor="start" x="432.12" y="-215.2" font-family="Helvetica,sans-Serif" font-weight="bold" font-size="14.00">Value</text>
<polygon fill="none" stroke="#1f2933" points="345.25,-146 345.25,-209.5 392.5,-209.5 392.5,-146 345.25,-146"/>
<text xml:space="preserve" text-anchor="start" x="348.25" y="-171.95" font-family="Helvetica,sans-Serif" font-size="14.00">probes</text>
<polygon fill="none" stroke="#1f2933" points="392.5,-146 392.5,-209.5 507.75,-209.5 507.75,-146 392.5,-146"/>
<polygon fill="#ffffff" stroke="none" points="398.5,-180.75 398.5,-203.5 431.75,-203.5 431.75,-180.75 398.5,-180.75"/>
<polygon fill="none" stroke="#1f2933" points="398.5,-180.75 398.5,-203.5 431.75,-203.5 431.75,-180.75 398.5,-180.75"/>
<text xml:space="preserve" text-anchor="start" x="403.5" y="-187.1" font-family="Helvetica,sans-Serif" font-size="12.00" fill="#0f172a">0.83</text>
<polygon fill="#ffffff" stroke="none" points="431.75,-180.75 431.75,-203.5 501.75,-203.5 501.75,-180.75 431.75,-180.75"/>
<polygon fill="none" stroke="#1f2933" points="431.75,-180.75 431.75,-203.5 501.75,-203.5 501.75,-180.75 431.75,-180.75"/>
<text xml:space="preserve" text-anchor="start" x="436.75" y="-187.1" font-family="Helvetica,sans-Serif" font-size="12.00" fill="#475569">dict keys=1</text>
<polygon fill="none" stroke="#1f2933" points="397.5,-179.75 397.5,-204.5 502.75,-204.5 502.75,-179.75 397.5,-179.75"/>
<text xml:space="preserve" text-anchor="start" x="421.44" y="-158.35" font-family="Helvetica,sans-Serif" font-size="12.00" fill="#dc2626">0</text>
<text xml:space="preserve" text-anchor="start" x="472.06" y="-158.35" font-family="Helvetica,sans-Serif" font-size="12.00" fill="#dc2626">1</text>
<polygon fill="none" stroke="#1f2933" points="344.25,-145 344.25,-231.5 508.75,-231.5 508.75,-145 344.25,-145"/>
<polygon fill="none" stroke="#1f2933" points="271.75,-139 271.75,-237.5 514.75,-237.5 514.75,-139 271.75,-139"/>
<text xml:space="preserve" text-anchor="start" x="310.21" y="-117.6" font-family="Helvetica,sans-Serif" font-size="12.00" fill="#dc2626">0</text>
<text xml:space="preserve" text-anchor="start" x="389.88" y="-117.6" font-family="Helvetica,sans-Serif" font-size="12.00" fill="#dc2626">1</text>
<text xml:space="preserve" text-anchor="start" x="469.54" y="-117.6" font-family="Helvetica,sans-Serif" font-size="12.00" fill="#dc2626">2</text>
<polygon fill="none" stroke="#1f2933" points="220,-104.25 220,-285.5 520.75,-285.5 520.75,-104.25 220,-104.25"/>
<polygon fill="#ffffff" stroke="none" points="525.75,-99.25 525.75,-290.5 846,-290.5 846,-99.25 525.75,-99.25"/>
<polygon fill="none" stroke="#1f2933" points="525.75,-99.25 525.75,-290.5 846,-290.5 846,-99.25 525.75,-99.25"/>
<polygon fill="#e5e7eb" stroke="none" points="531.75,-263.5 531.75,-284.5 577.5,-284.5 577.5,-263.5 531.75,-263.5"/>
<polygon fill="none" stroke="#1f2933" points="531.75,-263.5 531.75,-284.5 577.5,-284.5 577.5,-263.5 531.75,-263.5"/>
<text xml:space="preserve" text-anchor="start" x="542.25" y="-269.2" font-family="Helvetica,sans-Serif" font-weight="bold" font-size="14.00">Key</text>
<polygon fill="#e5e7eb" stroke="none" points="577.5,-263.5 577.5,-284.5 840,-284.5 840,-263.5 577.5,-263.5"/>
<polygon fill="none" stroke="#1f2933" points="577.5,-263.5 577.5,-284.5 840,-284.5 840,-263.5 577.5,-263.5"/>
<text xml:space="preserve" text-anchor="start" x="690.75" y="-269.2" font-family="Helvetica,sans-Serif" font-weight="bold" font-size="14.00">Value</text>
<polygon fill="none" stroke="#1f2933" points="531.75,-242.5 531.75,-263.5 577.5,-263.5 577.5,-242.5 531.75,-242.5"/>
<text xml:space="preserve" text-anchor="start" x="541.88" y="-247.2" font-family="Helvetica,sans-Serif" font-size="14.00">step</text>
<polygon fill="none" stroke="#1f2933" points="577.5,-242.5 577.5,-263.5 840,-263.5 840,-242.5 577.5,-242.5"/>
<text xml:space="preserve" text-anchor="start" x="705.38" y="-247.97" font-family="Helvetica,sans-Serif" font-size="12.00" fill="#0f172a">2</text>
<polygon fill="none" stroke="#1f2933" points="531.75,-105.25 531.75,-242.5 577.5,-242.5 577.5,-105.25 531.75,-105.25"/>
<text xml:space="preserve" text-anchor="start" x="534.75" y="-168.07" font-family="Helvetica,sans-Serif" font-size="14.00">scores</text>
<polygon fill="none" stroke="#1f2933" points="577.5,-105.25 577.5,-242.5 840,-242.5 840,-105.25 577.5,-105.25"/>
<polygon fill="#ffffff" stroke="none" points="583.5,-140 583.5,-236.5 616.75,-236.5 616.75,-140 583.5,-140"/>
<polygon fill="none" stroke="#1f2933" points="583.5,-140 583.5,-236.5 616.75,-236.5 616.75,-140 583.5,-140"/>
<text xml:space="preserve" text-anchor="start" x="588.5" y="-183.22" font-family="Helvetica,sans-Serif" font-size="12.00" fill="#0f172a">0.95</text>
<polygon fill="#ffffff" stroke="none" points="616.75,-140 616.75,-236.5 834,-236.5 834,-140 616.75,-140"/>
<polygon fill="none" stroke="#1f2933" points="616.75,-140 616.75,-236.5 834,-236.5 834,-140 616.75,-140"/>
<polygon fill="#e5e7eb" stroke="none" points="622.75,-209.5 622.75,-230.5 676,-230.5 676,-209.5 622.75,-209.5"/>
<polygon fill="none" stroke="#1f2933" points="622.75,-209.5 622.75,-230.5 676,-230.5 676,-209.5 622.75,-209.5"/>
<text xml:space="preserve" text-anchor="start" x="637" y="-215.2" font-family="Helvetica,sans-Serif" font-weight="bold" font-size="14.00">Key</text>
<polygon fill="#e5e7eb" stroke="none" points="676,-209.5 676,-230.5 828,-230.5 828,-209.5 676,-209.5"/>
<polygon fill="none" stroke="#1f2933" points="676,-209.5 676,-230.5 828,-230.5 828,-209.5 676,-209.5"/>
<text xml:space="preserve" text-anchor="start" x="734" y="-215.2" font-family="Helvetica,sans-Serif" font-weight="bold" font-size="14.00">Value</text>
<polygon fill="none" stroke="#1f2933" points="622.75,-146 622.75,-209.5 676,-209.5 676,-146 622.75,-146"/>
<text xml:space="preserve" text-anchor="start" x="625.75" y="-171.95" font-family="Helvetica,sans-Serif" font-size="14.00">ablation</text>
<polygon fill="none" stroke="#1f2933" points="676,-146 676,-209.5 828,-209.5 828,-146 676,-146"/>
<polygon fill="#ffffff" stroke="none" points="682,-180.75 682,-203.5 752,-203.5 752,-180.75 682,-180.75"/>
<polygon fill="none" stroke="#1f2933" points="682,-180.75 682,-203.5 752,-203.5 752,-180.75 682,-180.75"/>
<text xml:space="preserve" text-anchor="start" x="687" y="-187.1" font-family="Helvetica,sans-Serif" font-size="12.00" fill="#475569">dict keys=2</text>
<polygon fill="#ffffff" stroke="none" points="752,-180.75 752,-203.5 822,-203.5 822,-180.75 752,-180.75"/>
<polygon fill="none" stroke="#1f2933" points="752,-180.75 752,-203.5 822,-203.5 822,-180.75 752,-180.75"/>
<text xml:space="preserve" text-anchor="start" x="757" y="-187.1" font-family="Helvetica,sans-Serif" font-size="12.00" fill="#475569">dict keys=2</text>
<polygon fill="none" stroke="#1f2933" points="681,-179.75 681,-204.5 823,-204.5 823,-179.75 681,-179.75"/>
<text xml:space="preserve" text-anchor="start" x="714.12" y="-158.35" font-family="Helvetica,sans-Serif" font-size="12.00" fill="#dc2626">0</text>
<text xml:space="preserve" text-anchor="start" x="783.12" y="-158.35" font-family="Helvetica,sans-Serif" font-size="12.00" fill="#dc2626">1</text>
<polygon fill="none" stroke="#1f2933" points="621.75,-145 621.75,-231.5 829,-231.5 829,-145 621.75,-145"/>
<polygon fill="none" stroke="#1f2933" points="582.5,-139 582.5,-237.5 835,-237.5 835,-139 582.5,-139"/>
<text xml:space="preserve" text-anchor="start" x="643.25" y="-117.6" font-family="Helvetica,sans-Serif" font-size="12.00" fill="#dc2626">0</text>
<text xml:space="preserve" text-anchor="start" x="767.5" y="-117.6" font-family="Helvetica,sans-Serif" font-size="12.00" fill="#dc2626">1</text>
<polygon fill="none" stroke="#1f2933" points="530.75,-104.25 530.75,-285.5 841,-285.5 841,-104.25 530.75,-104.25"/>
<polygon fill="none" stroke="#1f2933" points="214,-98.25 214,-291.5 847,-291.5 847,-98.25 214,-98.25"/>
<text xml:space="preserve" text-anchor="start" x="369.88" y="-76.85" font-family="Helvetica,sans-Serif" font-size="12.00" fill="#dc2626">0</text>
<text xml:space="preserve" text-anchor="start" x="684.38" y="-76.85" font-family="Helvetica,sans-Serif" font-size="12.00" fill="#dc2626">1</text>
<polygon fill="none" stroke="#1f2933" points="155.75,-5 155.75,-64.5 209,-64.5 209,-5 155.75,-5"/>
<text xml:space="preserve" text-anchor="start" x="162.5" y="-28.95" font-family="Helvetica,sans-Serif" font-size="14.00">verdict</text>
<polygon fill="none" stroke="#1f2933" points="209,-5 209,-64.5 852,-64.5 852,-5 209,-5"/>
<text xml:space="preserve" text-anchor="start" x="448" y="-43.3" font-family="Helvetica,sans-Serif" font-weight="bold" font-size="16.00">complex_auto.verdict</text>
<polygon fill="none" stroke="#1f2933" points="217,-13 217,-34 844,-34 844,-13 217,-13"/>
<text xml:space="preserve" text-anchor="start" x="524.5" y="-17.7" font-family="Helvetica,sans-Serif" font-size="14.00">∅</text>
<polygon fill="none" stroke="#1f2933" points="216,-12 216,-35 845,-35 845,-12 216,-12"/>
<polygon fill="none" stroke="#1f2933" points="154.75,-4 154.75,-513.25 853,-513.25 853,-4 154.75,-4"/>
</g>
<!-- anchor_complex_auto -->
<g id="node2" class="node">
<title>anchor_complex_auto</title>
<path fill="#ffffff" stroke="none" d="M88.75,-287.88C88.75,-287.88 12,-287.88 12,-287.88 6,-287.88 0,-281.88 0,-275.88 0,-275.88 0,-263.88 0,-263.88 0,-257.88 6,-251.88 12,-251.88 12,-251.88 88.75,-251.88 88.75,-251.88 94.75,-251.88 100.75,-257.88 100.75,-263.88 100.75,-263.88 100.75,-275.88 100.75,-275.88 100.75,-281.88 94.75,-287.88 88.75,-287.88"/>
<text xml:space="preserve" text-anchor="middle" x="50.38" y="-264.07" font-family="Helvetica,sans-Serif" font-size="14.00" fill="#6b7280">complex_auto</text>
</g>
<!-- anchor_complex_auto&#45;&gt;table_1 -->
<g id="edge1" class="edge">
<title>anchor_complex_auto&#45;&gt;table_1</title>
<path fill="none" stroke="#9ca3af" stroke-dasharray="5,2" d="M100.55,-269.88C112.12,-269.88 125.33,-269.88 139.74,-269.88"/>
<polygon fill="#9ca3af" stroke="#9ca3af" points="139.48,-273.38 149.48,-269.88 139.48,-266.38 139.48,-273.38"/>
</g>
</g>
</svg>
