<?xml version="1.0" encoding="UTF-8" standalone="no"?>
<!DOCTYPE svg PUBLIC "-//W3C//DTD SVG 1.1//EN"
 "http://www.w3.org/Graphics/SVG/1.1/DTD/svg11.dtd">
<!-- Generated by graphviz version 13.1.2 (0)
 -->
<!-- Title: G Pages: 1 -->
<svg width="353pt" height="187pt"
 viewBox="0.00 0.00 353.00 187.00" xmlns="http://www.w3.org/2000/svg" xmlns:xlink="http://www.w3.org/1999/xlink">
<g id="graph0" class="graph" transform="scale(1 1) rotate(0) translate(4 183.36)">
<title>G</title>
<polygon fill="white" stroke="none" points="-4,4 -4,-183.36 348.75,-183.36 348.75,4 -4,4"/>
<!-- graph_2__graph_root_1 -->
<!-- graph_2__graph_root_1_n0 -->
<g id="node2" class="node">
<title>graph_2__graph_root_1_n0</title>
<path fill="#ffffff" stroke="none" d="M84.5,-99.86C84.5,-99.86 12,-99.86 12,-99.86 6,-99.86 0,-93.86 0,-87.86 0,-87.86 0,-46.86 0,-46.86 0,-40.86 6,-34.86 12,-34.86 12,-34.86 84.5,-34.86 84.5,-34.86 90.5,-34.86 96.5,-40.86 96.5,-46.86 96.5,-46.86 96.5,-87.86 96.5,-87.86 96.5,-93.86 90.5,-99.86 84.5,-99.86"/>
<polygon fill="#e5e7eb" stroke="none" points="1,-77.86 1,-98.86 41.5,-98.86 41.5,-77.86 1,-77.86"/>
<polygon fill="none" stroke="#1f2933" points="1,-77.86 1,-98.86 41.5,-98.86 41.5,-77.86 1,-77.86"/>
<text xml:space="preserve" text-anchor="start" x="8.88" y="-83.56" font-family="Helvetica,sans-Serif" font-weight="bold" font-size="14.00">Key</text>
<polygon fill="#e5e7eb" stroke="none" points="41.5,-77.86 41.5,-98.86 95.5,-98.86 95.5,-77.86 41.5,-77.86"/>
<polygon fill="none" stroke="#1f2933" points="41.5,-77.86 41.5,-98.86 95.5,-98.86 95.5,-77.86 41.5,-77.86"/>
<text xml:space="preserve" text-anchor="start" x="50.5" y="-83.56" font-family="Helvetica,sans-Serif" font-weight="bold" font-size="14.00">Value</text>
<polygon fill="none" stroke="#1f2933" points="1,-56.86 1,-77.86 41.5,-77.86 41.5,-56.86 1,-56.86"/>
<text xml:space="preserve" text-anchor="start" x="4" y="-61.56" font-family="Helvetica,sans-Serif" font-size="14.00">name</text>
<polygon fill="none" stroke="#1f2933" points="41.5,-56.86 41.5,-77.86 95.5,-77.86 95.5,-56.86 41.5,-56.86"/>
<text xml:space="preserve" text-anchor="start" x="52.75" y="-62.34" font-family="Helvetica,sans-Serif" font-size="12.00" fill="#0f172a">Alpha</text>
<polygon fill="none" stroke="#1f2933" points="1,-35.86 1,-56.86 41.5,-56.86 41.5,-35.86 1,-35.86"/>
<text xml:space="preserve" text-anchor="start" x="4.75" y="-40.56" font-family="Helvetica,sans-Serif" font-size="14.00">score</text>
<polygon fill="none" stroke="#1f2933" points="41.5,-35.86 41.5,-56.86 95.5,-56.86 95.5,-35.86 41.5,-35.86"/>
<text xml:space="preserve" text-anchor="start" x="44.5" y="-41.34" font-family="Helvetica,sans-Serif" font-size="12.00" fill="#475569">list len=2</text>
<polygon fill="none" stroke="#1f2933" points="0,-34.86 0,-99.86 96.5,-99.86 96.5,-34.86 0,-34.86"/>
</g>
<!-- graph_2__graph_root_1_n1 -->
<g id="node3" class="node">
<title>graph_2__graph_root_1_n1</title>
<path fill="#ffffff" stroke="none" d="M239.25,-129.36C239.25,-129.36 178.75,-129.36 178.75,-129.36 172.75,-129.36 166.75,-123.36 166.75,-117.36 166.75,-117.36 166.75,-97.36 166.75,-97.36 166.75,-91.36 172.75,-85.36 178.75,-85.36 178.75,-85.36 239.25,-85.36 239.25,-85.36 245.25,-85.36 251.25,-91.36 251.25,-97.36 251.25,-97.36 251.25,-117.36 251.25,-117.36 251.25,-123.36 245.25,-129.36 239.25,-129.36"/>
<polygon fill="#e5e7eb" stroke="none" points="167.75,-107.36 167.75,-128.36 208.25,-128.36 208.25,-107.36 167.75,-107.36"/>
<polygon fill="none" stroke="#1f2933" points="167.75,-107.36 167.75,-128.36 208.25,-128.36 208.25,-107.36 167.75,-107.36"/>
<text xml:space="preserve" text-anchor="start" x="175.62" y="-113.06" font-family="Helvetica,sans-Serif" font-weight="bold" font-size="14.00">Key</text>
<polygon fill="#e5e7eb" stroke="none" points="208.25,-107.36 208.25,-128.36 250.25,-128.36 250.25,-107.36 208.25,-107.36"/>
<polygon fill="none" stroke="#1f2933" points="208.25,-107.36 208.25,-128.36 250.25,-128.36 250.25,-107.36 208.25,-107.36"/>
<text xml:space="preserve" text-anchor="start" x="211.25" y="-113.06" font-family="Helvetica,sans-Serif" font-weight="bold" font-size="14.00">Value</text>
<polygon fill="none" stroke="#1f2933" points="167.75,-86.36 167.75,-107.36 208.25,-107.36 208.25,-86.36 167.75,-86.36"/>
<text xml:space="preserve" text-anchor="start" x="170.75" y="-91.06" font-family="Helvetica,sans-Serif" font-size="14.00">name</text>
<polygon fill="none" stroke="#1f2933" points="208.25,-86.36 208.25,-107.36 250.25,-107.36 250.25,-86.36 208.25,-86.36"/>
<text xml:space="preserve" text-anchor="start" x="216.88" y="-91.83" font-family="Helvetica,sans-Serif" font-size="12.00" fill="#0f172a">Beta</text>
<polygon fill="none" stroke="#1f2933" points="166.75,-85.36 166.75,-129.36 251.25,-129.36 251.25,-85.36 166.75,-85.36"/>
</g>
<!-- graph_2__graph_root_1_n0&#45;&gt;graph_2__graph_root_1_n1 -->
<g id="edge1" class="edge">
<title>graph_2__graph_root_1_n0&#45;&gt;graph_2__graph_root_1_n1</title>
<path fill="none" stroke="#4b5563" d="M96.45,-79.25C115.17,-83.97 136.76,-89.41 155.93,-94.24"/>
<polygon fill="#4b5563" stroke="#4b5563" points="154.88,-97.59 165.43,-96.63 156.59,-90.8 154.88,-97.59"/>
<text xml:space="preserve" text-anchor="middle" x="131.62" y="-91.45" font-family="Helvetica,sans-Serif" font-size="14.00">win</text>
</g>
<!-- graph_2__graph_root_1_n2 -->
<g id="node4" class="node">
<title>graph_2__graph_root_1_n2</title>
<path fill="#ffffff" stroke="none" d="M341.75,-68.73C341.75,-68.73 338.75,-68.73 338.75,-68.73 337.25,-68.73 335.75,-67.23 335.75,-65.73 335.75,-65.73 335.75,-58.98 335.75,-58.98 335.75,-57.48 337.25,-55.98 338.75,-55.98 338.75,-55.98 341.75,-55.98 341.75,-55.98 343.25,-55.98 344.75,-57.48 344.75,-58.98 344.75,-58.98 344.75,-65.73 344.75,-65.73 344.75,-67.23 343.25,-68.73 341.75,-68.73"/>
<text xml:space="preserve" text-anchor="start" x="335.75" y="-57.34" font-family="Helvetica,sans-Serif" font-size="12.00" fill="#0f172a">C</text>
</g>
<!-- graph_2__graph_root_1_n1&#45;&gt;graph_2__graph_root_1_n2 -->
<g id="edge2" class="edge">
<title>graph_2__graph_root_1_n1&#45;&gt;graph_2__graph_root_1_n2</title>
<path fill="none" stroke="#4b5563" d="M250.9,-93.12C276.23,-84.3 307.22,-73.51 324.95,-67.34"/>
<polygon fill="#4b5563" stroke="#4b5563" points="326.07,-70.65 334.36,-64.06 323.77,-64.04 326.07,-70.65"/>
<text xml:space="preserve" text-anchor="middle" x="293.5" y="-85.21" font-family="Helvetica,sans-Serif" font-size="14.00">assist</text>
</g>
<!-- graph_2__graph_root_1_n2&#45;&gt;graph_2__graph_root_1_n0 -->
<g id="edge3" class="edge">
<title>graph_2__graph_root_1_n2&#45;&gt;graph_2__graph_root_1_n0</title>
<path fill="none" stroke="#4b5563" d="M335.91,-61.69C324.29,-59.38 284.52,-51.8 251.25,-49.36 213.8,-46.61 204.2,-46.51 166.75,-49.36 147.32,-50.84 126.23,-53.68 107.36,-56.67"/>
<polygon fill="#4b5563" stroke="#4b5563" points="107.03,-53.18 97.72,-58.25 108.16,-60.09 107.03,-53.18"/>
<text xml:space="preserve" text-anchor="middle" x="209" y="-51.06" font-family="Helvetica,sans-Serif" font-size="14.00">loop</text>
</g>
<!-- anchor_graph_demo -->
<g id="node5" class="node">
<title>anchor_graph_demo</title>
<path fill="#ffffff" stroke="none" d="M82.5,-179.36C82.5,-179.36 14,-179.36 14,-179.36 8,-179.36 2,-173.36 2,-167.36 2,-167.36 2,-155.36 2,-155.36 2,-149.36 8,-143.36 14,-143.36 14,-143.36 82.5,-143.36 82.5,-143.36 88.5,-143.36 94.5,-149.36 94.5,-155.36 94.5,-155.36 94.5,-167.36 94.5,-167.36 94.5,-173.36 88.5,-179.36 82.5,-179.36"/>
<text xml:space="preserve" text-anchor="middle" x="48.25" y="-155.56" font-family="Helvetica,sans-Serif" font-size="14.00" fill="#6b7280">graph_demo</text>
</g>
</g>
</svg>
