<?xml version="1.0" encoding="UTF-8" standalone="no"?>
<!DOCTYPE svg PUBLIC "-//W3C//DTD SVG 1.1//EN"
 "http://www.w3.org/Graphics/SVG/1.1/DTD/svg11.dtd">
<!-- Generated by graphviz version 13.1.2 (0)
 -->
<!-- Title: G Pages: 1 -->
<svg width="264pt" height="393pt"
 viewBox="0.00 0.00 264.00 393.00" xmlns="http://www.w3.org/2000/svg" xmlns:xlink="http://www.w3.org/1999/xlink">
<g id="graph0" class="graph" transform="scale(1 1) rotate(0) translate(4 388.95)">
<title>G</title>
<polygon fill="white" stroke="none" points="-4,4 -4,-388.95 259.6,-388.95 259.6,4 -4,4"/>
<!-- hash_bucket_2 -->
<g id="node1" class="node">
<title>hash_bucket_2</title>
<path fill="#ffffff" stroke="none" d="M24.3,-228.95C24.3,-228.95 15.3,-228.95 15.3,-228.95 10.8,-228.95 6.3,-224.45 6.3,-219.95 6.3,-219.95 6.3,-188.2 6.3,-188.2 6.3,-183.7 10.8,-179.2 15.3,-179.2 15.3,-179.2 24.3,-179.2 24.3,-179.2 28.8,-179.2 33.3,-183.7 33.3,-188.2 33.3,-188.2 33.3,-219.95 33.3,-219.95 33.3,-224.45 28.8,-228.95 24.3,-228.95"/>
<text xml:space="preserve" text-anchor="start" x="15.3" y="-209.55" font-family="Helvetica,sans-Serif" font-weight="bold" font-size="12.00">H</text>
<polygon fill="none" stroke="#1f2933" points="8.3,-200.2 8.3,-226.95 31.3,-226.95 31.3,-200.2 8.3,-200.2"/>
<text xml:space="preserve" text-anchor="start" x="16.05" y="-182.9" font-family="Helvetica,sans-Serif" font-size="14.00" fill="#dc2626">0</text>
</g>
<!-- hash_bucket_5 -->
<g id="node2" class="node">
<title>hash_bucket_5</title>
<path fill="#ffffff" stroke="none" d="M94.3,-228.95C94.3,-228.95 85.3,-228.95 85.3,-228.95 80.8,-228.95 76.3,-224.45 76.3,-219.95 76.3,-219.95 76.3,-188.2 76.3,-188.2 76.3,-183.7 80.8,-179.2 85.3,-179.2 85.3,-179.2 94.3,-179.2 94.3,-179.2 98.8,-179.2 103.3,-183.7 103.3,-188.2 103.3,-188.2 103.3,-219.95 103.3,-219.95 103.3,-224.45 98.8,-228.95 94.3,-228.95"/>
<text xml:space="preserve" text-anchor="start" x="85.3" y="-209.55" font-family="Helvetica,sans-Serif" font-weight="bold" font-size="12.00">H</text>
<polygon fill="none" stroke="#1f2933" points="78.3,-200.2 78.3,-226.95 101.3,-226.95 101.3,-200.2 78.3,-200.2"/>
<text xml:space="preserve" text-anchor="start" x="86.05" y="-182.9" font-family="Helvetica,sans-Serif" font-size="14.00" fill="#dc2626">1</text>
</g>
<!-- hash_bucket_2&#45;&gt;hash_bucket_5 -->
<!-- hash_val_3 -->
<g id="node6" class="node">
<title>hash_val_3</title>
<ellipse fill="#ffffff" stroke="#1f2933" cx="19.8" cy="-109.4" rx="19.8" ry="19.8"/>
<text xml:space="preserve" text-anchor="middle" x="19.8" y="-104.95" font-family="Helvetica,sans-Serif" font-size="11.00">{&#39;key…</text>
</g>
<!-- hash_bucket_2&#45;&gt;hash_val_3 -->
<g id="edge2" class="edge">
<title>hash_bucket_2&#45;&gt;hash_val_3</title>
<path fill="none" stroke="#1f2933" d="M19.8,-179.21C19.8,-167.5 19.8,-153.27 19.8,-140.8"/>
<polygon fill="#1f2933" stroke="#1f2933" points="23.3,-141.03 19.8,-131.03 16.3,-141.03 23.3,-141.03"/>
</g>
<!-- hash_bucket_6 -->
<g id="node3" class="node">
<title>hash_bucket_6</title>
<path fill="#ffffff" stroke="none" d="M164.3,-228.95C164.3,-228.95 155.3,-228.95 155.3,-228.95 150.8,-228.95 146.3,-224.45 146.3,-219.95 146.3,-219.95 146.3,-188.2 146.3,-188.2 146.3,-183.7 150.8,-179.2 155.3,-179.2 155.3,-179.2 164.3,-179.2 164.3,-179.2 168.8,-179.2 173.3,-183.7 173.3,-188.2 173.3,-188.2 173.3,-219.95 173.3,-219.95 173.3,-224.45 168.8,-228.95 164.3,-228.95"/>
<text xml:space="preserve" text-anchor="start" x="155.3" y="-209.55" font-family="Helvetica,sans-Serif" font-weight="bold" font-size="12.00">H</text>
<polygon fill="none" stroke="#1f2933" points="148.3,-200.2 148.3,-226.95 171.3,-226.95 171.3,-200.2 148.3,-200.2"/>
<text xml:space="preserve" text-anchor="start" x="156.05" y="-182.9" font-family="Helvetica,sans-Serif" font-size="14.00" fill="#dc2626">2</text>
</g>
<!-- hash_bucket_5&#45;&gt;hash_bucket_6 -->
<!-- hash_bucket_8 -->
<g id="node4" class="node">
<title>hash_bucket_8</title>
<path fill="#ffffff" stroke="none" d="M234.3,-228.95C234.3,-228.95 225.3,-228.95 225.3,-228.95 220.8,-228.95 216.3,-224.45 216.3,-219.95 216.3,-219.95 216.3,-188.2 216.3,-188.2 216.3,-183.7 220.8,-179.2 225.3,-179.2 225.3,-179.2 234.3,-179.2 234.3,-179.2 238.8,-179.2 243.3,-183.7 243.3,-188.2 243.3,-188.2 243.3,-219.95 243.3,-219.95 243.3,-224.45 238.8,-228.95 234.3,-228.95"/>
<text xml:space="preserve" text-anchor="start" x="225.3" y="-209.55" font-family="Helvetica,sans-Serif" font-weight="bold" font-size="12.00">H</text>
<polygon fill="none" stroke="#1f2933" points="218.3,-200.2 218.3,-226.95 241.3,-226.95 241.3,-200.2 218.3,-200.2"/>
<text xml:space="preserve" text-anchor="start" x="226.05" y="-182.9" font-family="Helvetica,sans-Serif" font-size="14.00" fill="#dc2626">3</text>
</g>
<!-- hash_bucket_6&#45;&gt;hash_bucket_8 -->
<!-- hash_val_7 -->
<g id="node8" class="node">
<title>hash_val_7</title>
<ellipse fill="#ffffff" stroke="#1f2933" cx="152.8" cy="-109.4" rx="19.8" ry="19.8"/>
<text xml:space="preserve" text-anchor="middle" x="152.8" y="-104.95" font-family="Helvetica,sans-Serif" font-size="11.00">{&#39;key…</text>
</g>
<!-- hash_bucket_6&#45;&gt;hash_val_7 -->
<g id="edge6" class="edge">
<title>hash_bucket_6&#45;&gt;hash_val_7</title>
<path fill="none" stroke="#1f2933" d="M158,-179.21C157.11,-167.5 156.04,-153.27 155.1,-140.8"/>
<polygon fill="#1f2933" stroke="#1f2933" points="158.6,-140.74 154.36,-131.03 151.62,-141.26 158.6,-140.74"/>
</g>
<!-- hash_val_9 -->
<g id="node9" class="node">
<title>hash_val_9</title>
<ellipse fill="#ffffff" stroke="#1f2933" cx="235.8" cy="-109.4" rx="19.8" ry="19.8"/>
<text xml:space="preserve" text-anchor="middle" x="235.8" y="-104.95" font-family="Helvetica,sans-Serif" font-size="11.00">{&#39;key…</text>
</g>
<!-- hash_bucket_8&#45;&gt;hash_val_9 -->
<g id="edge8" class="edge">
<title>hash_bucket_8&#45;&gt;hash_val_9</title>
<path fill="none" stroke="#1f2933" d="M231.35,-179.21C232.1,-167.5 233.02,-153.27 233.83,-140.8"/>
<polygon fill="#1f2933" stroke="#1f2933" points="237.31,-141.23 234.46,-131.03 230.33,-140.78 237.31,-141.23"/>
</g>
<!-- hash_root_1 -->
<g id="node5" class="node">
<title>hash_root_1</title>
<path fill="#ffffff" stroke="none" d="M148.38,-298.95C148.38,-298.95 101.22,-298.95 101.22,-298.95 97.88,-298.95 94.55,-295.62 94.55,-292.28 94.55,-292.28 94.55,-285.62 94.55,-285.62 94.55,-282.28 97.88,-278.95 101.22,-278.95 101.22,-278.95 148.38,-278.95 148.38,-278.95 151.72,-278.95 155.05,-282.28 155.05,-285.62 155.05,-285.62 155.05,-292.28 155.05,-292.28 155.05,-295.62 151.72,-298.95 148.38,-298.95"/>
<text xml:space="preserve" text-anchor="start" x="98.55" y="-284.5" font-family="Helvetica,sans-Serif" font-size="11.00" fill="#94a3b8">hash_table</text>
</g>
<!-- hash_root_1&#45;&gt;hash_bucket_2 -->
<!-- hash_root_1&#45;&gt;hash_bucket_5 -->
<!-- hash_root_1&#45;&gt;hash_bucket_6 -->
<!-- hash_root_1&#45;&gt;hash_bucket_8 -->
<!-- hash_val_4 -->
<g id="node7" class="node">
<title>hash_val_4</title>
<ellipse fill="#ffffff" stroke="#1f2933" cx="19.8" cy="-19.8" rx="19.8" ry="19.8"/>
<text xml:space="preserve" text-anchor="middle" x="19.8" y="-15.35" font-family="Helvetica,sans-Serif" font-size="11.00">{&#39;key…</text>
</g>
<!-- hash_val_3&#45;&gt;hash_val_4 -->
<g id="edge3" class="edge">
<title>hash_val_3&#45;&gt;hash_val_4</title>
<path fill="none" stroke="#1f2933" d="M19.8,-89.39C19.8,-78.33 19.8,-64.13 19.8,-51.52"/>
<polygon fill="#1f2933" stroke="#1f2933" points="23.3,-51.59 19.8,-41.59 16.3,-51.59 23.3,-51.59"/>
</g>
<!-- anchor_hash_table -->
<g id="node10" class="node">
<title>anchor_hash_table</title>
<path fill="#ffffff" stroke="none" d="M153.8,-384.95C153.8,-384.95 95.8,-384.95 95.8,-384.95 89.8,-384.95 83.8,-378.95 83.8,-372.95 83.8,-372.95 83.8,-360.95 83.8,-360.95 83.8,-354.95 89.8,-348.95 95.8,-348.95 95.8,-348.95 153.8,-348.95 153.8,-348.95 159.8,-348.95 165.8,-354.95 165.8,-360.95 165.8,-360.95 165.8,-372.95 165.8,-372.95 165.8,-378.95 159.8,-384.95 153.8,-384.95"/>
<text xml:space="preserve" text-anchor="middle" x="124.8" y="-361.15" font-family="Helvetica,sans-Serif" font-size="14.00" fill="#6b7280">hash_table</text>
</g>
<!-- anchor_hash_table&#45;&gt;hash_root_1 -->
<g id="edge12" class="edge">
<title>anchor_hash_table&#45;&gt;hash_root_1</title>
<path fill="none" stroke="#9ca3af" stroke-dasharray="5,2" d="M124.8,-349.08C124.8,-337.53 124.8,-322.15 124.8,-309.97"/>
<polygon fill="#9ca3af" stroke="#9ca3af" points="128.3,-310.25 124.8,-300.25 121.3,-310.25 128.3,-310.25"/>
</g>
</g>
</svg>
