<?xml version="1.0" encoding="UTF-8" standalone="no"?>
<!DOCTYPE svg PUBLIC "-//W3C//DTD SVG 1.1//EN"
 "http://www.w3.org/Graphics/SVG/1.1/DTD/svg11.dtd">
<!-- Generated by graphviz version 13.1.2 (0)
 -->
<!-- Title: heap Pages: 1 -->
<svg width="380pt" height="340pt"
 viewBox="0.00 0.00 380.00 340.00" xmlns="http://www.w3.org/2000/svg" xmlns:xlink="http://www.w3.org/1999/xlink">
<g id="graph0" class="graph" transform="scale(1 1) rotate(0) translate(4 335.75)">
<title>heap</title>
<polygon fill="white" stroke="none" points="-4,4 -4,-335.75 376,-335.75 376,4 -4,4"/>
<text xml:space="preserve" text-anchor="start" x="167.62" y="-311.65" font-family="Times,serif" font-weight="bold" font-size="18.00">heap</text>
<g id="clust2" class="cluster">
<title>cluster_tree</title>
<polygon fill="none" stroke="none" points="43,-8 43,-178 329,-178 329,-8 43,-8"/>
</g>
<!-- array_view -->
<g id="node1" class="node">
<title>array_view</title>
<polygon fill="none" stroke="black" points="3,-263.75 3,-299.75 55.29,-299.75 55.29,-263.75 3,-263.75"/>
<text xml:space="preserve" text-anchor="start" x="25.77" y="-276.73" font-family="Helvetica,sans-Serif" font-size="12.00" fill="#0f172a">1</text>
<polygon fill="none" stroke="black" points="55.29,-263.75 55.29,-299.75 107.57,-299.75 107.57,-263.75 55.29,-263.75"/>
<text xml:space="preserve" text-anchor="start" x="78.05" y="-276.73" font-family="Helvetica,sans-Serif" font-size="12.00" fill="#0f172a">3</text>
<polygon fill="none" stroke="black" points="107.57,-263.75 107.57,-299.75 159.86,-299.75 159.86,-263.75 107.57,-263.75"/>
<text xml:space="preserve" text-anchor="start" x="130.34" y="-276.73" font-family="Helvetica,sans-Serif" font-size="12.00" fill="#0f172a">5</text>
<polygon fill="none" stroke="black" points="159.86,-263.75 159.86,-299.75 212.14,-299.75 212.14,-263.75 159.86,-263.75"/>
<text xml:space="preserve" text-anchor="start" x="182.62" y="-276.73" font-family="Helvetica,sans-Serif" font-size="12.00" fill="#0f172a">7</text>
<polygon fill="none" stroke="black" points="212.14,-263.75 212.14,-299.75 264.43,-299.75 264.43,-263.75 212.14,-263.75"/>
<text xml:space="preserve" text-anchor="start" x="234.91" y="-276.73" font-family="Helvetica,sans-Serif" font-size="12.00" fill="#0f172a">9</text>
<polygon fill="none" stroke="black" points="264.43,-263.75 264.43,-299.75 316.71,-299.75 316.71,-263.75 264.43,-263.75"/>
<text xml:space="preserve" text-anchor="start" x="284.57" y="-276.73" font-family="Helvetica,sans-Serif" font-size="12.00" fill="#0f172a">11</text>
<polygon fill="none" stroke="black" points="316.71,-263.75 316.71,-299.75 369,-299.75 369,-263.75 316.71,-263.75"/>
<text xml:space="preserve" text-anchor="start" x="336.11" y="-276.73" font-family="Helvetica,sans-Serif" font-size="12.00" fill="#0f172a">13</text>
<polygon fill="none" stroke="black" points="2,-262.75 2,-300.75 370,-300.75 370,-262.75 2,-262.75"/>
<text xml:space="preserve" text-anchor="start" x="26.62" y="-241.35" font-family="Helvetica,sans-Serif" font-size="12.00" fill="#dc2626">0</text>
<text xml:space="preserve" text-anchor="start" x="78.62" y="-241.35" font-family="Helvetica,sans-Serif" font-size="12.00" fill="#dc2626">1</text>
<text xml:space="preserve" text-anchor="start" x="130.62" y="-241.35" font-family="Helvetica,sans-Serif" font-size="12.00" fill="#dc2626">2</text>
<text xml:space="preserve" text-anchor="start" x="182.62" y="-241.35" font-family="Helvetica,sans-Serif" font-size="12.00" fill="#dc2626">3</text>
<text xml:space="preserve" text-anchor="start" x="234.62" y="-241.35" font-family="Helvetica,sans-Serif" font-size="12.00" fill="#dc2626">4</text>
<text xml:space="preserve" text-anchor="start" x="286.62" y="-241.35" font-family="Helvetica,sans-Serif" font-size="12.00" fill="#dc2626">5</text>
<text xml:space="preserve" text-anchor="start" x="338.62" y="-241.35" font-family="Helvetica,sans-Serif" font-size="12.00" fill="#dc2626">6</text>
</g>
<!-- t0 -->
<g id="node2" class="node">
<title>t0</title>
<text xml:space="preserve" text-anchor="start" x="182.62" y="-172.97" font-family="Helvetica,sans-Serif" font-size="12.00" fill="#0f172a">1</text>
</g>
<!-- array_view&#45;&gt;t0 -->
<!-- t1 -->
<g id="node3" class="node">
<title>t1</title>
<text xml:space="preserve" text-anchor="start" x="146.62" y="-100.97" font-family="Helvetica,sans-Serif" font-size="12.00" fill="#0f172a">3</text>
</g>
<!-- t0&#45;&gt;t1 -->
<g id="edge1" class="edge">
<title>t0&#45;&gt;t1</title>
<path fill="none" stroke="black" d="M177.29,-160.05C173.26,-152.23 168.38,-142.75 163.87,-133.98"/>
<polygon fill="black" stroke="black" points="167.01,-132.43 159.33,-125.13 160.79,-135.63 167.01,-132.43"/>
</g>
<!-- t2 -->
<g id="node4" class="node">
<title>t2</title>
<text xml:space="preserve" text-anchor="start" x="218.62" y="-100.97" font-family="Helvetica,sans-Serif" font-size="12.00" fill="#0f172a">5</text>
</g>
<!-- t0&#45;&gt;t2 -->
<g id="edge2" class="edge">
<title>t0&#45;&gt;t2</title>
<path fill="none" stroke="black" d="M194.71,-160.05C198.74,-152.23 203.62,-142.75 208.13,-133.98"/>
<polygon fill="black" stroke="black" points="211.21,-135.63 212.67,-125.13 204.99,-132.43 211.21,-135.63"/>
</g>
<!-- t3 -->
<g id="node5" class="node">
<title>t3</title>
<text xml:space="preserve" text-anchor="start" x="74.62" y="-28.98" font-family="Helvetica,sans-Serif" font-size="12.00" fill="#0f172a">7</text>
</g>
<!-- t1&#45;&gt;t3 -->
<g id="edge3" class="edge">
<title>t1&#45;&gt;t3</title>
<path fill="none" stroke="black" d="M132.57,-88.05C123.82,-79.54 113.04,-69.07 103.39,-59.68"/>
<polygon fill="black" stroke="black" points="105.96,-57.31 96.35,-52.84 101.08,-62.32 105.96,-57.31"/>
</g>
<!-- t4 -->
<g id="node6" class="node">
<title>t4</title>
<text xml:space="preserve" text-anchor="start" x="146.62" y="-28.98" font-family="Helvetica,sans-Serif" font-size="12.00" fill="#0f172a">9</text>
</g>
<!-- t1&#45;&gt;t4 -->
<g id="edge4" class="edge">
<title>t1&#45;&gt;t4</title>
<path fill="none" stroke="black" d="M150,-88.05C150,-80.57 150,-71.58 150,-63.14"/>
<polygon fill="black" stroke="black" points="153.5,-63.3 150,-53.3 146.5,-63.3 153.5,-63.3"/>
</g>
<!-- t5 -->
<g id="node7" class="node">
<title>t5</title>
<text xml:space="preserve" text-anchor="start" x="216" y="-28.98" font-family="Helvetica,sans-Serif" font-size="12.00" fill="#0f172a">11</text>
</g>
<!-- t2&#45;&gt;t5 -->
<g id="edge5" class="edge">
<title>t2&#45;&gt;t5</title>
<path fill="none" stroke="black" d="M222,-88.05C222,-80.57 222,-71.58 222,-63.14"/>
<polygon fill="black" stroke="black" points="225.5,-63.3 222,-53.3 218.5,-63.3 225.5,-63.3"/>
</g>
<!-- t6 -->
<g id="node8" class="node">
<title>t6</title>
<text xml:space="preserve" text-anchor="start" x="287.25" y="-28.98" font-family="Helvetica,sans-Serif" font-size="12.00" fill="#0f172a">13</text>
</g>
<!-- t2&#45;&gt;t6 -->
<g id="edge6" class="edge">
<title>t2&#45;&gt;t6</title>
<path fill="none" stroke="black" d="M239.43,-88.05C248.18,-79.54 258.96,-69.07 268.61,-59.68"/>
<polygon fill="black" stroke="black" points="270.92,-62.32 275.65,-52.84 266.04,-57.31 270.92,-62.32"/>
</g>
</g>
</svg>
