<?xml version="1.0" encoding="UTF-8" standalone="no"?>
<!DOCTYPE svg PUBLIC "-//W3C//DTD SVG 1.1//EN"
 "http://www.w3.org/Graphics/SVG/1.1/DTD/svg11.dtd">
<!-- Generated by graphviz version 13.1.2 (0)
 -->
<!-- Title: G Pages: 1 -->
<svg width="261pt" height="125pt"
 viewBox="0.00 0.00 261.00 125.00" xmlns="http://www.w3.org/2000/svg" xmlns:xlink="http://www.w3.org/1999/xlink">
<g id="graph0" class="graph" transform="scale(1 1) rotate(0) translate(4 120.5)">
<title>G</title>
<polygon fill="white" stroke="none" points="-4,4 -4,-120.5 257.25,-120.5 257.25,4 -4,4"/>
<!-- matrix_1 -->
<g id="node1" class="node">
<title>matrix_1</title>
<path fill="#ffffff" stroke="none" d="M241.25,-116.5C241.25,-116.5 157.5,-116.5 157.5,-116.5 151.5,-116.5 145.5,-110.5 145.5,-104.5 145.5,-104.5 145.5,-12 145.5,-12 145.5,-6 151.5,0 157.5,0 157.5,0 241.25,0 241.25,0 247.25,0 253.25,-6 253.25,-12 253.25,-12 253.25,-104.5 253.25,-104.5 253.25,-110.5 247.25,-116.5 241.25,-116.5"/>
<text xml:space="preserve" text-anchor="start" x="149.5" y="-98.3" font-family="Helvetica,sans-Serif" font-weight="bold" font-size="16.00">matrix_demo</text>
<polygon fill="#f3f4f6" stroke="none" points="150.5,-68 150.5,-89 166.75,-89 166.75,-68 150.5,-68"/>
<polygon fill="none" stroke="#1f2933" points="150.5,-68 150.5,-89 166.75,-89 166.75,-68 150.5,-68"/>
<polygon fill="#f3f4f6" stroke="none" points="166.75,-68 166.75,-89 183,-89 183,-68 166.75,-68"/>
<polygon fill="none" stroke="#1f2933" points="166.75,-68 166.75,-89 183,-89 183,-68 166.75,-68"/>
<text xml:space="preserve" text-anchor="start" x="171.12" y="-72.7" font-family="Helvetica,sans-Serif" font-size="14.00" fill="#dc2626">0</text>
<polygon fill="#f3f4f6" stroke="none" points="183,-68 183,-89 205.25,-89 205.25,-68 183,-68"/>
<polygon fill="none" stroke="#1f2933" points="183,-68 183,-89 205.25,-89 205.25,-68 183,-68"/>
<text xml:space="preserve" text-anchor="start" x="190.38" y="-72.7" font-family="Helvetica,sans-Serif" font-size="14.00" fill="#dc2626">1</text>
<polygon fill="#f3f4f6" stroke="none" points="205.25,-68 205.25,-89 226,-89 226,-68 205.25,-68"/>
<polygon fill="none" stroke="#1f2933" points="205.25,-68 205.25,-89 226,-89 226,-68 205.25,-68"/>
<text xml:space="preserve" text-anchor="start" x="211.88" y="-72.7" font-family="Helvetica,sans-Serif" font-size="14.00" fill="#dc2626">2</text>
<polygon fill="#f3f4f6" stroke="none" points="226,-68 226,-89 248.25,-89 248.25,-68 226,-68"/>
<polygon fill="none" stroke="#1f2933" points="226,-68 226,-89 248.25,-89 248.25,-68 226,-68"/>
<text xml:space="preserve" text-anchor="start" x="233.38" y="-72.7" font-family="Helvetica,sans-Serif" font-size="14.00" fill="#dc2626">3</text>
<polygon fill="#fef3c7" stroke="none" points="150.5,-47 150.5,-68 166.75,-68 166.75,-47 150.5,-47"/>
<polygon fill="none" stroke="#1f2933" points="150.5,-47 150.5,-68 166.75,-68 166.75,-47 150.5,-47"/>
<text xml:space="preserve" text-anchor="start" x="154.88" y="-51.7" font-family="Helvetica,sans-Serif" font-size="14.00" fill="#b45309">0</text>
<polygon fill="none" stroke="#1f2933" points="166.75,-47 166.75,-68 183,-68 183,-47 166.75,-47"/>
<text xml:space="preserve" text-anchor="start" x="171.5" y="-52.48" font-family="Helvetica,sans-Serif" font-size="12.00" fill="#0f172a">1</text>
<polygon fill="none" stroke="#1f2933" points="183,-47 183,-68 205.25,-68 205.25,-47 183,-47"/>
<text xml:space="preserve" text-anchor="start" x="190.75" y="-52.48" font-family="Helvetica,sans-Serif" font-size="12.00" fill="#0f172a">2</text>
<polygon fill="none" stroke="#1f2933" points="205.25,-47 205.25,-68 226,-68 226,-47 205.25,-47"/>
<text xml:space="preserve" text-anchor="start" x="212.25" y="-52.48" font-family="Helvetica,sans-Serif" font-size="12.00" fill="#0f172a">3</text>
<polygon fill="none" stroke="#1f2933" points="226,-47 226,-68 248.25,-68 248.25,-47 226,-47"/>
<text xml:space="preserve" text-anchor="start" x="233.75" y="-52.48" font-family="Helvetica,sans-Serif" font-size="12.00" fill="#0f172a">4</text>
<polygon fill="#fef3c7" stroke="none" points="150.5,-26 150.5,-47 166.75,-47 166.75,-26 150.5,-26"/>
<polygon fill="none" stroke="#1f2933" points="150.5,-26 150.5,-47 166.75,-47 166.75,-26 150.5,-26"/>
<text xml:space="preserve" text-anchor="start" x="154.88" y="-30.7" font-family="Helvetica,sans-Serif" font-size="14.00" fill="#b45309">1</text>
<polygon fill="none" stroke="#1f2933" points="166.75,-26 166.75,-47 183,-47 183,-26 166.75,-26"/>
<text xml:space="preserve" text-anchor="start" x="171.5" y="-31.48" font-family="Helvetica,sans-Serif" font-size="12.00" fill="#0f172a">5</text>
<polygon fill="none" stroke="#1f2933" points="183,-26 183,-47 205.25,-47 205.25,-26 183,-26"/>
<text xml:space="preserve" text-anchor="start" x="190.75" y="-31.48" font-family="Helvetica,sans-Serif" font-size="12.00" fill="#0f172a">6</text>
<polygon fill="none" stroke="#1f2933" points="205.25,-26 205.25,-47 226,-47 226,-26 205.25,-26"/>
<text xml:space="preserve" text-anchor="start" x="212.25" y="-31.48" font-family="Helvetica,sans-Serif" font-size="12.00" fill="#0f172a">7</text>
<polygon fill="none" stroke="#1f2933" points="226,-26 226,-47 248.25,-47 248.25,-26 226,-26"/>
<text xml:space="preserve" text-anchor="start" x="233.75" y="-31.48" font-family="Helvetica,sans-Serif" font-size="12.00" fill="#0f172a">8</text>
<polygon fill="#fef3c7" stroke="none" points="150.5,-5 150.5,-26 166.75,-26 166.75,-5 150.5,-5"/>
<polygon fill="none" stroke="#1f2933" points="150.5,-5 150.5,-26 166.75,-26 166.75,-5 150.5,-5"/>
<text xml:space="preserve" text-anchor="start" x="154.88" y="-9.7" font-family="Helvetica,sans-Serif" font-size="14.00" fill="#b45309">2</text>
<polygon fill="none" stroke="#1f2933" points="166.75,-5 166.75,-26 183,-26 183,-5 166.75,-5"/>
<text xml:space="preserve" text-anchor="start" x="171.5" y="-10.47" font-family="Helvetica,sans-Serif" font-size="12.00" fill="#0f172a">9</text>
<polygon fill="none" stroke="#1f2933" points="183,-5 183,-26 205.25,-26 205.25,-5 183,-5"/>
<text xml:space="preserve" text-anchor="start" x="187.38" y="-10.47" font-family="Helvetica,sans-Serif" font-size="12.00" fill="#0f172a">10</text>
<polygon fill="none" stroke="#1f2933" points="205.25,-5 205.25,-26 226,-26 226,-5 205.25,-5"/>
<text xml:space="preserve" text-anchor="start" x="209.62" y="-10.47" font-family="Helvetica,sans-Serif" font-size="12.00" fill="#0f172a">11</text>
<polygon fill="none" stroke="#1f2933" points="226,-5 226,-26 248.25,-26 248.25,-5 226,-5"/>
<text xml:space="preserve" text-anchor="start" x="230.38" y="-10.47" font-family="Helvetica,sans-Serif" font-size="12.00" fill="#0f172a">12</text>
<polygon fill="none" stroke="#1f2933" points="149.5,-4 149.5,-90 249.25,-90 249.25,-4 149.5,-4"/>
</g>
<!-- anchor_matrix_demo -->
<g id="node2" class="node">
<title>anchor_matrix_demo</title>
<path fill="#ffffff" stroke="none" d="M83.5,-76.25C83.5,-76.25 12,-76.25 12,-76.25 6,-76.25 0,-70.25 0,-64.25 0,-64.25 0,-52.25 0,-52.25 0,-46.25 6,-40.25 12,-40.25 12,-40.25 83.5,-40.25 83.5,-40.25 89.5,-40.25 95.5,-46.25 95.5,-52.25 95.5,-52.25 95.5,-64.25 95.5,-64.25 95.5,-70.25 89.5,-76.25 83.5,-76.25"/>
<text xml:space="preserve" text-anchor="middle" x="47.75" y="-52.45" font-family="Helvetica,sans-Serif" font-size="14.00" fill="#6b7280">matrix_demo</text>
</g>
<!-- anchor_matrix_demo&#45;&gt;matrix_1 -->
<g id="edge1" class="edge">
<title>anchor_matrix_demo&#45;&gt;matrix_1</title>
<path fill="none" stroke="#9ca3af" stroke-dasharray="5,2" d="M95.27,-58.25C107.61,-58.25 121.16,-58.25 134.26,-58.25"/>
<polygon fill="#9ca3af" stroke="#9ca3af" points="134.1,-61.75 144.1,-58.25 134.1,-54.75 134.1,-61.75"/>
</g>
</g>
</svg>
