<?xml version="1.0" encoding="UTF-8" standalone="no"?>
<!DOCTYPE svg PUBLIC "-//W3C//DTD SVG 1.1//EN"
 "http://www.w3.org/Graphics/SVG/1.1/DTD/svg11.dtd">
<!-- Generated by graphviz version 13.1.2 (0)
 -->
<!-- Title: G Pages: 1 -->
<svg width="703pt" height="127pt"
 viewBox="0.00 0.00 703.00 127.00" xmlns="http://www.w3.org/2000/svg" xmlns:xlink="http://www.w3.org/1999/xlink">
<g id="graph0" class="graph" transform="scale(1 1) rotate(0) translate(4 123.25)">
<title>G</title>
<polygon fill="white" stroke="none" points="-4,4 -4,-123.25 699,-123.25 699,4 -4,4"/>
<!-- arr_1 -->
<g id="node1" class="node">
<title>arr_1</title>
<path fill="#ffffff" stroke="none" d="M683,-119.25C683,-119.25 160.5,-119.25 160.5,-119.25 154.5,-119.25 148.5,-113.25 148.5,-107.25 148.5,-107.25 148.5,-12 148.5,-12 148.5,-6 154.5,0 160.5,0 160.5,0 683,0 683,0 689,0 695,-6 695,-12 695,-12 695,-107.25 695,-107.25 695,-113.25 689,-119.25 683,-119.25"/>
<text xml:space="preserve" text-anchor="start" x="370" y="-101.05" font-family="Helvetica,sans-Serif" font-weight="bold" font-size="16.00">nested_demo</text>
<polygon fill="#ffffff" stroke="none" points="155.5,-35.75 155.5,-89.75 240.25,-89.75 240.25,-35.75 155.5,-35.75"/>
<polygon fill="none" stroke="#1f2933" points="155.5,-35.75 155.5,-89.75 240.25,-89.75 240.25,-35.75 155.5,-35.75"/>
<polygon fill="#e5e7eb" stroke="none" points="161.5,-62.75 161.5,-83.75 192.25,-83.75 192.25,-62.75 161.5,-62.75"/>
<polygon fill="none" stroke="#1f2933" points="161.5,-62.75 161.5,-83.75 192.25,-83.75 192.25,-62.75 161.5,-62.75"/>
<text xml:space="preserve" text-anchor="start" x="164.5" y="-68.45" font-family="Helvetica,sans-Serif" font-weight="bold" font-size="14.00">Key</text>
<polygon fill="#e5e7eb" stroke="none" points="192.25,-62.75 192.25,-83.75 234.25,-83.75 234.25,-62.75 192.25,-62.75"/>
<polygon fill="none" stroke="#1f2933" points="192.25,-62.75 192.25,-83.75 234.25,-83.75 234.25,-62.75 192.25,-62.75"/>
<text xml:space="preserve" text-anchor="start" x="195.25" y="-68.45" font-family="Helvetica,sans-Serif" font-weight="bold" font-size="14.00">Value</text>
<polygon fill="none" stroke="#1f2933" points="161.5,-41.75 161.5,-62.75 192.25,-62.75 192.25,-41.75 161.5,-41.75"/>
<text xml:space="preserve" text-anchor="start" x="165.25" y="-46.45" font-family="Helvetica,sans-Serif" font-size="14.00">tree</text>
<polygon fill="none" stroke="#1f2933" points="192.25,-41.75 192.25,-62.75 234.25,-62.75 234.25,-41.75 192.25,-41.75"/>
<text xml:space="preserve" text-anchor="start" x="198.62" y="-47.23" font-family="Helvetica,sans-Serif" font-size="12.00" fill="#475569">Node</text>
<polygon fill="none" stroke="#1f2933" points="160.5,-40.75 160.5,-84.75 235.25,-84.75 235.25,-40.75 160.5,-40.75"/>
<polygon fill="#ffffff" stroke="none" points="240.25,-35.75 240.25,-89.75 347.5,-89.75 347.5,-35.75 240.25,-35.75"/>
<polygon fill="none" stroke="#1f2933" points="240.25,-35.75 240.25,-89.75 347.5,-89.75 347.5,-35.75 240.25,-35.75"/>
<polygon fill="#e5e7eb" stroke="none" points="246.25,-62.75 246.25,-83.75 287.5,-83.75 287.5,-62.75 246.25,-62.75"/>
<polygon fill="none" stroke="#1f2933" points="246.25,-62.75 246.25,-83.75 287.5,-83.75 287.5,-62.75 246.25,-62.75"/>
<text xml:space="preserve" text-anchor="start" x="254.5" y="-68.45" font-family="Helvetica,sans-Serif" font-weight="bold" font-size="14.00">Key</text>
<polygon fill="#e5e7eb" stroke="none" points="287.5,-62.75 287.5,-83.75 341.5,-83.75 341.5,-62.75 287.5,-62.75"/>
<polygon fill="none" stroke="#1f2933" points="287.5,-62.75 287.5,-83.75 341.5,-83.75 341.5,-62.75 287.5,-62.75"/>
<text xml:space="preserve" text-anchor="start" x="296.5" y="-68.45" font-family="Helvetica,sans-Serif" font-weight="bold" font-size="14.00">Value</text>
<polygon fill="none" stroke="#1f2933" points="246.25,-41.75 246.25,-62.75 287.5,-62.75 287.5,-41.75 246.25,-41.75"/>
<text xml:space="preserve" text-anchor="start" x="249.25" y="-46.45" font-family="Helvetica,sans-Serif" font-size="14.00">linked</text>
<polygon fill="none" stroke="#1f2933" points="287.5,-41.75 287.5,-62.75 341.5,-62.75 341.5,-41.75 287.5,-41.75"/>
<text xml:space="preserve" text-anchor="start" x="290.5" y="-47.23" font-family="Helvetica,sans-Serif" font-size="12.00" fill="#475569">ListNode</text>
<polygon fill="none" stroke="#1f2933" points="245.25,-40.75 245.25,-84.75 342.5,-84.75 342.5,-40.75 245.25,-40.75"/>
<polygon fill="#ffffff" stroke="none" points="347.5,-35.75 347.5,-89.75 448.75,-89.75 448.75,-35.75 347.5,-35.75"/>
<polygon fill="none" stroke="#1f2933" points="347.5,-35.75 347.5,-89.75 448.75,-89.75 448.75,-35.75 347.5,-35.75"/>
<polygon fill="#e5e7eb" stroke="none" points="353.5,-62.75 353.5,-83.75 388.75,-83.75 388.75,-62.75 353.5,-62.75"/>
<polygon fill="none" stroke="#1f2933" points="353.5,-62.75 353.5,-83.75 388.75,-83.75 388.75,-62.75 353.5,-62.75"/>
<text xml:space="preserve" text-anchor="start" x="358.75" y="-68.45" font-family="Helvetica,sans-Serif" font-weight="bold" font-size="14.00">Key</text>
<polygon fill="#e5e7eb" stroke="none" points="388.75,-62.75 388.75,-83.75 442.75,-83.75 442.75,-62.75 388.75,-62.75"/>
<polygon fill="none" stroke="#1f2933" points="388.75,-62.75 388.75,-83.75 442.75,-83.75 442.75,-62.75 388.75,-62.75"/>
<text xml:space="preserve" text-anchor="start" x="397.75" y="-68.45" font-family="Helvetica,sans-Serif" font-weight="bold" font-size="14.00">Value</text>
<polygon fill="none" stroke="#1f2933" points="353.5,-41.75 353.5,-62.75 388.75,-62.75 388.75,-41.75 353.5,-41.75"/>
<text xml:space="preserve" text-anchor="start" x="356.5" y="-46.45" font-family="Helvetica,sans-Serif" font-size="14.00">hash</text>
<polygon fill="none" stroke="#1f2933" points="388.75,-41.75 388.75,-62.75 442.75,-62.75 442.75,-41.75 388.75,-41.75"/>
<text xml:space="preserve" text-anchor="start" x="391.75" y="-47.23" font-family="Helvetica,sans-Serif" font-size="12.00" fill="#475569">list len=4</text>
<polygon fill="none" stroke="#1f2933" points="352.5,-40.75 352.5,-84.75 443.75,-84.75 443.75,-40.75 352.5,-40.75"/>
<polygon fill="#ffffff" stroke="none" points="448.75,-35.75 448.75,-89.75 567.25,-89.75 567.25,-35.75 448.75,-35.75"/>
<polygon fill="none" stroke="#1f2933" points="448.75,-35.75 448.75,-89.75 567.25,-89.75 567.25,-35.75 448.75,-35.75"/>
<polygon fill="#e5e7eb" stroke="none" points="454.75,-62.75 454.75,-83.75 495.25,-83.75 495.25,-62.75 454.75,-62.75"/>
<polygon fill="none" stroke="#1f2933" points="454.75,-62.75 454.75,-83.75 495.25,-83.75 495.25,-62.75 454.75,-62.75"/>
<text xml:space="preserve" text-anchor="start" x="462.62" y="-68.45" font-family="Helvetica,sans-Serif" font-weight="bold" font-size="14.00">Key</text>
<polygon fill="#e5e7eb" stroke="none" points="495.25,-62.75 495.25,-83.75 561.25,-83.75 561.25,-62.75 495.25,-62.75"/>
<polygon fill="none" stroke="#1f2933" points="495.25,-62.75 495.25,-83.75 561.25,-83.75 561.25,-62.75 495.25,-62.75"/>
<text xml:space="preserve" text-anchor="start" x="510.25" y="-68.45" font-family="Helvetica,sans-Serif" font-weight="bold" font-size="14.00">Value</text>
<polygon fill="none" stroke="#1f2933" points="454.75,-41.75 454.75,-62.75 495.25,-62.75 495.25,-41.75 454.75,-41.75"/>
<text xml:space="preserve" text-anchor="start" x="457.75" y="-46.45" font-family="Helvetica,sans-Serif" font-size="14.00">graph</text>
<polygon fill="none" stroke="#1f2933" points="495.25,-41.75 495.25,-62.75 561.25,-62.75 561.25,-41.75 495.25,-41.75"/>
<text xml:space="preserve" text-anchor="start" x="498.25" y="-47.23" font-family="Helvetica,sans-Serif" font-size="12.00" fill="#475569">dict keys=3</text>
<polygon fill="none" stroke="#1f2933" points="453.75,-40.75 453.75,-84.75 562.25,-84.75 562.25,-40.75 453.75,-40.75"/>
<polygon fill="#ffffff" stroke="none" points="567.25,-35.75 567.25,-89.75 688,-89.75 688,-35.75 567.25,-35.75"/>
<polygon fill="none" stroke="#1f2933" points="567.25,-35.75 567.25,-89.75 688,-89.75 688,-35.75 567.25,-35.75"/>
<polygon fill="#e5e7eb" stroke="none" points="573.25,-62.75 573.25,-83.75 616,-83.75 616,-62.75 573.25,-62.75"/>
<polygon fill="none" stroke="#1f2933" points="573.25,-62.75 573.25,-83.75 616,-83.75 616,-62.75 573.25,-62.75"/>
<text xml:space="preserve" text-anchor="start" x="582.25" y="-68.45" font-family="Helvetica,sans-Serif" font-weight="bold" font-size="14.00">Key</text>
<polygon fill="#e5e7eb" stroke="none" points="616,-62.75 616,-83.75 682,-83.75 682,-62.75 616,-62.75"/>
<polygon fill="none" stroke="#1f2933" points="616,-62.75 616,-83.75 682,-83.75 682,-62.75 616,-62.75"/>
<text xml:space="preserve" text-anchor="start" x="631" y="-68.45" font-family="Helvetica,sans-Serif" font-weight="bold" font-size="14.00">Value</text>
<polygon fill="none" stroke="#1f2933" points="573.25,-41.75 573.25,-62.75 616,-62.75 616,-41.75 573.25,-41.75"/>
<text xml:space="preserve" text-anchor="start" x="576.25" y="-46.45" font-family="Helvetica,sans-Serif" font-size="14.00">profile</text>
<polygon fill="none" stroke="#1f2933" points="616,-41.75 616,-62.75 682,-62.75 682,-41.75 616,-41.75"/>
<text xml:space="preserve" text-anchor="start" x="619" y="-47.23" font-family="Helvetica,sans-Serif" font-size="12.00" fill="#475569">dict keys=3</text>
<polygon fill="none" stroke="#1f2933" points="572.25,-40.75 572.25,-84.75 683,-84.75 683,-40.75 572.25,-40.75"/>
<polygon fill="none" stroke="#1f2933" points="154.5,-34.75 154.5,-90.75 689,-90.75 689,-34.75 154.5,-34.75"/>
<text xml:space="preserve" text-anchor="start" x="206.18" y="-13.35" font-family="Helvetica,sans-Serif" font-size="12.00" fill="#dc2626">0</text>
<text xml:space="preserve" text-anchor="start" x="312.27" y="-13.35" font-family="Helvetica,sans-Serif" font-size="12.00" fill="#dc2626">1</text>
<text xml:space="preserve" text-anchor="start" x="418.38" y="-13.35" font-family="Helvetica,sans-Serif" font-size="12.00" fill="#dc2626">2</text>
<text xml:space="preserve" text-anchor="start" x="524.48" y="-13.35" font-family="Helvetica,sans-Serif" font-size="12.00" fill="#dc2626">3</text>
<text xml:space="preserve" text-anchor="start" x="630.58" y="-13.35" font-family="Helvetica,sans-Serif" font-size="12.00" fill="#dc2626">4</text>
</g>
<!-- anchor_nested_demo -->
<g id="node2" class="node">
<title>anchor_nested_demo</title>
<path fill="#ffffff" stroke="none" d="M86.5,-77.62C86.5,-77.62 12,-77.62 12,-77.62 6,-77.62 0,-71.62 0,-65.62 0,-65.62 0,-53.62 0,-53.62 0,-47.62 6,-41.62 12,-41.62 12,-41.62 86.5,-41.62 86.5,-41.62 92.5,-41.62 98.5,-47.62 98.5,-53.62 98.5,-53.62 98.5,-65.62 98.5,-65.62 98.5,-71.62 92.5,-77.62 86.5,-77.62"/>
<text xml:space="preserve" text-anchor="middle" x="49.25" y="-53.83" font-family="Helvetica,sans-Serif" font-size="14.00" fill="#6b7280">nested_demo</text>
</g>
<!-- anchor_nested_demo&#45;&gt;arr_1 -->
<g id="edge1" class="edge">
<title>anchor_nested_demo&#45;&gt;arr_1</title>
<path fill="none" stroke="#9ca3af" stroke-dasharray="5,2" d="M98.31,-59.62C109.93,-59.62 123.19,-59.62 137.56,-59.62"/>
<polygon fill="#9ca3af" stroke="#9ca3af" points="137.24,-63.13 147.24,-59.63 137.24,-56.13 137.24,-63.13"/>
</g>
</g>
</svg>
