<?xml version="1.0" encoding="UTF-8" standalone="no"?>
<!DOCTYPE svg PUBLIC "-//W3C//DTD SVG 1.1//EN"
 "http://www.w3.org/Graphics/SVG/1.1/DTD/svg11.dtd">
<!-- Generated by graphviz version 13.1.2 (0)
 -->
<!-- Title: bar Pages: 1 -->
<svg width="258pt" height="241pt"
 viewBox="0.00 0.00 258.00 241.00" xmlns="http://www.w3.org/2000/svg" xmlns:xlink="http://www.w3.org/1999/xlink">
<g id="graph0" class="graph" transform="scale(1 1) rotate(0) translate(4 236.5)">
<title>bar</title>
<polygon fill="white" stroke="none" points="-4,4 -4,-236.5 254,-236.5 254,4 -4,4"/>
<text xml:space="preserve" text-anchor="middle" x="125" y="-215.2" font-family="Times,serif" font-size="14.00">step3: swap 1&lt;&#45;&gt;2</text>
<!-- bars -->
<g id="node1" class="node">
<title>bars</title>
<polygon fill="#bae6fd" stroke="none" points="12,-36 12,-68 46,-68 46,-36 12,-36"/>
<text xml:space="preserve" text-anchor="start" x="26.38" y="-25.55" font-family="Times,serif" font-size="11.00" fill="#0f172a">1</text>
<text xml:space="preserve" text-anchor="start" x="26.75" y="-13.95" font-family="Times,serif" font-size="9.00" fill="#dc2626">0</text>
<polygon fill="#bae6fd" stroke="none" points="60,-36 60,-68 94,-68 94,-36 60,-36"/>
<text xml:space="preserve" text-anchor="start" x="74.38" y="-25.55" font-family="Times,serif" font-size="11.00" fill="#0f172a">1</text>
<text xml:space="preserve" text-anchor="start" x="74.75" y="-13.95" font-family="Times,serif" font-size="9.00" fill="#dc2626">1</text>
<polygon fill="#bae6fd" stroke="none" points="108,-36 108,-132 142,-132 142,-36 108,-36"/>
<text xml:space="preserve" text-anchor="start" x="122.38" y="-25.55" font-family="Times,serif" font-size="11.00" fill="#0f172a">3</text>
<text xml:space="preserve" text-anchor="start" x="122.75" y="-13.95" font-family="Times,serif" font-size="9.00" fill="#dc2626">2</text>
<polygon fill="#bae6fd" stroke="none" points="156,-36 156,-164 190,-164 190,-36 156,-36"/>
<text xml:space="preserve" text-anchor="start" x="170.38" y="-25.55" font-family="Times,serif" font-size="11.00" fill="#0f172a">4</text>
<text xml:space="preserve" text-anchor="start" x="170.75" y="-13.95" font-family="Times,serif" font-size="9.00" fill="#dc2626">3</text>
<polygon fill="#bae6fd" stroke="none" points="204,-36 204,-196 238,-196 238,-36 204,-36"/>
<text xml:space="preserve" text-anchor="start" x="218.38" y="-25.55" font-family="Times,serif" font-size="11.00" fill="#0f172a">5</text>
<text xml:space="preserve" text-anchor="start" x="218.75" y="-13.95" font-family="Times,serif" font-size="9.00" fill="#dc2626">4</text>
</g>
</g>
</svg>
