<?xml version="1.0" encoding="UTF-8" standalone="no"?>
<!DOCTYPE svg PUBLIC "-//W3C//DTD SVG 1.1//EN"
 "http://www.w3.org/Graphics/SVG/1.1/DTD/svg11.dtd">
<!-- Generated by graphviz version 13.1.2 (0)
 -->
<!-- Title: G Pages: 1 -->
<svg width="568pt" height="128pt"
 viewBox="0.00 0.00 568.00 128.00" xmlns="http://www.w3.org/2000/svg" xmlns:xlink="http://www.w3.org/1999/xlink">
<g id="graph0" class="graph" transform="scale(1 1) rotate(0) translate(4 123.5)">
<title>G</title>
<polygon fill="white" stroke="none" points="-4,4 -4,-123.5 564,-123.5 564,4 -4,4"/>
<!-- list_1 -->
<g id="node1" class="node">
<title>list_1</title>
<path fill="#ffffff" stroke="none" d="M548,-119.5C548,-119.5 116,-119.5 116,-119.5 110,-119.5 104,-113.5 104,-107.5 104,-107.5 104,-12 104,-12 104,-6 110,0 116,0 116,0 548,0 548,0 554,0 560,-6 560,-12 560,-12 560,-107.5 560,-107.5 560,-113.5 554,-119.5 548,-119.5"/>
<text xml:space="preserve" text-anchor="start" x="308.75" y="-101.3" font-family="Helvetica,sans-Serif" font-weight="bold" font-size="16.00">linked</text>
<polygon fill="#ffffff" stroke="none" points="113,-9 113,-88 219.75,-88 219.75,-9 113,-9"/>
<polygon fill="none" stroke="#1f2933" points="113,-9 113,-88 219.75,-88 219.75,-9 113,-9"/>
<polygon fill="#e5e7eb" stroke="none" points="121,-59 121,-80 157.75,-80 157.75,-59 121,-59"/>
<polygon fill="none" stroke="#1f2933" points="121,-59 121,-80 157.75,-80 157.75,-59 121,-59"/>
<text xml:space="preserve" text-anchor="start" x="127" y="-64.7" font-family="Helvetica,sans-Serif" font-weight="bold" font-size="14.00">Key</text>
<polygon fill="#e5e7eb" stroke="none" points="157.75,-59 157.75,-80 211.75,-80 211.75,-59 157.75,-59"/>
<polygon fill="none" stroke="#1f2933" points="157.75,-59 157.75,-80 211.75,-80 211.75,-59 157.75,-59"/>
<text xml:space="preserve" text-anchor="start" x="166.75" y="-64.7" font-family="Helvetica,sans-Serif" font-weight="bold" font-size="14.00">Value</text>
<polygon fill="none" stroke="#1f2933" points="121,-38 121,-59 157.75,-59 157.75,-38 121,-38"/>
<text xml:space="preserve" text-anchor="start" x="125.12" y="-42.7" font-family="Helvetica,sans-Serif" font-size="14.00">label</text>
<polygon fill="none" stroke="#1f2933" points="157.75,-38 157.75,-59 211.75,-59 211.75,-38 157.75,-38"/>
<text xml:space="preserve" text-anchor="start" x="180.62" y="-43.48" font-family="Helvetica,sans-Serif" font-size="12.00" fill="#0f172a">A</text>
<polygon fill="none" stroke="#1f2933" points="121,-17 121,-38 157.75,-38 157.75,-17 121,-17"/>
<text xml:space="preserve" text-anchor="start" x="124" y="-21.7" font-family="Helvetica,sans-Serif" font-size="14.00">meta</text>
<polygon fill="none" stroke="#1f2933" points="157.75,-17 157.75,-38 211.75,-38 211.75,-17 157.75,-17"/>
<text xml:space="preserve" text-anchor="start" x="160.75" y="-22.48" font-family="Helvetica,sans-Serif" font-size="12.00" fill="#475569">list len=2</text>
<polygon fill="none" stroke="#1f2933" points="120,-16 120,-81 212.75,-81 212.75,-16 120,-16"/>
<polygon fill="none" stroke="#1f2933" points="112,-8 112,-89 220.75,-89 220.75,-8 112,-8"/>
<text xml:space="preserve" text-anchor="start" x="229.62" y="-43.83" font-family="Helvetica,sans-Serif" font-size="14.00" fill="#94a3b8">→</text>
<polygon fill="#ffffff" stroke="none" points="253.75,-9 253.75,-88 372.5,-88 372.5,-9 253.75,-9"/>
<polygon fill="none" stroke="#1f2933" points="253.75,-9 253.75,-88 372.5,-88 372.5,-9 253.75,-9"/>
<polygon fill="#e5e7eb" stroke="none" points="261.75,-59 261.75,-80 298.5,-80 298.5,-59 261.75,-59"/>
<polygon fill="none" stroke="#1f2933" points="261.75,-59 261.75,-80 298.5,-80 298.5,-59 261.75,-59"/>
<text xml:space="preserve" text-anchor="start" x="267.75" y="-64.7" font-family="Helvetica,sans-Serif" font-weight="bold" font-size="14.00">Key</text>
<polygon fill="#e5e7eb" stroke="none" points="298.5,-59 298.5,-80 364.5,-80 364.5,-59 298.5,-59"/>
<polygon fill="none" stroke="#1f2933" points="298.5,-59 298.5,-80 364.5,-80 364.5,-59 298.5,-59"/>
<text xml:space="preserve" text-anchor="start" x="313.5" y="-64.7" font-family="Helvetica,sans-Serif" font-weight="bold" font-size="14.00">Value</text>
<polygon fill="none" stroke="#1f2933" points="261.75,-38 261.75,-59 298.5,-59 298.5,-38 261.75,-38"/>
<text xml:space="preserve" text-anchor="start" x="265.88" y="-42.7" font-family="Helvetica,sans-Serif" font-size="14.00">label</text>
<polygon fill="none" stroke="#1f2933" points="298.5,-38 298.5,-59 364.5,-59 364.5,-38 298.5,-38"/>
<text xml:space="preserve" text-anchor="start" x="327.38" y="-43.48" font-family="Helvetica,sans-Serif" font-size="12.00" fill="#0f172a">B</text>
<polygon fill="none" stroke="#1f2933" points="261.75,-17 261.75,-38 298.5,-38 298.5,-17 261.75,-17"/>
<text xml:space="preserve" text-anchor="start" x="264.75" y="-21.7" font-family="Helvetica,sans-Serif" font-size="14.00">meta</text>
<polygon fill="none" stroke="#1f2933" points="298.5,-17 298.5,-38 364.5,-38 364.5,-17 298.5,-17"/>
<text xml:space="preserve" text-anchor="start" x="301.5" y="-22.48" font-family="Helvetica,sans-Serif" font-size="12.00" fill="#475569">dict keys=1</text>
<polygon fill="none" stroke="#1f2933" points="260.75,-16 260.75,-81 365.5,-81 365.5,-16 260.75,-16"/>
<polygon fill="none" stroke="#1f2933" points="252.75,-8 252.75,-89 373.5,-89 373.5,-8 252.75,-8"/>
<text xml:space="preserve" text-anchor="start" x="382.38" y="-43.83" font-family="Helvetica,sans-Serif" font-size="14.00" fill="#94a3b8">→</text>
<polygon fill="#ffffff" stroke="none" points="406.5,-9 406.5,-88 499,-88 499,-9 406.5,-9"/>
<polygon fill="none" stroke="#1f2933" points="406.5,-9 406.5,-88 499,-88 499,-9 406.5,-9"/>
<polygon fill="#e5e7eb" stroke="none" points="414.5,-48.5 414.5,-80 449,-80 449,-48.5 414.5,-48.5"/>
<polygon fill="none" stroke="#1f2933" points="414.5,-48.5 414.5,-80 449,-80 449,-48.5 414.5,-48.5"/>
<text xml:space="preserve" text-anchor="start" x="419.38" y="-59.45" font-family="Helvetica,sans-Serif" font-weight="bold" font-size="14.00">Key</text>
<polygon fill="#e5e7eb" stroke="none" points="449,-48.5 449,-80 491,-80 491,-48.5 449,-48.5"/>
<polygon fill="none" stroke="#1f2933" points="449,-48.5 449,-80 491,-80 491,-48.5 449,-48.5"/>
<text xml:space="preserve" text-anchor="start" x="452" y="-59.45" font-family="Helvetica,sans-Serif" font-weight="bold" font-size="14.00">Value</text>
<polygon fill="none" stroke="#1f2933" points="414.5,-17 414.5,-48.5 449,-48.5 449,-17 414.5,-17"/>
<text xml:space="preserve" text-anchor="start" x="417.5" y="-26.95" font-family="Helvetica,sans-Serif" font-size="14.00">label</text>
<polygon fill="none" stroke="#1f2933" points="449,-17 449,-48.5 491,-48.5 491,-17 449,-17"/>
<text xml:space="preserve" text-anchor="start" x="465.5" y="-27.73" font-family="Helvetica,sans-Serif" font-size="12.00" fill="#0f172a">C</text>
<polygon fill="none" stroke="#1f2933" points="413.5,-16 413.5,-81 492,-81 492,-16 413.5,-16"/>
<polygon fill="none" stroke="#1f2933" points="405.5,-8 405.5,-89 500,-89 500,-8 405.5,-8"/>
<text xml:space="preserve" text-anchor="start" x="508.88" y="-43.83" font-family="Helvetica,sans-Serif" font-size="14.00" fill="#94a3b8">→</text>
<polygon fill="none" stroke="#1f2933" points="533,-9 533,-88 551,-88 551,-9 533,-9"/>
<text xml:space="preserve" text-anchor="start" x="536" y="-42.7" font-family="Helvetica,sans-Serif" font-size="14.00" fill="#9ca3af">∅</text>
<polygon fill="none" stroke="#1f2933" points="532,-8 532,-89 552,-89 552,-8 532,-8"/>
</g>
<!-- anchor_linked -->
<g id="node2" class="node">
<title>anchor_linked</title>
<path fill="#ffffff" stroke="none" d="M42,-77.75C42,-77.75 12,-77.75 12,-77.75 6,-77.75 0,-71.75 0,-65.75 0,-65.75 0,-53.75 0,-53.75 0,-47.75 6,-41.75 12,-41.75 12,-41.75 42,-41.75 42,-41.75 48,-41.75 54,-47.75 54,-53.75 54,-53.75 54,-65.75 54,-65.75 54,-71.75 48,-77.75 42,-77.75"/>
<text xml:space="preserve" text-anchor="middle" x="27" y="-53.95" font-family="Helvetica,sans-Serif" font-size="14.00" fill="#6b7280">linked</text>
</g>
<!-- anchor_linked&#45;&gt;list_1 -->
<g id="edge1" class="edge">
<title>anchor_linked&#45;&gt;list_1</title>
<path fill="none" stroke="#9ca3af" stroke-dasharray="5,2" d="M53.83,-59.75C64.43,-59.75 77.75,-59.75 92.8,-59.75"/>
<polygon fill="#9ca3af" stroke="#9ca3af" points="92.53,-63.25 102.53,-59.75 92.53,-56.25 92.53,-63.25"/>
</g>
</g>
</svg>
