<?xml version="1.0" encoding="UTF-8" standalone="no"?>
<!DOCTYPE svg PUBLIC "-//W3C//DTD SVG 1.1//EN"
 "http://www.w3.org/Graphics/SVG/1.1/DTD/svg11.dtd">
<!-- Generated by graphviz version 13.1.2 (0)
 -->
<!-- Title: network Pages: 1 -->
<svg width="260pt" height="92pt"
 viewBox="0.00 0.00 260.00 92.00" xmlns="http://www.w3.org/2000/svg" xmlns:xlink="http://www.w3.org/1999/xlink">
<g id="graph0" class="graph" transform="scale(1 1) rotate(0) translate(4 87.5)">
<title>network</title>
<polygon fill="white" stroke="none" points="-4,4 -4,-87.5 256,-87.5 256,4 -4,4"/>
<text xml:space="preserve" text-anchor="middle" x="126" y="-66.2" font-family="Times,serif" font-size="14.00">G (|V|=4, |E|=4)</text>
<!-- v0 -->
<g id="node1" class="node">
<title>v0</title>
<ellipse fill="#e0f2fe" stroke="#0369a1" cx="18" cy="-18" rx="18" ry="18"/>
<text xml:space="preserve" text-anchor="middle" x="18" y="-12.2" font-family="Helvetica,sans-Serif" font-size="14.00">A</text>
</g>
<!-- v1 -->
<g id="node2" class="node">
<title>v1</title>
<ellipse fill="#e0f2fe" stroke="#0369a1" cx="90" cy="-41" rx="18" ry="18"/>
<text xml:space="preserve" text-anchor="middle" x="90" y="-35.2" font-family="Helvetica,sans-Serif" font-size="14.00">B</text>
</g>
<!-- v0&#45;&#45;v1 -->
<g id="edge1" class="edge">
<title>v0&#45;&#45;v1</title>
<path fill="none" stroke="black" d="M35.59,-23.45C46.75,-27.12 61.4,-31.93 72.53,-35.59"/>
</g>
<!-- v2 -->
<g id="node3" class="node">
<title>v2</title>
<ellipse fill="#e0f2fe" stroke="#0369a1" cx="162" cy="-18" rx="18" ry="18"/>
<text xml:space="preserve" text-anchor="middle" x="162" y="-12.2" font-family="Helvetica,sans-Serif" font-size="14.00">C</text>
</g>
<!-- v0&#45;&#45;v2 -->
<g id="edge2" class="edge">
<title>v0&#45;&#45;v2</title>
<path fill="none" stroke="black" d="M36.17,-16.38C46.53,-15.48 60.01,-14.45 72,-14 87.99,-13.4 92.01,-13.4 108,-14 119.99,-14.45 133.47,-15.48 143.83,-16.38"/>
</g>
<!-- v1&#45;&#45;v2 -->
<g id="edge3" class="edge">
<title>v1&#45;&#45;v2</title>
<path fill="none" stroke="black" d="M107.59,-35.55C118.75,-31.88 133.4,-27.07 144.53,-23.41"/>
</g>
<!-- v3 -->
<g id="node4" class="node">
<title>v3</title>
<ellipse fill="#e0f2fe" stroke="#0369a1" cx="234" cy="-18" rx="18" ry="18"/>
<text xml:space="preserve" text-anchor="middle" x="234" y="-12.2" font-family="Helvetica,sans-Serif" font-size="14.00">D</text>
</g>
<!-- v2&#45;&#45;v3 -->
<g id="edge4" class="edge">
<title>v2&#45;&#45;v3</title>
<path fill="none" stroke="black" d="M180.3,-18C191.15,-18 205.08,-18 215.9,-18"/>
</g>
</g>
</svg>
