<?xml version="1.0" encoding="UTF-8" standalone="no"?>
<!DOCTYPE svg PUBLIC "-//W3C//DTD SVG 1.1//EN"
 "http://www.w3.org/Graphics/SVG/1.1/DTD/svg11.dtd">
<!-- Generated by graphviz version 13.1.2 (0)
 -->
<!-- Title: G Pages: 1 -->
<svg width="282pt" height="141pt"
 viewBox="0.00 0.00 282.00 141.00" xmlns="http://www.w3.org/2000/svg" xmlns:xlink="http://www.w3.org/1999/xlink">
<g id="graph0" class="graph" transform="scale(1 1) rotate(0) translate(4 136.75)">
<title>G</title>
<polygon fill="white" stroke="none" points="-4,4 -4,-136.75 278,-136.75 278,4 -4,4"/>
<!-- arr_1 -->
<g id="node1" class="node">
<title>arr_1</title>
<path fill="#ffffff" stroke="none" d="M262,-132.75C262,-132.75 139.5,-132.75 139.5,-132.75 133.5,-132.75 127.5,-126.75 127.5,-120.75 127.5,-120.75 127.5,-12 127.5,-12 127.5,-6 133.5,0 139.5,0 139.5,0 262,0 262,0 268,0 274,-6 274,-12 274,-12 274,-120.75 274,-120.75 274,-126.75 268,-132.75 262,-132.75"/>
<text xml:space="preserve" text-anchor="start" x="161.38" y="-114.55" font-family="Helvetica,sans-Serif" font-weight="bold" font-size="16.00">np_values</text>
<polygon fill="#ffffff" stroke="none" points="134.5,-35.75 134.5,-103.25 200.75,-103.25 200.75,-35.75 134.5,-35.75"/>
<polygon fill="none" stroke="#1f2933" points="134.5,-35.75 134.5,-103.25 200.75,-103.25 200.75,-35.75 134.5,-35.75"/>
<polygon fill="#ffffff" stroke="none" points="142.5,-72.5 142.5,-95.25 159.25,-95.25 159.25,-72.5 142.5,-72.5"/>
<polygon fill="none" stroke="#1f2933" points="142.5,-72.5 142.5,-95.25 159.25,-95.25 159.25,-72.5 142.5,-72.5"/>
<text xml:space="preserve" text-anchor="start" x="147.5" y="-78.85" font-family="Helvetica,sans-Serif" font-size="12.00" fill="#0f172a">1</text>
<polygon fill="#ffffff" stroke="none" points="159.25,-72.5 159.25,-95.25 176,-95.25 176,-72.5 159.25,-72.5"/>
<polygon fill="none" stroke="#1f2933" points="159.25,-72.5 159.25,-95.25 176,-95.25 176,-72.5 159.25,-72.5"/>
<text xml:space="preserve" text-anchor="start" x="164.25" y="-78.85" font-family="Helvetica,sans-Serif" font-size="12.00" fill="#0f172a">2</text>
<polygon fill="#ffffff" stroke="none" points="176,-72.5 176,-95.25 192.75,-95.25 192.75,-72.5 176,-72.5"/>
<polygon fill="none" stroke="#1f2933" points="176,-72.5 176,-95.25 192.75,-95.25 192.75,-72.5 176,-72.5"/>
<text xml:space="preserve" text-anchor="start" x="181" y="-78.85" font-family="Helvetica,sans-Serif" font-size="12.00" fill="#0f172a">3</text>
<polygon fill="none" stroke="#1f2933" points="141.5,-71.5 141.5,-96.25 193.75,-96.25 193.75,-71.5 141.5,-71.5"/>
<text xml:space="preserve" text-anchor="start" x="148.17" y="-50.1" font-family="Helvetica,sans-Serif" font-size="12.00" fill="#dc2626">0</text>
<text xml:space="preserve" text-anchor="start" x="164.25" y="-50.1" font-family="Helvetica,sans-Serif" font-size="12.00" fill="#dc2626">1</text>
<text xml:space="preserve" text-anchor="start" x="180.33" y="-50.1" font-family="Helvetica,sans-Serif" font-size="12.00" fill="#dc2626">2</text>
<polygon fill="#ffffff" stroke="none" points="200.75,-35.75 200.75,-103.25 267,-103.25 267,-35.75 200.75,-35.75"/>
<polygon fill="none" stroke="#1f2933" points="200.75,-35.75 200.75,-103.25 267,-103.25 267,-35.75 200.75,-35.75"/>
<polygon fill="#ffffff" stroke="none" points="208.75,-72.5 208.75,-95.25 225.5,-95.25 225.5,-72.5 208.75,-72.5"/>
<polygon fill="none" stroke="#1f2933" points="208.75,-72.5 208.75,-95.25 225.5,-95.25 225.5,-72.5 208.75,-72.5"/>
<text xml:space="preserve" text-anchor="start" x="213.75" y="-78.85" font-family="Helvetica,sans-Serif" font-size="12.00" fill="#0f172a">4</text>
<polygon fill="#ffffff" stroke="none" points="225.5,-72.5 225.5,-95.25 242.25,-95.25 242.25,-72.5 225.5,-72.5"/>
<polygon fill="none" stroke="#1f2933" points="225.5,-72.5 225.5,-95.25 242.25,-95.25 242.25,-72.5 225.5,-72.5"/>
<text xml:space="preserve" text-anchor="start" x="230.5" y="-78.85" font-family="Helvetica,sans-Serif" font-size="12.00" fill="#0f172a">5</text>
<polygon fill="#ffffff" stroke="none" points="242.25,-72.5 242.25,-95.25 259,-95.25 259,-72.5 242.25,-72.5"/>
<polygon fill="none" stroke="#1f2933" points="242.25,-72.5 242.25,-95.25 259,-95.25 259,-72.5 242.25,-72.5"/>
<text xml:space="preserve" text-anchor="start" x="247.25" y="-78.85" font-family="Helvetica,sans-Serif" font-size="12.00" fill="#0f172a">6</text>
<polygon fill="none" stroke="#1f2933" points="207.75,-71.5 207.75,-96.25 260,-96.25 260,-71.5 207.75,-71.5"/>
<text xml:space="preserve" text-anchor="start" x="214.42" y="-50.1" font-family="Helvetica,sans-Serif" font-size="12.00" fill="#dc2626">0</text>
<text xml:space="preserve" text-anchor="start" x="230.5" y="-50.1" font-family="Helvetica,sans-Serif" font-size="12.00" fill="#dc2626">1</text>
<text xml:space="preserve" text-anchor="start" x="246.58" y="-50.1" font-family="Helvetica,sans-Serif" font-size="12.00" fill="#dc2626">2</text>
<polygon fill="none" stroke="#1f2933" points="133.5,-34.75 133.5,-104.25 268,-104.25 268,-34.75 133.5,-34.75"/>
<text xml:space="preserve" text-anchor="start" x="164.75" y="-13.35" font-family="Helvetica,sans-Serif" font-size="12.00" fill="#dc2626">0</text>
<text xml:space="preserve" text-anchor="start" x="230" y="-13.35" font-family="Helvetica,sans-Serif" font-size="12.00" fill="#dc2626">1</text>
</g>
<!-- anchor_np_values -->
<g id="node2" class="node">
<title>anchor_np_values</title>
<path fill="#ffffff" stroke="none" d="M65.5,-84.38C65.5,-84.38 12,-84.38 12,-84.38 6,-84.38 0,-78.38 0,-72.38 0,-72.38 0,-60.38 0,-60.38 0,-54.38 6,-48.38 12,-48.38 12,-48.38 65.5,-48.38 65.5,-48.38 71.5,-48.38 77.5,-54.38 77.5,-60.38 77.5,-60.38 77.5,-72.38 77.5,-72.38 77.5,-78.38 71.5,-84.38 65.5,-84.38"/>
<text xml:space="preserve" text-anchor="middle" x="38.75" y="-60.58" font-family="Helvetica,sans-Serif" font-size="14.00" fill="#6b7280">np_values</text>
</g>
<!-- anchor_np_values&#45;&gt;arr_1 -->
<g id="edge1" class="edge">
<title>anchor_np_values&#45;&gt;arr_1</title>
<path fill="none" stroke="#9ca3af" stroke-dasharray="5,2" d="M77.26,-66.38C89.03,-66.38 102.51,-66.38 116.14,-66.38"/>
<polygon fill="#9ca3af" stroke="#9ca3af" points="116.07,-69.88 126.07,-66.38 116.07,-62.88 116.07,-69.88"/>
</g>
</g>
</svg>
