<?xml version="1.0" encoding="UTF-8" standalone="no"?>
<!DOCTYPE svg PUBLIC "-//W3C//DTD SVG 1.1//EN"
 "http://www.w3.org/Graphics/SVG/1.1/DTD/svg11.dtd">
<!-- Generated by graphviz version 13.1.2 (0)
 -->
<!-- Title: G Pages: 1 -->
<svg width="1198pt" height="731pt"
 viewBox="0.00 0.00 1198.00 731.00" xmlns="http://www.w3.org/2000/svg" xmlns:xlink="http://www.w3.org/1999/xlink">
<g id="graph0" class="graph" transform="scale(1 1) rotate(0) translate(4 727)">
<title>G</title>
<polygon fill="white" stroke="none" points="-4,4 -4,-727 1194.25,-727 1194.25,4 -4,4"/>
<!-- table_1 -->
<g id="node1" class="node">
<title>table_1</title>
<path fill="#ffffff" stroke="none" d="M1178.25,-723C1178.25,-723 116,-723 116,-723 110,-723 104,-717 104,-711 104,-711 104,-12 104,-12 104,-6 110,0 116,0 116,0 1178.25,0 1178.25,0 1184.25,0 1190.25,-6 1190.25,-12 1190.25,-12 1190.25,-711 1190.25,-711 1190.25,-717 1184.25,-723 1178.25,-723"/>
<text xml:space="preserve" text-anchor="start" x="622.75" y="-704.8" font-family="Helvetica,sans-Serif" font-weight="bold" font-size="16.00">profile</text>
<polygon fill="#e5e7eb" stroke="none" points="109,-674.5 109,-695.5 154.75,-695.5 154.75,-674.5 109,-674.5"/>
<polygon fill="none" stroke="#1f2933" points="109,-674.5 109,-695.5 154.75,-695.5 154.75,-674.5 109,-674.5"/>
<text xml:space="preserve" text-anchor="start" x="119.5" y="-680.2" font-family="Helvetica,sans-Serif" font-weight="bold" font-size="14.00">Key</text>
<polygon fill="#e5e7eb" stroke="none" points="154.75,-674.5 154.75,-695.5 1185.25,-695.5 1185.25,-674.5 154.75,-674.5"/>
<polygon fill="none" stroke="#1f2933" points="154.75,-674.5 154.75,-695.5 1185.25,-695.5 1185.25,-674.5 154.75,-674.5"/>
<text xml:space="preserve" text-anchor="start" x="652" y="-680.2" font-family="Helvetica,sans-Serif" font-weight="bold" font-size="14.00">Value</text>
<polygon fill="none" stroke="#1f2933" points="109,-68.5 109,-674.5 154.75,-674.5 154.75,-68.5 109,-68.5"/>
<text xml:space="preserve" text-anchor="start" x="118.75" y="-365.7" font-family="Helvetica,sans-Serif" font-size="14.00">user</text>
<polygon fill="none" stroke="#1f2933" points="154.75,-68.5 154.75,-674.5 1185.25,-674.5 1185.25,-68.5 154.75,-68.5"/>
<polygon fill="#e5e7eb" stroke="none" points="158.75,-649.5 158.75,-670.5 202.25,-670.5 202.25,-649.5 158.75,-649.5"/>
<polygon fill="none" stroke="#1f2933" points="158.75,-649.5 158.75,-670.5 202.25,-670.5 202.25,-649.5 158.75,-649.5"/>
<text xml:space="preserve" text-anchor="start" x="168.12" y="-655.2" font-family="Helvetica,sans-Serif" font-weight="bold" font-size="14.00">Key</text>
<polygon fill="#e5e7eb" stroke="none" points="202.25,-649.5 202.25,-670.5 1181.25,-670.5 1181.25,-649.5 202.25,-649.5"/>
<polygon fill="none" stroke="#1f2933" points="202.25,-649.5 202.25,-670.5 1181.25,-670.5 1181.25,-649.5 202.25,-649.5"/>
<text xml:space="preserve" text-anchor="start" x="673.75" y="-655.2" font-family="Helvetica,sans-Serif" font-weight="bold" font-size="14.00">Value</text>
<polygon fill="none" stroke="#1f2933" points="158.75,-628.5 158.75,-649.5 202.25,-649.5 202.25,-628.5 158.75,-628.5"/>
<text xml:space="preserve" text-anchor="start" x="163.25" y="-633.2" font-family="Helvetica,sans-Serif" font-size="14.00">name</text>
<polygon fill="none" stroke="#1f2933" points="202.25,-628.5 202.25,-649.5 1181.25,-649.5 1181.25,-628.5 202.25,-628.5"/>
<text xml:space="preserve" text-anchor="start" x="683.5" y="-633.98" font-family="Helvetica,sans-Serif" font-size="12.00" fill="#0f172a">Lin</text>
<polygon fill="none" stroke="#1f2933" points="158.75,-72.5 158.75,-628.5 202.25,-628.5 202.25,-72.5 158.75,-72.5"/>
<text xml:space="preserve" text-anchor="start" x="161.75" y="-344.7" font-family="Helvetica,sans-Serif" font-size="14.00">avatar</text>
<polygon fill="none" stroke="#1f2933" points="202.25,-72.5 202.25,-628.5 1181.25,-628.5 1181.25,-72.5 202.25,-72.5"/>
<image xlink:href="/Users/bbnb/sg/internal/edcraft-engine/src/edcraft_engine/code_visualizer/demo_outputs/nus.png" width="972.616px" height="550px" preserveAspectRatio="xMinYMin meet" x="205.442" y="-625.5"/>
<polygon fill="none" stroke="#1f2933" points="157.75,-71.5 157.75,-671.5 1182.25,-671.5 1182.25,-71.5 157.75,-71.5"/>
<polygon fill="none" stroke="#1f2933" points="109,-5 109,-68.5 154.75,-68.5 154.75,-5 109,-5"/>
<text xml:space="preserve" text-anchor="start" x="112" y="-30.95" font-family="Helvetica,sans-Serif" font-size="14.00">history</text>
<polygon fill="none" stroke="#1f2933" points="154.75,-5 154.75,-68.5 1185.25,-68.5 1185.25,-5 154.75,-5"/>
<polygon fill="#ffffff" stroke="none" points="160.75,-39.75 160.75,-62.5 670,-62.5 670,-39.75 160.75,-39.75"/>
<polygon fill="none" stroke="#1f2933" points="160.75,-39.75 160.75,-62.5 670,-62.5 670,-39.75 160.75,-39.75"/>
<text xml:space="preserve" text-anchor="start" x="385.38" y="-46.1" font-family="Helvetica,sans-Serif" font-size="12.00" fill="#475569">dict keys=1</text>
<polygon fill="#ffffff" stroke="none" points="670,-39.75 670,-62.5 1179.25,-62.5 1179.25,-39.75 670,-39.75"/>
<polygon fill="none" stroke="#1f2933" points="670,-39.75 670,-62.5 1179.25,-62.5 1179.25,-39.75 670,-39.75"/>
<text xml:space="preserve" text-anchor="start" x="894.62" y="-46.1" font-family="Helvetica,sans-Serif" font-size="12.00" fill="#475569">dict keys=1</text>
<polygon fill="none" stroke="#1f2933" points="159.75,-38.75 159.75,-63.5 1180.25,-63.5 1180.25,-38.75 159.75,-38.75"/>
<text xml:space="preserve" text-anchor="start" x="412.5" y="-17.35" font-family="Helvetica,sans-Serif" font-size="12.00" fill="#dc2626">0</text>
<text xml:space="preserve" text-anchor="start" x="920.75" y="-17.35" font-family="Helvetica,sans-Serif" font-size="12.00" fill="#dc2626">1</text>
<polygon fill="none" stroke="#1f2933" points="108,-4 108,-696.5 1186.25,-696.5 1186.25,-4 108,-4"/>
</g>
<!-- anchor_profile -->
<g id="node2" class="node">
<title>anchor_profile</title>
<path fill="#ffffff" stroke="none" d="M42,-379.5C42,-379.5 12,-379.5 12,-379.5 6,-379.5 0,-373.5 0,-367.5 0,-367.5 0,-355.5 0,-355.5 0,-349.5 6,-343.5 12,-343.5 12,-343.5 42,-343.5 42,-343.5 48,-343.5 54,-349.5 54,-355.5 54,-355.5 54,-367.5 54,-367.5 54,-373.5 48,-379.5 42,-379.5"/>
<text xml:space="preserve" text-anchor="middle" x="27" y="-355.7" font-family="Helvetica,sans-Serif" font-size="14.00" fill="#6b7280">profile</text>
</g>
<!-- anchor_profile&#45;&gt;table_1 -->
<g id="edge1" class="edge">
<title>anchor_profile&#45;&gt;table_1</title>
<path fill="none" stroke="#9ca3af" stroke-dasharray="5,2" d="M53.77,-361.5C64.22,-361.5 77.51,-361.5 93.07,-361.5"/>
<polygon fill="#9ca3af" stroke="#9ca3af" points="92.69,-365 102.69,-361.5 92.69,-358 92.69,-365"/>
</g>
</g>
</svg>
