<?xml version="1.0" encoding="UTF-8" standalone="no"?>
<!DOCTYPE svg PUBLIC "-//W3C//DTD SVG 1.1//EN"
 "http://www.w3.org/Graphics/SVG/1.1/DTD/svg11.dtd">
<!-- Generated by graphviz version 13.1.2 (0)
 -->
<!-- Title: G Pages: 1 -->
<svg width="1060pt" height="1255pt"
 viewBox="0.00 0.00 1060.00 1255.00" xmlns="http://www.w3.org/2000/svg" xmlns:xlink="http://www.w3.org/1999/xlink">
<g id="graph0" class="graph" transform="scale(1 1) rotate(0) translate(4 1251.25)">
<title>G</title>
<polygon fill="white" stroke="none" points="-4,4 -4,-1251.25 1056.25,-1251.25 1056.25,4 -4,4"/>
<!-- table_1 -->
<g id="node1" class="node">
<title>table_1</title>
<path fill="#ffffff" stroke="none" d="M1040.25,-1247.25C1040.25,-1247.25 159.75,-1247.25 159.75,-1247.25 153.75,-1247.25 147.75,-1241.25 147.75,-1235.25 147.75,-1235.25 147.75,-12 147.75,-12 147.75,-6 153.75,0 159.75,0 159.75,0 1040.25,0 1040.25,0 1046.25,0 1052.25,-6 1052.25,-12 1052.25,-12 1052.25,-1235.25 1052.25,-1235.25 1052.25,-1241.25 1046.25,-1247.25 1040.25,-1247.25"/>
<text xml:space="preserve" text-anchor="start" x="547.12" y="-1229.05" font-family="Helvetica,sans-Serif" font-weight="bold" font-size="16.00">shortest_path</text>
<polygon fill="#e5e7eb" stroke="none" points="152.75,-1198.75 152.75,-1219.75 250.25,-1219.75 250.25,-1198.75 152.75,-1198.75"/>
<polygon fill="none" stroke="#1f2933" points="152.75,-1198.75 152.75,-1219.75 250.25,-1219.75 250.25,-1198.75 152.75,-1198.75"/>
<text xml:space="preserve" text-anchor="start" x="189.12" y="-1204.45" font-family="Helvetica,sans-Serif" font-weight="bold" font-size="14.00">Key</text>
<polygon fill="#e5e7eb" stroke="none" points="250.25,-1198.75 250.25,-1219.75 1047.25,-1219.75 1047.25,-1198.75 250.25,-1198.75"/>
<polygon fill="none" stroke="#1f2933" points="250.25,-1198.75 250.25,-1219.75 1047.25,-1219.75 1047.25,-1198.75 250.25,-1198.75"/>
<text xml:space="preserve" text-anchor="start" x="630.75" y="-1204.45" font-family="Helvetica,sans-Serif" font-weight="bold" font-size="14.00">Value</text>
<polygon fill="none" stroke="#1f2933" points="152.75,-907.75 152.75,-1198.75 250.25,-1198.75 250.25,-907.75 152.75,-907.75"/>
<text xml:space="preserve" text-anchor="start" x="184.25" y="-1047.45" font-family="Helvetica,sans-Serif" font-size="14.00">graph</text>
<polygon fill="none" stroke="#1f2933" points="250.25,-907.75 250.25,-1198.75 1047.25,-1198.75 1047.25,-907.75 250.25,-907.75"/>
<image xlink:href="/private/var/folders/dr/2mrswy0n63n8sjck6nt3z9lh0000gn/T/edcraft_viz_images/inline_0bd9bc2d1bdf4991a987642f0569982f.png" width="494.25px" height="285px" preserveAspectRatio="xMinYMin meet" x="401.625" y="-1195.75"/>
<polygon fill="none" stroke="#1f2933" points="152.75,-719.5 152.75,-907.75 250.25,-907.75 250.25,-719.5 152.75,-719.5"/>
<text xml:space="preserve" text-anchor="start" x="155.75" y="-807.83" font-family="Helvetica,sans-Serif" font-size="14.00">frontier_frames</text>
<polygon fill="none" stroke="#1f2933" points="250.25,-719.5 250.25,-907.75 1047.25,-907.75 1047.25,-719.5 250.25,-719.5"/>
<text xml:space="preserve" text-anchor="start" x="535.12" y="-886.55" font-family="Helvetica,sans-Serif" font-weight="bold" font-size="16.00">shortest_path.frontier_frames</text>
<polygon fill="#ffffff" stroke="none" points="260.25,-758.25 260.25,-875.25 374.25,-875.25 374.25,-758.25 260.25,-758.25"/>
<polygon fill="none" stroke="#1f2933" points="260.25,-758.25 260.25,-875.25 374.25,-875.25 374.25,-758.25 260.25,-758.25"/>
<polygon fill="#e5e7eb" stroke="none" points="266.25,-843 266.25,-869.25 314.25,-869.25 314.25,-843 266.25,-843"/>
<polygon fill="none" stroke="#1f2933" points="266.25,-843 266.25,-869.25 314.25,-869.25 314.25,-843 266.25,-843"/>
<text xml:space="preserve" text-anchor="start" x="277.88" y="-851.33" font-family="Helvetica,sans-Serif" font-weight="bold" font-size="14.00">Key</text>
<polygon fill="#e5e7eb" stroke="none" points="314.25,-843 314.25,-869.25 368.25,-869.25 368.25,-843 314.25,-843"/>
<polygon fill="none" stroke="#1f2933" points="314.25,-843 314.25,-869.25 368.25,-869.25 368.25,-843 314.25,-843"/>
<text xml:space="preserve" text-anchor="start" x="323.25" y="-851.33" font-family="Helvetica,sans-Serif" font-weight="bold" font-size="14.00">Value</text>
<polygon fill="none" stroke="#1f2933" points="266.25,-816.75 266.25,-843 314.25,-843 314.25,-816.75 266.25,-816.75"/>
<text xml:space="preserve" text-anchor="start" x="280.88" y="-824.08" font-family="Helvetica,sans-Serif" font-size="14.00">iter</text>
<polygon fill="none" stroke="#1f2933" points="314.25,-816.75 314.25,-843 368.25,-843 368.25,-816.75 314.25,-816.75"/>
<text xml:space="preserve" text-anchor="start" x="337.88" y="-824.85" font-family="Helvetica,sans-Serif" font-size="12.00" fill="#0f172a">0</text>
<polygon fill="none" stroke="#1f2933" points="266.25,-790.5 266.25,-816.75 314.25,-816.75 314.25,-790.5 266.25,-790.5"/>
<text xml:space="preserve" text-anchor="start" x="269.25" y="-797.83" font-family="Helvetica,sans-Serif" font-size="14.00">frontier</text>
<polygon fill="none" stroke="#1f2933" points="314.25,-790.5 314.25,-816.75 368.25,-816.75 368.25,-790.5 314.25,-790.5"/>
<text xml:space="preserve" text-anchor="start" x="317.25" y="-798.6" font-family="Helvetica,sans-Serif" font-size="12.00" fill="#475569">list len=1</text>
<polygon fill="none" stroke="#1f2933" points="266.25,-764.25 266.25,-790.5 314.25,-790.5 314.25,-764.25 266.25,-764.25"/>
<text xml:space="preserve" text-anchor="start" x="271.12" y="-771.58" font-family="Helvetica,sans-Serif" font-size="14.00">visited</text>
<polygon fill="none" stroke="#1f2933" points="314.25,-764.25 314.25,-790.5 368.25,-790.5 368.25,-764.25 314.25,-764.25"/>
<text xml:space="preserve" text-anchor="start" x="317.25" y="-772.35" font-family="Helvetica,sans-Serif" font-size="12.00" fill="#475569">list len=0</text>
<polygon fill="none" stroke="#1f2933" points="265.25,-763.25 265.25,-870.25 369.25,-870.25 369.25,-763.25 265.25,-763.25"/>
<polygon fill="#ffffff" stroke="none" points="374.25,-758.25 374.25,-875.25 511.5,-875.25 511.5,-758.25 374.25,-758.25"/>
<polygon fill="none" stroke="#1f2933" points="374.25,-758.25 374.25,-875.25 511.5,-875.25 511.5,-758.25 374.25,-758.25"/>
<polygon fill="#e5e7eb" stroke="none" points="380.25,-848.25 380.25,-869.25 451.5,-869.25 451.5,-848.25 380.25,-848.25"/>
<polygon fill="none" stroke="#1f2933" points="380.25,-848.25 380.25,-869.25 451.5,-869.25 451.5,-848.25 380.25,-848.25"/>
<text xml:space="preserve" text-anchor="start" x="403.5" y="-853.95" font-family="Helvetica,sans-Serif" font-weight="bold" font-size="14.00">Key</text>
<polygon fill="#e5e7eb" stroke="none" points="451.5,-848.25 451.5,-869.25 505.5,-869.25 505.5,-848.25 451.5,-848.25"/>
<polygon fill="none" stroke="#1f2933" points="451.5,-848.25 451.5,-869.25 505.5,-869.25 505.5,-848.25 451.5,-848.25"/>
<text xml:space="preserve" text-anchor="start" x="460.5" y="-853.95" font-family="Helvetica,sans-Serif" font-weight="bold" font-size="14.00">Value</text>
<polygon fill="none" stroke="#1f2933" points="380.25,-827.25 380.25,-848.25 451.5,-848.25 451.5,-827.25 380.25,-827.25"/>
<text xml:space="preserve" text-anchor="start" x="406.5" y="-831.95" font-family="Helvetica,sans-Serif" font-size="14.00">iter</text>
<polygon fill="none" stroke="#1f2933" points="451.5,-827.25 451.5,-848.25 505.5,-848.25 505.5,-827.25 451.5,-827.25"/>
<text xml:space="preserve" text-anchor="start" x="475.12" y="-832.73" font-family="Helvetica,sans-Serif" font-size="12.00" fill="#0f172a">1</text>
<polygon fill="none" stroke="#1f2933" points="380.25,-806.25 380.25,-827.25 451.5,-827.25 451.5,-806.25 380.25,-806.25"/>
<text xml:space="preserve" text-anchor="start" x="394.88" y="-810.95" font-family="Helvetica,sans-Serif" font-size="14.00">frontier</text>
<polygon fill="none" stroke="#1f2933" points="451.5,-806.25 451.5,-827.25 505.5,-827.25 505.5,-806.25 451.5,-806.25"/>
<text xml:space="preserve" text-anchor="start" x="454.5" y="-811.73" font-family="Helvetica,sans-Serif" font-size="12.00" fill="#475569">list len=2</text>
<polygon fill="none" stroke="#1f2933" points="380.25,-785.25 380.25,-806.25 451.5,-806.25 451.5,-785.25 380.25,-785.25"/>
<text xml:space="preserve" text-anchor="start" x="396.75" y="-789.95" font-family="Helvetica,sans-Serif" font-size="14.00">visited</text>
<polygon fill="none" stroke="#1f2933" points="451.5,-785.25 451.5,-806.25 505.5,-806.25 505.5,-785.25 451.5,-785.25"/>
<text xml:space="preserve" text-anchor="start" x="454.5" y="-790.73" font-family="Helvetica,sans-Serif" font-size="12.00" fill="#475569">list len=1</text>
<polygon fill="none" stroke="#1f2933" points="380.25,-764.25 380.25,-785.25 451.5,-785.25 451.5,-764.25 380.25,-764.25"/>
<text xml:space="preserve" text-anchor="start" x="383.25" y="-768.95" font-family="Helvetica,sans-Serif" font-size="14.00">relaxations</text>
<polygon fill="none" stroke="#1f2933" points="451.5,-764.25 451.5,-785.25 505.5,-785.25 505.5,-764.25 451.5,-764.25"/>
<text xml:space="preserve" text-anchor="start" x="454.5" y="-769.73" font-family="Helvetica,sans-Serif" font-size="12.00" fill="#475569">list len=2</text>
<polygon fill="none" stroke="#1f2933" points="379.25,-763.25 379.25,-870.25 506.5,-870.25 506.5,-763.25 379.25,-763.25"/>
<polygon fill="#ffffff" stroke="none" points="511.5,-758.25 511.5,-875.25 648.75,-875.25 648.75,-758.25 511.5,-758.25"/>
<polygon fill="none" stroke="#1f2933" points="511.5,-758.25 511.5,-875.25 648.75,-875.25 648.75,-758.25 511.5,-758.25"/>
<polygon fill="#e5e7eb" stroke="none" points="517.5,-848.25 517.5,-869.25 588.75,-869.25 588.75,-848.25 517.5,-848.25"/>
<polygon fill="none" stroke="#1f2933" points="517.5,-848.25 517.5,-869.25 588.75,-869.25 588.75,-848.25 517.5,-848.25"/>
<text xml:space="preserve" text-anchor="start" x="540.75" y="-853.95" font-family="Helvetica,sans-Serif" font-weight="bold" font-size="14.00">Key</text>
<polygon fill="#e5e7eb" stroke="none" points="588.75,-848.25 588.75,-869.25 642.75,-869.25 642.75,-848.25 588.75,-848.25"/>
<polygon fill="none" stroke="#1f2933" points="588.75,-848.25 588.75,-869.25 642.75,-869.25 642.75,-848.25 588.75,-848.25"/>
<text xml:space="preserve" text-anchor="start" x="597.75" y="-853.95" font-family="Helvetica,sans-Serif" font-weight="bold" font-size="14.00">Value</text>
<polygon fill="none" stroke="#1f2933" points="517.5,-827.25 517.5,-848.25 588.75,-848.25 588.75,-827.25 517.5,-827.25"/>
<text xml:space="preserve" text-anchor="start" x="543.75" y="-831.95" font-family="Helvetica,sans-Serif" font-size="14.00">iter</text>
<polygon fill="none" stroke="#1f2933" points="588.75,-827.25 588.75,-848.25 642.75,-848.25 642.75,-827.25 588.75,-827.25"/>
<text xml:space="preserve" text-anchor="start" x="612.38" y="-832.73" font-family="Helvetica,sans-Serif" font-size="12.00" fill="#0f172a">2</text>
<polygon fill="none" stroke="#1f2933" points="517.5,-806.25 517.5,-827.25 588.75,-827.25 588.75,-806.25 517.5,-806.25"/>
<text xml:space="preserve" text-anchor="start" x="532.12" y="-810.95" font-family="Helvetica,sans-Serif" font-size="14.00">frontier</text>
<polygon fill="none" stroke="#1f2933" points="588.75,-806.25 588.75,-827.25 642.75,-827.25 642.75,-806.25 588.75,-806.25"/>
<text xml:space="preserve" text-anchor="start" x="591.75" y="-811.73" font-family="Helvetica,sans-Serif" font-size="12.00" fill="#475569">list len=3</text>
<polygon fill="none" stroke="#1f2933" points="517.5,-785.25 517.5,-806.25 588.75,-806.25 588.75,-785.25 517.5,-785.25"/>
<text xml:space="preserve" text-anchor="start" x="534" y="-789.95" font-family="Helvetica,sans-Serif" font-size="14.00">visited</text>
<polygon fill="none" stroke="#1f2933" points="588.75,-785.25 588.75,-806.25 642.75,-806.25 642.75,-785.25 588.75,-785.25"/>
<text xml:space="preserve" text-anchor="start" x="591.75" y="-790.73" font-family="Helvetica,sans-Serif" font-size="12.00" fill="#475569">list len=2</text>
<polygon fill="none" stroke="#1f2933" points="517.5,-764.25 517.5,-785.25 588.75,-785.25 588.75,-764.25 517.5,-764.25"/>
<text xml:space="preserve" text-anchor="start" x="520.5" y="-768.95" font-family="Helvetica,sans-Serif" font-size="14.00">relaxations</text>
<polygon fill="none" stroke="#1f2933" points="588.75,-764.25 588.75,-785.25 642.75,-785.25 642.75,-764.25 588.75,-764.25"/>
<text xml:space="preserve" text-anchor="start" x="591.75" y="-769.73" font-family="Helvetica,sans-Serif" font-size="12.00" fill="#475569">list len=3</text>
<polygon fill="none" stroke="#1f2933" points="516.5,-763.25 516.5,-870.25 643.75,-870.25 643.75,-763.25 516.5,-763.25"/>
<polygon fill="#ffffff" stroke="none" points="648.75,-758.25 648.75,-875.25 786,-875.25 786,-758.25 648.75,-758.25"/>
<polygon fill="none" stroke="#1f2933" points="648.75,-758.25 648.75,-875.25 786,-875.25 786,-758.25 648.75,-758.25"/>
<polygon fill="#e5e7eb" stroke="none" points="654.75,-848.25 654.75,-869.25 726,-869.25 726,-848.25 654.75,-848.25"/>
<polygon fill="none" stroke="#1f2933" points="654.75,-848.25 654.75,-869.25 726,-869.25 726,-848.25 654.75,-848.25"/>
<text xml:space="preserve" text-anchor="start" x="678" y="-853.95" font-family="Helvetica,sans-Serif" font-weight="bold" font-size="14.00">Key</text>
<polygon fill="#e5e7eb" stroke="none" points="726,-848.25 726,-869.25 780,-869.25 780,-848.25 726,-848.25"/>
<polygon fill="none" stroke="#1f2933" points="726,-848.25 726,-869.25 780,-869.25 780,-848.25 726,-848.25"/>
<text xml:space="preserve" text-anchor="start" x="735" y="-853.95" font-family="Helvetica,sans-Serif" font-weight="bold" font-size="14.00">Value</text>
<polygon fill="none" stroke="#1f2933" points="654.75,-827.25 654.75,-848.25 726,-848.25 726,-827.25 654.75,-827.25"/>
<text xml:space="preserve" text-anchor="start" x="681" y="-831.95" font-family="Helvetica,sans-Serif" font-size="14.00">iter</text>
<polygon fill="none" stroke="#1f2933" points="726,-827.25 726,-848.25 780,-848.25 780,-827.25 726,-827.25"/>
<text xml:space="preserve" text-anchor="start" x="749.62" y="-832.73" font-family="Helvetica,sans-Serif" font-size="12.00" fill="#0f172a">3</text>
<polygon fill="none" stroke="#1f2933" points="654.75,-806.25 654.75,-827.25 726,-827.25 726,-806.25 654.75,-806.25"/>
<text xml:space="preserve" text-anchor="start" x="669.38" y="-810.95" font-family="Helvetica,sans-Serif" font-size="14.00">frontier</text>
<polygon fill="none" stroke="#1f2933" points="726,-806.25 726,-827.25 780,-827.25 780,-806.25 726,-806.25"/>
<text xml:space="preserve" text-anchor="start" x="729" y="-811.73" font-family="Helvetica,sans-Serif" font-size="12.00" fill="#475569">list len=2</text>
<polygon fill="none" stroke="#1f2933" points="654.75,-785.25 654.75,-806.25 726,-806.25 726,-785.25 654.75,-785.25"/>
<text xml:space="preserve" text-anchor="start" x="671.25" y="-789.95" font-family="Helvetica,sans-Serif" font-size="14.00">visited</text>
<polygon fill="none" stroke="#1f2933" points="726,-785.25 726,-806.25 780,-806.25 780,-785.25 726,-785.25"/>
<text xml:space="preserve" text-anchor="start" x="729" y="-790.73" font-family="Helvetica,sans-Serif" font-size="12.00" fill="#475569">list len=3</text>
<polygon fill="none" stroke="#1f2933" points="654.75,-764.25 654.75,-785.25 726,-785.25 726,-764.25 654.75,-764.25"/>
<text xml:space="preserve" text-anchor="start" x="657.75" y="-768.95" font-family="Helvetica,sans-Serif" font-size="14.00">relaxations</text>
<polygon fill="none" stroke="#1f2933" points="726,-764.25 726,-785.25 780,-785.25 780,-764.25 726,-764.25"/>
<text xml:space="preserve" text-anchor="start" x="729" y="-769.73" font-family="Helvetica,sans-Serif" font-size="12.00" fill="#475569">list len=1</text>
<polygon fill="none" stroke="#1f2933" points="653.75,-763.25 653.75,-870.25 781,-870.25 781,-763.25 653.75,-763.25"/>
<polygon fill="#ffffff" stroke="none" points="786,-758.25 786,-875.25 923.25,-875.25 923.25,-758.25 786,-758.25"/>
<polygon fill="none" stroke="#1f2933" points="786,-758.25 786,-875.25 923.25,-875.25 923.25,-758.25 786,-758.25"/>
<polygon fill="#e5e7eb" stroke="none" points="792,-848.25 792,-869.25 863.25,-869.25 863.25,-848.25 792,-848.25"/>
<polygon fill="none" stroke="#1f2933" points="792,-848.25 792,-869.25 863.25,-869.25 863.25,-848.25 792,-848.25"/>
<text xml:space="preserve" text-anchor="start" x="815.25" y="-853.95" font-family="Helvetica,sans-Serif" font-weight="bold" font-size="14.00">Key</text>
<polygon fill="#e5e7eb" stroke="none" points="863.25,-848.25 863.25,-869.25 917.25,-869.25 917.25,-848.25 863.25,-848.25"/>
<polygon fill="none" stroke="#1f2933" points="863.25,-848.25 863.25,-869.25 917.25,-869.25 917.25,-848.25 863.25,-848.25"/>
<text xml:space="preserve" text-anchor="start" x="872.25" y="-853.95" font-family="Helvetica,sans-Serif" font-weight="bold" font-size="14.00">Value</text>
<polygon fill="none" stroke="#1f2933" points="792,-827.25 792,-848.25 863.25,-848.25 863.25,-827.25 792,-827.25"/>
<text xml:space="preserve" text-anchor="start" x="818.25" y="-831.95" font-family="Helvetica,sans-Serif" font-size="14.00">iter</text>
<polygon fill="none" stroke="#1f2933" points="863.25,-827.25 863.25,-848.25 917.25,-848.25 917.25,-827.25 863.25,-827.25"/>
<text xml:space="preserve" text-anchor="start" x="886.88" y="-832.73" font-family="Helvetica,sans-Serif" font-size="12.00" fill="#0f172a">4</text>
<polygon fill="none" stroke="#1f2933" points="792,-806.25 792,-827.25 863.25,-827.25 863.25,-806.25 792,-806.25"/>
<text xml:space="preserve" text-anchor="start" x="806.62" y="-810.95" font-family="Helvetica,sans-Serif" font-size="14.00">frontier</text>
<polygon fill="none" stroke="#1f2933" points="863.25,-806.25 863.25,-827.25 917.25,-827.25 917.25,-806.25 863.25,-806.25"/>
<text xml:space="preserve" text-anchor="start" x="866.25" y="-811.73" font-family="Helvetica,sans-Serif" font-size="12.00" fill="#475569">list len=1</text>
<polygon fill="none" stroke="#1f2933" points="792,-785.25 792,-806.25 863.25,-806.25 863.25,-785.25 792,-785.25"/>
<text xml:space="preserve" text-anchor="start" x="808.5" y="-789.95" font-family="Helvetica,sans-Serif" font-size="14.00">visited</text>
<polygon fill="none" stroke="#1f2933" points="863.25,-785.25 863.25,-806.25 917.25,-806.25 917.25,-785.25 863.25,-785.25"/>
<text xml:space="preserve" text-anchor="start" x="866.25" y="-790.73" font-family="Helvetica,sans-Serif" font-size="12.00" fill="#475569">list len=4</text>
<polygon fill="none" stroke="#1f2933" points="792,-764.25 792,-785.25 863.25,-785.25 863.25,-764.25 792,-764.25"/>
<text xml:space="preserve" text-anchor="start" x="795" y="-768.95" font-family="Helvetica,sans-Serif" font-size="14.00">relaxations</text>
<polygon fill="none" stroke="#1f2933" points="863.25,-764.25 863.25,-785.25 917.25,-785.25 917.25,-764.25 863.25,-764.25"/>
<text xml:space="preserve" text-anchor="start" x="866.25" y="-769.73" font-family="Helvetica,sans-Serif" font-size="12.00" fill="#475569">list len=1</text>
<polygon fill="none" stroke="#1f2933" points="791,-763.25 791,-870.25 918.25,-870.25 918.25,-763.25 791,-763.25"/>
<polygon fill="#ffffff" stroke="none" points="923.25,-758.25 923.25,-875.25 1037.25,-875.25 1037.25,-758.25 923.25,-758.25"/>
<polygon fill="none" stroke="#1f2933" points="923.25,-758.25 923.25,-875.25 1037.25,-875.25 1037.25,-758.25 923.25,-758.25"/>
<polygon fill="#e5e7eb" stroke="none" points="929.25,-848.25 929.25,-869.25 977.25,-869.25 977.25,-848.25 929.25,-848.25"/>
<polygon fill="none" stroke="#1f2933" points="929.25,-848.25 929.25,-869.25 977.25,-869.25 977.25,-848.25 929.25,-848.25"/>
<text xml:space="preserve" text-anchor="start" x="940.88" y="-853.95" font-family="Helvetica,sans-Serif" font-weight="bold" font-size="14.00">Key</text>
<polygon fill="#e5e7eb" stroke="none" points="977.25,-848.25 977.25,-869.25 1031.25,-869.25 1031.25,-848.25 977.25,-848.25"/>
<polygon fill="none" stroke="#1f2933" points="977.25,-848.25 977.25,-869.25 1031.25,-869.25 1031.25,-848.25 977.25,-848.25"/>
<text xml:space="preserve" text-anchor="start" x="986.25" y="-853.95" font-family="Helvetica,sans-Serif" font-weight="bold" font-size="14.00">Value</text>
<polygon fill="none" stroke="#1f2933" points="929.25,-827.25 929.25,-848.25 977.25,-848.25 977.25,-827.25 929.25,-827.25"/>
<text xml:space="preserve" text-anchor="start" x="943.88" y="-831.95" font-family="Helvetica,sans-Serif" font-size="14.00">iter</text>
<polygon fill="none" stroke="#1f2933" points="977.25,-827.25 977.25,-848.25 1031.25,-848.25 1031.25,-827.25 977.25,-827.25"/>
<text xml:space="preserve" text-anchor="start" x="1000.88" y="-832.73" font-family="Helvetica,sans-Serif" font-size="12.00" fill="#0f172a">5</text>
<polygon fill="none" stroke="#1f2933" points="929.25,-806.25 929.25,-827.25 977.25,-827.25 977.25,-806.25 929.25,-806.25"/>
<text xml:space="preserve" text-anchor="start" x="932.25" y="-810.95" font-family="Helvetica,sans-Serif" font-size="14.00">frontier</text>
<polygon fill="none" stroke="#1f2933" points="977.25,-806.25 977.25,-827.25 1031.25,-827.25 1031.25,-806.25 977.25,-806.25"/>
<text xml:space="preserve" text-anchor="start" x="980.25" y="-811.73" font-family="Helvetica,sans-Serif" font-size="12.00" fill="#475569">list len=0</text>
<polygon fill="none" stroke="#1f2933" points="929.25,-785.25 929.25,-806.25 977.25,-806.25 977.25,-785.25 929.25,-785.25"/>
<text xml:space="preserve" text-anchor="start" x="934.12" y="-789.95" font-family="Helvetica,sans-Serif" font-size="14.00">visited</text>
<polygon fill="none" stroke="#1f2933" points="977.25,-785.25 977.25,-806.25 1031.25,-806.25 1031.25,-785.25 977.25,-785.25"/>
<text xml:space="preserve" text-anchor="start" x="980.25" y="-790.73" font-family="Helvetica,sans-Serif" font-size="12.00" fill="#475569">list len=5</text>
<polygon fill="none" stroke="#1f2933" points="929.25,-764.25 929.25,-785.25 977.25,-785.25 977.25,-764.25 929.25,-764.25"/>
<text xml:space="preserve" text-anchor="start" x="938.25" y="-768.95" font-family="Helvetica,sans-Serif" font-size="14.00">done</text>
<polygon fill="none" stroke="#1f2933" points="977.25,-764.25 977.25,-785.25 1031.25,-785.25 1031.25,-764.25 977.25,-764.25"/>
<text xml:space="preserve" text-anchor="start" x="992.25" y="-769.73" font-family="Helvetica,sans-Serif" font-size="12.00" fill="#0f172a">True</text>
<polygon fill="none" stroke="#1f2933" points="928.25,-763.25 928.25,-870.25 1032.25,-870.25 1032.25,-763.25 928.25,-763.25"/>
<polygon fill="none" stroke="#1f2933" points="259.25,-757.25 259.25,-876.25 1038.25,-876.25 1038.25,-757.25 259.25,-757.25"/>
<text xml:space="preserve" text-anchor="start" x="322.46" y="-735.85" font-family="Helvetica,sans-Serif" font-size="12.00" fill="#dc2626">0</text>
<text xml:space="preserve" text-anchor="start" x="451.62" y="-735.85" font-family="Helvetica,sans-Serif" font-size="12.00" fill="#dc2626">1</text>
<text xml:space="preserve" text-anchor="start" x="580.79" y="-735.85" font-family="Helvetica,sans-Serif" font-size="12.00" fill="#dc2626">2</text>
<text xml:space="preserve" text-anchor="start" x="709.96" y="-735.85" font-family="Helvetica,sans-Serif" font-size="12.00" fill="#dc2626">3</text>
<text xml:space="preserve" text-anchor="start" x="839.13" y="-735.85" font-family="Helvetica,sans-Serif" font-size="12.00" fill="#dc2626">4</text>
<text xml:space="preserve" text-anchor="start" x="968.29" y="-735.85" font-family="Helvetica,sans-Serif" font-size="12.00" fill="#dc2626">5</text>
<polygon fill="none" stroke="#1f2933" points="152.75,-305 152.75,-719.5 250.25,-719.5 250.25,-305 152.75,-305"/>
<text xml:space="preserve" text-anchor="start" x="174.5" y="-506.45" font-family="Helvetica,sans-Serif" font-size="14.00">best_dist</text>
<polygon fill="none" stroke="#1f2933" points="250.25,-305 250.25,-719.5 1047.25,-719.5 1047.25,-305 250.25,-305"/>
<text xml:space="preserve" text-anchor="start" x="558.38" y="-698.3" font-family="Helvetica,sans-Serif" font-weight="bold" font-size="16.00">shortest_path.best_dist</text>
<polygon fill="#e5e7eb" stroke="none" points="258.25,-668 258.25,-689 623,-689 623,-668 258.25,-668"/>
<polygon fill="none" stroke="#1f2933" points="258.25,-668 258.25,-689 623,-689 623,-668 258.25,-668"/>
<text xml:space="preserve" text-anchor="start" x="428.25" y="-673.7" font-family="Helvetica,sans-Serif" font-weight="bold" font-size="14.00">Key</text>
<polygon fill="#e5e7eb" stroke="none" points="623,-668 623,-689 1039.25,-689 1039.25,-668 623,-668"/>
<polygon fill="none" stroke="#1f2933" points="623,-668 623,-689 1039.25,-689 1039.25,-668 623,-668"/>
<text xml:space="preserve" text-anchor="start" x="813.12" y="-673.7" font-family="Helvetica,sans-Serif" font-weight="bold" font-size="14.00">Value</text>
<polygon fill="none" stroke="#1f2933" points="258.25,-597 258.25,-668 623,-668 623,-597 258.25,-597"/>
<text xml:space="preserve" text-anchor="start" x="436.12" y="-626.7" font-family="Helvetica,sans-Serif" font-size="14.00">A</text>
<polygon fill="none" stroke="#1f2933" points="623,-597 623,-668 1039.25,-668 1039.25,-597 623,-597"/>
<polygon fill="#e5e7eb" stroke="none" points="627,-643 627,-664 826.25,-664 826.25,-643 627,-643"/>
<polygon fill="none" stroke="#1f2933" points="627,-643 627,-664 826.25,-664 826.25,-643 627,-643"/>
<text xml:space="preserve" text-anchor="start" x="714.25" y="-648.7" font-family="Helvetica,sans-Serif" font-weight="bold" font-size="14.00">Key</text>
<polygon fill="#e5e7eb" stroke="none" points="826.25,-643 826.25,-664 1035.25,-664 1035.25,-643 826.25,-643"/>
<polygon fill="none" stroke="#1f2933" points="826.25,-643 826.25,-664 1035.25,-664 1035.25,-643 826.25,-643"/>
<text xml:space="preserve" text-anchor="start" x="912.75" y="-648.7" font-family="Helvetica,sans-Serif" font-weight="bold" font-size="14.00">Value</text>
<polygon fill="none" stroke="#1f2933" points="627,-622 627,-643 826.25,-643 826.25,-622 627,-622"/>
<text xml:space="preserve" text-anchor="start" x="716.12" y="-626.7" font-family="Helvetica,sans-Serif" font-size="14.00">dist</text>
<polygon fill="none" stroke="#1f2933" points="826.25,-622 826.25,-643 1035.25,-643 1035.25,-622 826.25,-622"/>
<text xml:space="preserve" text-anchor="start" x="927.38" y="-627.48" font-family="Helvetica,sans-Serif" font-size="12.00" fill="#0f172a">0</text>
<polygon fill="none" stroke="#1f2933" points="627,-601 627,-622 826.25,-622 826.25,-601 627,-601"/>
<text xml:space="preserve" text-anchor="start" x="713.5" y="-605.7" font-family="Helvetica,sans-Serif" font-size="14.00">prev</text>
<polygon fill="none" stroke="#1f2933" points="826.25,-601 826.25,-622 1035.25,-622 1035.25,-601 826.25,-601"/>
<text xml:space="preserve" text-anchor="start" x="916.12" y="-606.48" font-family="Helvetica,sans-Serif" font-size="12.00" fill="#0f172a">None</text>
<polygon fill="none" stroke="#1f2933" points="626,-600 626,-665 1036.25,-665 1036.25,-600 626,-600"/>
<polygon fill="none" stroke="#1f2933" points="258.25,-526 258.25,-597 623,-597 623,-526 258.25,-526"/>
<text xml:space="preserve" text-anchor="start" x="436.12" y="-555.7" font-family="Helvetica,sans-Serif" font-size="14.00">B</text>
<polygon fill="none" stroke="#1f2933" points="623,-526 623,-597 1039.25,-597 1039.25,-526 623,-526"/>
<polygon fill="#e5e7eb" stroke="none" points="627,-572 627,-593 826.25,-593 826.25,-572 627,-572"/>
<polygon fill="none" stroke="#1f2933" points="627,-572 627,-593 826.25,-593 826.25,-572 627,-572"/>
<text xml:space="preserve" text-anchor="start" x="714.25" y="-577.7" font-family="Helvetica,sans-Serif" font-weight="bold" font-size="14.00">Key</text>
<polygon fill="#e5e7eb" stroke="none" points="826.25,-572 826.25,-593 1035.25,-593 1035.25,-572 826.25,-572"/>
<polygon fill="none" stroke="#1f2933" points="826.25,-572 826.25,-593 1035.25,-593 1035.25,-572 826.25,-572"/>
<text xml:space="preserve" text-anchor="start" x="912.75" y="-577.7" font-family="Helvetica,sans-Serif" font-weight="bold" font-size="14.00">Value</text>
<polygon fill="none" stroke="#1f2933" points="627,-551 627,-572 826.25,-572 826.25,-551 627,-551"/>
<text xml:space="preserve" text-anchor="start" x="716.12" y="-555.7" font-family="Helvetica,sans-Serif" font-size="14.00">dist</text>
<polygon fill="none" stroke="#1f2933" points="826.25,-551 826.25,-572 1035.25,-572 1035.25,-551 826.25,-551"/>
<text xml:space="preserve" text-anchor="start" x="927.38" y="-556.48" font-family="Helvetica,sans-Serif" font-size="12.00" fill="#0f172a">2</text>
<polygon fill="none" stroke="#1f2933" points="627,-530 627,-551 826.25,-551 826.25,-530 627,-530"/>
<text xml:space="preserve" text-anchor="start" x="713.5" y="-534.7" font-family="Helvetica,sans-Serif" font-size="14.00">prev</text>
<polygon fill="none" stroke="#1f2933" points="826.25,-530 826.25,-551 1035.25,-551 1035.25,-530 826.25,-530"/>
<text xml:space="preserve" text-anchor="start" x="926.62" y="-535.48" font-family="Helvetica,sans-Serif" font-size="12.00" fill="#0f172a">A</text>
<polygon fill="none" stroke="#1f2933" points="626,-529 626,-594 1036.25,-594 1036.25,-529 626,-529"/>
<polygon fill="none" stroke="#1f2933" points="258.25,-455 258.25,-526 623,-526 623,-455 258.25,-455"/>
<text xml:space="preserve" text-anchor="start" x="435.75" y="-484.7" font-family="Helvetica,sans-Serif" font-size="14.00">C</text>
<polygon fill="none" stroke="#1f2933" points="623,-455 623,-526 1039.25,-526 1039.25,-455 623,-455"/>
<polygon fill="#e5e7eb" stroke="none" points="627,-501 627,-522 826.25,-522 826.25,-501 627,-501"/>
<polygon fill="none" stroke="#1f2933" points="627,-501 627,-522 826.25,-522 826.25,-501 627,-501"/>
<text xml:space="preserve" text-anchor="start" x="714.25" y="-506.7" font-family="Helvetica,sans-Serif" font-weight="bold" font-size="14.00">Key</text>
<polygon fill="#e5e7eb" stroke="none" points="826.25,-501 826.25,-522 1035.25,-522 1035.25,-501 826.25,-501"/>
<polygon fill="none" stroke="#1f2933" points="826.25,-501 826.25,-522 1035.25,-522 1035.25,-501 826.25,-501"/>
<text xml:space="preserve" text-anchor="start" x="912.75" y="-506.7" font-family="Helvetica,sans-Serif" font-weight="bold" font-size="14.00">Value</text>
<polygon fill="none" stroke="#1f2933" points="627,-480 627,-501 826.25,-501 826.25,-480 627,-480"/>
<text xml:space="preserve" text-anchor="start" x="716.12" y="-484.7" font-family="Helvetica,sans-Serif" font-size="14.00">dist</text>
<polygon fill="none" stroke="#1f2933" points="826.25,-480 826.25,-501 1035.25,-501 1035.25,-480 826.25,-480"/>
<text xml:space="preserve" text-anchor="start" x="927.38" y="-485.48" font-family="Helvetica,sans-Serif" font-size="12.00" fill="#0f172a">3</text>
<polygon fill="none" stroke="#1f2933" points="627,-459 627,-480 826.25,-480 826.25,-459 627,-459"/>
<text xml:space="preserve" text-anchor="start" x="713.5" y="-463.7" font-family="Helvetica,sans-Serif" font-size="14.00">prev</text>
<polygon fill="none" stroke="#1f2933" points="826.25,-459 826.25,-480 1035.25,-480 1035.25,-459 826.25,-459"/>
<text xml:space="preserve" text-anchor="start" x="926.62" y="-464.48" font-family="Helvetica,sans-Serif" font-size="12.00" fill="#0f172a">B</text>
<polygon fill="none" stroke="#1f2933" points="626,-458 626,-523 1036.25,-523 1036.25,-458 626,-458"/>
<polygon fill="none" stroke="#1f2933" points="258.25,-384 258.25,-455 623,-455 623,-384 258.25,-384"/>
<text xml:space="preserve" text-anchor="start" x="436.12" y="-413.7" font-family="Helvetica,sans-Serif" font-size="14.00">E</text>
<polygon fill="none" stroke="#1f2933" points="623,-384 623,-455 1039.25,-455 1039.25,-384 623,-384"/>
<polygon fill="#e5e7eb" stroke="none" points="627,-430 627,-451 826.25,-451 826.25,-430 627,-430"/>
<polygon fill="none" stroke="#1f2933" points="627,-430 627,-451 826.25,-451 826.25,-430 627,-430"/>
<text xml:space="preserve" text-anchor="start" x="714.25" y="-435.7" font-family="Helvetica,sans-Serif" font-weight="bold" font-size="14.00">Key</text>
<polygon fill="#e5e7eb" stroke="none" points="826.25,-430 826.25,-451 1035.25,-451 1035.25,-430 826.25,-430"/>
<polygon fill="none" stroke="#1f2933" points="826.25,-430 826.25,-451 1035.25,-451 1035.25,-430 826.25,-430"/>
<text xml:space="preserve" text-anchor="start" x="912.75" y="-435.7" font-family="Helvetica,sans-Serif" font-weight="bold" font-size="14.00">Value</text>
<polygon fill="none" stroke="#1f2933" points="627,-409 627,-430 826.25,-430 826.25,-409 627,-409"/>
<text xml:space="preserve" text-anchor="start" x="716.12" y="-413.7" font-family="Helvetica,sans-Serif" font-size="14.00">dist</text>
<polygon fill="none" stroke="#1f2933" points="826.25,-409 826.25,-430 1035.25,-430 1035.25,-409 826.25,-409"/>
<text xml:space="preserve" text-anchor="start" x="927.38" y="-414.48" font-family="Helvetica,sans-Serif" font-size="12.00" fill="#0f172a">4</text>
<polygon fill="none" stroke="#1f2933" points="627,-388 627,-409 826.25,-409 826.25,-388 627,-388"/>
<text xml:space="preserve" text-anchor="start" x="713.5" y="-392.7" font-family="Helvetica,sans-Serif" font-size="14.00">prev</text>
<polygon fill="none" stroke="#1f2933" points="826.25,-388 826.25,-409 1035.25,-409 1035.25,-388 826.25,-388"/>
<text xml:space="preserve" text-anchor="start" x="926.62" y="-393.48" font-family="Helvetica,sans-Serif" font-size="12.00" fill="#0f172a">B</text>
<polygon fill="none" stroke="#1f2933" points="626,-387 626,-452 1036.25,-452 1036.25,-387 626,-387"/>
<polygon fill="none" stroke="#1f2933" points="258.25,-313 258.25,-384 623,-384 623,-313 258.25,-313"/>
<text xml:space="preserve" text-anchor="start" x="435.75" y="-342.7" font-family="Helvetica,sans-Serif" font-size="14.00">D</text>
<polygon fill="none" stroke="#1f2933" points="623,-313 623,-384 1039.25,-384 1039.25,-313 623,-313"/>
<polygon fill="#e5e7eb" stroke="none" points="627,-359 627,-380 826.25,-380 826.25,-359 627,-359"/>
<polygon fill="none" stroke="#1f2933" points="627,-359 627,-380 826.25,-380 826.25,-359 627,-359"/>
<text xml:space="preserve" text-anchor="start" x="714.25" y="-364.7" font-family="Helvetica,sans-Serif" font-weight="bold" font-size="14.00">Key</text>
<polygon fill="#e5e7eb" stroke="none" points="826.25,-359 826.25,-380 1035.25,-380 1035.25,-359 826.25,-359"/>
<polygon fill="none" stroke="#1f2933" points="826.25,-359 826.25,-380 1035.25,-380 1035.25,-359 826.25,-359"/>
<text xml:space="preserve" text-anchor="start" x="912.75" y="-364.7" font-family="Helvetica,sans-Serif" font-weight="bold" font-size="14.00">Value</text>
<polygon fill="none" stroke="#1f2933" points="627,-338 627,-359 826.25,-359 826.25,-338 627,-338"/>
<text xml:space="preserve" text-anchor="start" x="716.12" y="-342.7" font-family="Helvetica,sans-Serif" font-size="14.00">dist</text>
<polygon fill="none" stroke="#1f2933" points="826.25,-338 826.25,-359 1035.25,-359 1035.25,-338 826.25,-338"/>
<text xml:space="preserve" text-anchor="start" x="927.38" y="-343.48" font-family="Helvetica,sans-Serif" font-size="12.00" fill="#0f172a">6</text>
<polygon fill="none" stroke="#1f2933" points="627,-317 627,-338 826.25,-338 826.25,-317 627,-317"/>
<text xml:space="preserve" text-anchor="start" x="713.5" y="-321.7" font-family="Helvetica,sans-Serif" font-size="14.00">prev</text>
<polygon fill="none" stroke="#1f2933" points="826.25,-317 826.25,-338 1035.25,-338 1035.25,-317 826.25,-317"/>
<text xml:space="preserve" text-anchor="start" x="926.25" y="-322.48" font-family="Helvetica,sans-Serif" font-size="12.00" fill="#0f172a">C</text>
<polygon fill="none" stroke="#1f2933" points="626,-316 626,-381 1036.25,-381 1036.25,-316 626,-316"/>
<polygon fill="none" stroke="#1f2933" points="257.25,-312 257.25,-690 1040.25,-690 1040.25,-312 257.25,-312"/>
<polygon fill="none" stroke="#1f2933" points="152.75,-5 152.75,-305 250.25,-305 250.25,-5 152.75,-5"/>
<text xml:space="preserve" text-anchor="start" x="173" y="-149.2" font-family="Helvetica,sans-Serif" font-size="14.00">path_tree</text>
<polygon fill="none" stroke="#1f2933" points="250.25,-5 250.25,-305 1047.25,-305 1047.25,-5 250.25,-5"/>
<image xlink:href="/private/var/folders/dr/2mrswy0n63n8sjck6nt3z9lh0000gn/T/edcraft_viz_images/inline_268e17b25c0d4388962fa6ccbd127435.png" width="166.076px" height="294px" preserveAspectRatio="xMinYMin meet" x="565.712" y="-302"/>
<polygon fill="none" stroke="#1f2933" points="151.75,-4 151.75,-1220.75 1048.25,-1220.75 1048.25,-4 151.75,-4"/>
</g>
<!-- anchor_shortest_path -->
<g id="node2" class="node">
<title>anchor_shortest_path</title>
<path fill="#ffffff" stroke="none" d="M85.75,-641.62C85.75,-641.62 12,-641.62 12,-641.62 6,-641.62 0,-635.62 0,-629.62 0,-629.62 0,-617.62 0,-617.62 0,-611.62 6,-605.62 12,-605.62 12,-605.62 85.75,-605.62 85.75,-605.62 91.75,-605.62 97.75,-611.62 97.75,-617.62 97.75,-617.62 97.75,-629.62 97.75,-629.62 97.75,-635.62 91.75,-641.62 85.75,-641.62"/>
<text xml:space="preserve" text-anchor="middle" x="48.88" y="-617.83" font-family="Helvetica,sans-Serif" font-size="14.00" fill="#6b7280">shortest_path</text>
</g>
<!-- anchor_shortest_path&#45;&gt;table_1 -->
<g id="edge1" class="edge">
<title>anchor_shortest_path&#45;&gt;table_1</title>
<path fill="none" stroke="#9ca3af" stroke-dasharray="5,2" d="M97.65,-623.62C109.03,-623.62 122.11,-623.62 136.53,-623.62"/>
<polygon fill="#9ca3af" stroke="#9ca3af" points="136.29,-627.13 146.29,-623.63 136.29,-620.13 136.29,-627.13"/>
</g>
</g>
</svg>
