<?xml version="1.0" encoding="UTF-8" standalone="no"?>
<!DOCTYPE svg PUBLIC "-//W3C//DTD SVG 1.1//EN"
 "http://www.w3.org/Graphics/SVG/1.1/DTD/svg11.dtd">
<!-- Generated by graphviz version 13.1.2 (0)
 -->
<!-- Title: G Pages: 1 -->
<svg width="463pt" height="455pt"
 viewBox="0.00 0.00 463.00 455.00" xmlns="http://www.w3.org/2000/svg" xmlns:xlink="http://www.w3.org/1999/xlink">
<g id="graph0" class="graph" transform="scale(1 1) rotate(0) translate(4 450.75)">
<title>G</title>
<polygon fill="white" stroke="none" points="-4,4 -4,-450.75 459.25,-450.75 459.25,4 -4,4"/>
<!-- tree_1__ROOT -->
<g id="node1" class="node">
<title>tree_1__ROOT</title>
<path fill="#ffffff" stroke="#1f2933" d="M256.75,-360.75C256.75,-360.75 199.5,-360.75 199.5,-360.75 193.5,-360.75 187.5,-354.75 187.5,-348.75 187.5,-348.75 187.5,-336.75 187.5,-336.75 187.5,-330.75 193.5,-324.75 199.5,-324.75 199.5,-324.75 256.75,-324.75 256.75,-324.75 262.75,-324.75 268.75,-330.75 268.75,-336.75 268.75,-336.75 268.75,-348.75 268.75,-348.75 268.75,-354.75 262.75,-360.75 256.75,-360.75"/>
<text xml:space="preserve" text-anchor="middle" x="228.12" y="-336.95" font-family="Helvetica,sans-Serif" font-size="14.00">tic_tac_toe</text>
</g>
<!-- tree_1__t1 -->
<g id="node2" class="node">
<title>tree_1__t1</title>
<path fill="#ffffff" stroke="none" d="M232.96,-274.75C232.96,-274.75 223.29,-274.75 223.29,-274.75 218.46,-274.75 213.62,-269.92 213.62,-265.08 213.62,-265.08 213.62,-226.17 213.62,-226.17 213.62,-221.33 218.46,-216.5 223.29,-216.5 223.29,-216.5 232.96,-216.5 232.96,-216.5 237.79,-216.5 242.62,-221.33 242.62,-226.17 242.62,-226.17 242.62,-265.08 242.62,-265.08 242.62,-269.92 237.79,-274.75 232.96,-274.75"/>
<polygon fill="none" stroke="#1f2933" points="214.62,-255 214.62,-273.75 223.62,-273.75 223.62,-255 214.62,-255"/>
<text xml:space="preserve" text-anchor="start" x="217.62" y="-259.35" font-family="Helvetica,sans-Serif" font-size="12.00" fill="#0f172a"> </text>
<polygon fill="none" stroke="#1f2933" points="223.62,-255 223.62,-273.75 232.62,-273.75 232.62,-255 223.62,-255"/>
<text xml:space="preserve" text-anchor="start" x="226.62" y="-259.35" font-family="Helvetica,sans-Serif" font-size="12.00" fill="#0f172a"> </text>
<polygon fill="none" stroke="#1f2933" points="232.62,-255 232.62,-273.75 241.62,-273.75 241.62,-255 232.62,-255"/>
<text xml:space="preserve" text-anchor="start" x="235.62" y="-259.35" font-family="Helvetica,sans-Serif" font-size="12.00" fill="#0f172a"> </text>
<polygon fill="none" stroke="#1f2933" points="214.62,-236.25 214.62,-255 223.62,-255 223.62,-236.25 214.62,-236.25"/>
<text xml:space="preserve" text-anchor="start" x="217.62" y="-240.6" font-family="Helvetica,sans-Serif" font-size="12.00" fill="#0f172a"> </text>
<polygon fill="none" stroke="#1f2933" points="223.62,-236.25 223.62,-255 232.62,-255 232.62,-236.25 223.62,-236.25"/>
<text xml:space="preserve" text-anchor="start" x="226.62" y="-240.6" font-family="Helvetica,sans-Serif" font-size="12.00" fill="#0f172a"> </text>
<polygon fill="none" stroke="#1f2933" points="232.62,-236.25 232.62,-255 241.62,-255 241.62,-236.25 232.62,-236.25"/>
<text xml:space="preserve" text-anchor="start" x="235.62" y="-240.6" font-family="Helvetica,sans-Serif" font-size="12.00" fill="#0f172a"> </text>
<polygon fill="none" stroke="#1f2933" points="214.62,-217.5 214.62,-236.25 223.62,-236.25 223.62,-217.5 214.62,-217.5"/>
<text xml:space="preserve" text-anchor="start" x="217.62" y="-221.85" font-family="Helvetica,sans-Serif" font-size="12.00" fill="#0f172a"> </text>
<polygon fill="none" stroke="#1f2933" points="223.62,-217.5 223.62,-236.25 232.62,-236.25 232.62,-217.5 223.62,-217.5"/>
<text xml:space="preserve" text-anchor="start" x="226.62" y="-221.85" font-family="Helvetica,sans-Serif" font-size="12.00" fill="#0f172a"> </text>
<polygon fill="none" stroke="#1f2933" points="232.62,-217.5 232.62,-236.25 241.62,-236.25 241.62,-217.5 232.62,-217.5"/>
<text xml:space="preserve" text-anchor="start" x="235.62" y="-221.85" font-family="Helvetica,sans-Serif" font-size="12.00" fill="#0f172a"> </text>
<polygon fill="none" stroke="#1f2933" points="213.62,-216.5 213.62,-274.75 242.62,-274.75 242.62,-216.5 213.62,-216.5"/>
</g>
<!-- tree_1__ROOT&#45;&gt;tree_1__t1 -->
<g id="edge1" class="edge">
<title>tree_1__ROOT&#45;&gt;tree_1__t1</title>
<path fill="none" stroke="#4b5563" d="M228.12,-324.3C228.12,-313.52 228.12,-299.22 228.12,-285.84"/>
<polygon fill="#4b5563" stroke="#4b5563" points="231.63,-285.93 228.13,-275.93 224.63,-285.93 231.63,-285.93"/>
</g>
<!-- tree_1__t2 -->
<g id="node4" class="node">
<title>tree_1__t2</title>
<path fill="#ffffff" stroke="none" d="M108.83,-166.5C108.83,-166.5 97.42,-166.5 97.42,-166.5 91.71,-166.5 86,-160.79 86,-155.08 86,-155.08 86,-119.67 86,-119.67 86,-113.96 91.71,-108.25 97.42,-108.25 97.42,-108.25 108.83,-108.25 108.83,-108.25 114.54,-108.25 120.25,-113.96 120.25,-119.67 120.25,-119.67 120.25,-155.08 120.25,-155.08 120.25,-160.79 114.54,-166.5 108.83,-166.5"/>
<polygon fill="none" stroke="#1f2933" points="87,-146.75 87,-165.5 101.25,-165.5 101.25,-146.75 87,-146.75"/>
<text xml:space="preserve" text-anchor="start" x="90" y="-151.1" font-family="Helvetica,sans-Serif" font-size="12.00" fill="#0f172a">X</text>
<polygon fill="none" stroke="#1f2933" points="101.25,-146.75 101.25,-165.5 110.25,-165.5 110.25,-146.75 101.25,-146.75"/>
<text xml:space="preserve" text-anchor="start" x="104.25" y="-151.1" font-family="Helvetica,sans-Serif" font-size="12.00" fill="#0f172a"> </text>
<polygon fill="none" stroke="#1f2933" points="110.25,-146.75 110.25,-165.5 119.25,-165.5 119.25,-146.75 110.25,-146.75"/>
<text xml:space="preserve" text-anchor="start" x="113.25" y="-151.1" font-family="Helvetica,sans-Serif" font-size="12.00" fill="#0f172a"> </text>
<polygon fill="none" stroke="#1f2933" points="87,-128 87,-146.75 101.25,-146.75 101.25,-128 87,-128"/>
<text xml:space="preserve" text-anchor="start" x="92.62" y="-132.35" font-family="Helvetica,sans-Serif" font-size="12.00" fill="#0f172a"> </text>
<polygon fill="none" stroke="#1f2933" points="101.25,-128 101.25,-146.75 110.25,-146.75 110.25,-128 101.25,-128"/>
<text xml:space="preserve" text-anchor="start" x="104.25" y="-132.35" font-family="Helvetica,sans-Serif" font-size="12.00" fill="#0f172a"> </text>
<polygon fill="none" stroke="#1f2933" points="110.25,-128 110.25,-146.75 119.25,-146.75 119.25,-128 110.25,-128"/>
<text xml:space="preserve" text-anchor="start" x="113.25" y="-132.35" font-family="Helvetica,sans-Serif" font-size="12.00" fill="#0f172a"> </text>
<polygon fill="none" stroke="#1f2933" points="87,-109.25 87,-128 101.25,-128 101.25,-109.25 87,-109.25"/>
<text xml:space="preserve" text-anchor="start" x="92.62" y="-113.6" font-family="Helvetica,sans-Serif" font-size="12.00" fill="#0f172a"> </text>
<polygon fill="none" stroke="#1f2933" points="101.25,-109.25 101.25,-128 110.25,-128 110.25,-109.25 101.25,-109.25"/>
<text xml:space="preserve" text-anchor="start" x="104.25" y="-113.6" font-family="Helvetica,sans-Serif" font-size="12.00" fill="#0f172a"> </text>
<polygon fill="none" stroke="#1f2933" points="110.25,-109.25 110.25,-128 119.25,-128 119.25,-109.25 110.25,-109.25"/>
<text xml:space="preserve" text-anchor="start" x="113.25" y="-113.6" font-family="Helvetica,sans-Serif" font-size="12.00" fill="#0f172a"> </text>
<polygon fill="none" stroke="#1f2933" points="86,-108.25 86,-166.5 120.25,-166.5 120.25,-108.25 86,-108.25"/>
</g>
<!-- tree_1__t1&#45;&gt;tree_1__t2 -->
<g id="edge2" class="edge">
<title>tree_1__t1&#45;&gt;tree_1__t2</title>
<path fill="none" stroke="#4b5563" d="M213.79,-232.44C193.02,-214.79 154.26,-181.84 128.57,-160"/>
<polygon fill="#4b5563" stroke="#4b5563" points="131.12,-157.57 121.23,-153.76 126.58,-162.91 131.12,-157.57"/>
</g>
<!-- tree_1__t3 -->
<g id="node5" class="node">
<title>tree_1__t3</title>
<path fill="#ffffff" stroke="none" d="M233.83,-166.5C233.83,-166.5 222.42,-166.5 222.42,-166.5 216.71,-166.5 211,-160.79 211,-155.08 211,-155.08 211,-119.67 211,-119.67 211,-113.96 216.71,-108.25 222.42,-108.25 222.42,-108.25 233.83,-108.25 233.83,-108.25 239.54,-108.25 245.25,-113.96 245.25,-119.67 245.25,-119.67 245.25,-155.08 245.25,-155.08 245.25,-160.79 239.54,-166.5 233.83,-166.5"/>
<polygon fill="none" stroke="#1f2933" points="212,-146.75 212,-165.5 221,-165.5 221,-146.75 212,-146.75"/>
<text xml:space="preserve" text-anchor="start" x="215" y="-151.1" font-family="Helvetica,sans-Serif" font-size="12.00" fill="#0f172a"> </text>
<polygon fill="none" stroke="#1f2933" points="221,-146.75 221,-165.5 235.25,-165.5 235.25,-146.75 221,-146.75"/>
<text xml:space="preserve" text-anchor="start" x="226.62" y="-151.1" font-family="Helvetica,sans-Serif" font-size="12.00" fill="#0f172a"> </text>
<polygon fill="none" stroke="#1f2933" points="235.25,-146.75 235.25,-165.5 244.25,-165.5 244.25,-146.75 235.25,-146.75"/>
<text xml:space="preserve" text-anchor="start" x="238.25" y="-151.1" font-family="Helvetica,sans-Serif" font-size="12.00" fill="#0f172a"> </text>
<polygon fill="none" stroke="#1f2933" points="212,-128 212,-146.75 221,-146.75 221,-128 212,-128"/>
<text xml:space="preserve" text-anchor="start" x="215" y="-132.35" font-family="Helvetica,sans-Serif" font-size="12.00" fill="#0f172a"> </text>
<polygon fill="none" stroke="#1f2933" points="221,-128 221,-146.75 235.25,-146.75 235.25,-128 221,-128"/>
<text xml:space="preserve" text-anchor="start" x="224" y="-132.35" font-family="Helvetica,sans-Serif" font-size="12.00" fill="#0f172a">X</text>
<polygon fill="none" stroke="#1f2933" points="235.25,-128 235.25,-146.75 244.25,-146.75 244.25,-128 235.25,-128"/>
<text xml:space="preserve" text-anchor="start" x="238.25" y="-132.35" font-family="Helvetica,sans-Serif" font-size="12.00" fill="#0f172a"> </text>
<polygon fill="none" stroke="#1f2933" points="212,-109.25 212,-128 221,-128 221,-109.25 212,-109.25"/>
<text xml:space="preserve" text-anchor="start" x="215" y="-113.6" font-family="Helvetica,sans-Serif" font-size="12.00" fill="#0f172a"> </text>
<polygon fill="none" stroke="#1f2933" points="221,-109.25 221,-128 235.25,-128 235.25,-109.25 221,-109.25"/>
<text xml:space="preserve" text-anchor="start" x="226.62" y="-113.6" font-family="Helvetica,sans-Serif" font-size="12.00" fill="#0f172a"> </text>
<polygon fill="none" stroke="#1f2933" points="235.25,-109.25 235.25,-128 244.25,-128 244.25,-109.25 235.25,-109.25"/>
<text xml:space="preserve" text-anchor="start" x="238.25" y="-113.6" font-family="Helvetica,sans-Serif" font-size="12.00" fill="#0f172a"> </text>
<polygon fill="none" stroke="#1f2933" points="211,-108.25 211,-166.5 245.25,-166.5 245.25,-108.25 211,-108.25"/>
</g>
<!-- tree_1__t1&#45;&gt;tree_1__t3 -->
<g id="edge3" class="edge">
<title>tree_1__t1&#45;&gt;tree_1__t3</title>
<path fill="none" stroke="#4b5563" d="M228.12,-216.71C228.12,-204.85 228.12,-190.8 228.12,-177.9"/>
<polygon fill="#4b5563" stroke="#4b5563" points="231.63,-177.99 228.13,-167.99 224.63,-177.99 231.63,-177.99"/>
</g>
<!-- tree_1__t4 -->
<g id="node6" class="node">
<title>tree_1__t4</title>
<path fill="#ffffff" stroke="none" d="M357.83,-166.5C357.83,-166.5 346.42,-166.5 346.42,-166.5 340.71,-166.5 335,-160.79 335,-155.08 335,-155.08 335,-119.67 335,-119.67 335,-113.96 340.71,-108.25 346.42,-108.25 346.42,-108.25 357.83,-108.25 357.83,-108.25 363.54,-108.25 369.25,-113.96 369.25,-119.67 369.25,-119.67 369.25,-155.08 369.25,-155.08 369.25,-160.79 363.54,-166.5 357.83,-166.5"/>
<polygon fill="none" stroke="#1f2933" points="336,-146.75 336,-165.5 345,-165.5 345,-146.75 336,-146.75"/>
<text xml:space="preserve" text-anchor="start" x="339" y="-151.1" font-family="Helvetica,sans-Serif" font-size="12.00" fill="#0f172a"> </text>
<polygon fill="none" stroke="#1f2933" points="345,-146.75 345,-165.5 354,-165.5 354,-146.75 345,-146.75"/>
<text xml:space="preserve" text-anchor="start" x="348" y="-151.1" font-family="Helvetica,sans-Serif" font-size="12.00" fill="#0f172a"> </text>
<polygon fill="none" stroke="#1f2933" points="354,-146.75 354,-165.5 368.25,-165.5 368.25,-146.75 354,-146.75"/>
<text xml:space="preserve" text-anchor="start" x="359.62" y="-151.1" font-family="Helvetica,sans-Serif" font-size="12.00" fill="#0f172a"> </text>
<polygon fill="none" stroke="#1f2933" points="336,-128 336,-146.75 345,-146.75 345,-128 336,-128"/>
<text xml:space="preserve" text-anchor="start" x="339" y="-132.35" font-family="Helvetica,sans-Serif" font-size="12.00" fill="#0f172a"> </text>
<polygon fill="none" stroke="#1f2933" points="345,-128 345,-146.75 354,-146.75 354,-128 345,-128"/>
<text xml:space="preserve" text-anchor="start" x="348" y="-132.35" font-family="Helvetica,sans-Serif" font-size="12.00" fill="#0f172a"> </text>
<polygon fill="none" stroke="#1f2933" points="354,-128 354,-146.75 368.25,-146.75 368.25,-128 354,-128"/>
<text xml:space="preserve" text-anchor="start" x="359.62" y="-132.35" font-family="Helvetica,sans-Serif" font-size="12.00" fill="#0f172a"> </text>
<polygon fill="none" stroke="#1f2933" points="336,-109.25 336,-128 345,-128 345,-109.25 336,-109.25"/>
<text xml:space="preserve" text-anchor="start" x="339" y="-113.6" font-family="Helvetica,sans-Serif" font-size="12.00" fill="#0f172a"> </text>
<polygon fill="none" stroke="#1f2933" points="345,-109.25 345,-128 354,-128 354,-109.25 345,-109.25"/>
<text xml:space="preserve" text-anchor="start" x="348" y="-113.6" font-family="Helvetica,sans-Serif" font-size="12.00" fill="#0f172a"> </text>
<polygon fill="none" stroke="#1f2933" points="354,-109.25 354,-128 368.25,-128 368.25,-109.25 354,-109.25"/>
<text xml:space="preserve" text-anchor="start" x="357" y="-113.6" font-family="Helvetica,sans-Serif" font-size="12.00" fill="#0f172a">X</text>
<polygon fill="none" stroke="#1f2933" points="335,-108.25 335,-166.5 369.25,-166.5 369.25,-108.25 335,-108.25"/>
</g>
<!-- tree_1__t1&#45;&gt;tree_1__t4 -->
<g id="edge4" class="edge">
<title>tree_1__t1&#45;&gt;tree_1__t4</title>
<path fill="none" stroke="#4b5563" d="M242.35,-232.44C262.95,-214.79 301.4,-181.84 326.89,-160"/>
<polygon fill="#4b5563" stroke="#4b5563" points="328.84,-162.93 334.16,-153.77 324.29,-157.62 328.84,-162.93"/>
</g>
<!-- tree_1__t10 -->
<g id="node3" class="node">
<title>tree_1__t10</title>
<path fill="#ffffff" stroke="none" d="M28.25,-58.25C28.25,-58.25 12,-58.25 12,-58.25 6,-58.25 0,-52.25 0,-46.25 0,-46.25 0,-12 0,-12 0,-6 6,0 12,0 12,0 28.25,0 28.25,0 34.25,0 40.25,-6 40.25,-12 40.25,-12 40.25,-46.25 40.25,-46.25 40.25,-52.25 34.25,-58.25 28.25,-58.25"/>
<polygon fill="none" stroke="#1f2933" points="1,-38.5 1,-57.25 15.25,-57.25 15.25,-38.5 1,-38.5"/>
<text xml:space="preserve" text-anchor="start" x="4" y="-42.85" font-family="Helvetica,sans-Serif" font-size="12.00" fill="#0f172a">X</text>
<polygon fill="none" stroke="#1f2933" points="15.25,-38.5 15.25,-57.25 24.25,-57.25 24.25,-38.5 15.25,-38.5"/>
<text xml:space="preserve" text-anchor="start" x="18.25" y="-42.85" font-family="Helvetica,sans-Serif" font-size="12.00" fill="#0f172a"> </text>
<polygon fill="none" stroke="#1f2933" points="24.25,-38.5 24.25,-57.25 39.25,-57.25 39.25,-38.5 24.25,-38.5"/>
<text xml:space="preserve" text-anchor="start" x="27.25" y="-42.85" font-family="Helvetica,sans-Serif" font-size="12.00" fill="#0f172a">O</text>
<polygon fill="none" stroke="#1f2933" points="1,-19.75 1,-38.5 15.25,-38.5 15.25,-19.75 1,-19.75"/>
<text xml:space="preserve" text-anchor="start" x="6.62" y="-24.1" font-family="Helvetica,sans-Serif" font-size="12.00" fill="#0f172a"> </text>
<polygon fill="none" stroke="#1f2933" points="15.25,-19.75 15.25,-38.5 24.25,-38.5 24.25,-19.75 15.25,-19.75"/>
<text xml:space="preserve" text-anchor="start" x="18.25" y="-24.1" font-family="Helvetica,sans-Serif" font-size="12.00" fill="#0f172a"> </text>
<polygon fill="none" stroke="#1f2933" points="24.25,-19.75 24.25,-38.5 39.25,-38.5 39.25,-19.75 24.25,-19.75"/>
<text xml:space="preserve" text-anchor="start" x="30.25" y="-24.1" font-family="Helvetica,sans-Serif" font-size="12.00" fill="#0f172a"> </text>
<polygon fill="none" stroke="#1f2933" points="1,-1 1,-19.75 15.25,-19.75 15.25,-1 1,-1"/>
<text xml:space="preserve" text-anchor="start" x="6.62" y="-5.35" font-family="Helvetica,sans-Serif" font-size="12.00" fill="#0f172a"> </text>
<polygon fill="none" stroke="#1f2933" points="15.25,-1 15.25,-19.75 24.25,-19.75 24.25,-1 15.25,-1"/>
<text xml:space="preserve" text-anchor="start" x="18.25" y="-5.35" font-family="Helvetica,sans-Serif" font-size="12.00" fill="#0f172a"> </text>
<polygon fill="none" stroke="#1f2933" points="24.25,-1 24.25,-19.75 39.25,-19.75 39.25,-1 24.25,-1"/>
<text xml:space="preserve" text-anchor="start" x="30.25" y="-5.35" font-family="Helvetica,sans-Serif" font-size="12.00" fill="#0f172a"> </text>
<polygon fill="none" stroke="#1f2933" points="0,0 0,-58.25 40.25,-58.25 40.25,0 0,0"/>
</g>
<!-- tree_1__t2&#45;&gt;tree_1__t10 -->
<g id="edge10" class="edge">
<title>tree_1__t2&#45;&gt;tree_1__t10</title>
<path fill="none" stroke="#4b5563" d="M86.13,-114.62C74.84,-100.17 59.79,-80.9 46.91,-64.42"/>
<polygon fill="#4b5563" stroke="#4b5563" points="49.87,-62.51 40.95,-56.79 44.35,-66.82 49.87,-62.51"/>
</g>
<!-- tree_1__t9 -->
<g id="node11" class="node">
<title>tree_1__t9</title>
<path fill="#ffffff" stroke="none" d="M111.25,-58.25C111.25,-58.25 95,-58.25 95,-58.25 89,-58.25 83,-52.25 83,-46.25 83,-46.25 83,-12 83,-12 83,-6 89,0 95,0 95,0 111.25,0 111.25,0 117.25,0 123.25,-6 123.25,-12 123.25,-12 123.25,-46.25 123.25,-46.25 123.25,-52.25 117.25,-58.25 111.25,-58.25"/>
<polygon fill="none" stroke="#1f2933" points="84,-38.5 84,-57.25 98.25,-57.25 98.25,-38.5 84,-38.5"/>
<text xml:space="preserve" text-anchor="start" x="87" y="-42.85" font-family="Helvetica,sans-Serif" font-size="12.00" fill="#0f172a">X</text>
<polygon fill="none" stroke="#1f2933" points="98.25,-38.5 98.25,-57.25 107.25,-57.25 107.25,-38.5 98.25,-38.5"/>
<text xml:space="preserve" text-anchor="start" x="101.25" y="-42.85" font-family="Helvetica,sans-Serif" font-size="12.00" fill="#0f172a"> </text>
<polygon fill="none" stroke="#1f2933" points="107.25,-38.5 107.25,-57.25 122.25,-57.25 122.25,-38.5 107.25,-38.5"/>
<text xml:space="preserve" text-anchor="start" x="113.25" y="-42.85" font-family="Helvetica,sans-Serif" font-size="12.00" fill="#0f172a"> </text>
<polygon fill="none" stroke="#1f2933" points="84,-19.75 84,-38.5 98.25,-38.5 98.25,-19.75 84,-19.75"/>
<text xml:space="preserve" text-anchor="start" x="89.62" y="-24.1" font-family="Helvetica,sans-Serif" font-size="12.00" fill="#0f172a"> </text>
<polygon fill="none" stroke="#1f2933" points="98.25,-19.75 98.25,-38.5 107.25,-38.5 107.25,-19.75 98.25,-19.75"/>
<text xml:space="preserve" text-anchor="start" x="101.25" y="-24.1" font-family="Helvetica,sans-Serif" font-size="12.00" fill="#0f172a"> </text>
<polygon fill="none" stroke="#1f2933" points="107.25,-19.75 107.25,-38.5 122.25,-38.5 122.25,-19.75 107.25,-19.75"/>
<text xml:space="preserve" text-anchor="start" x="110.25" y="-24.1" font-family="Helvetica,sans-Serif" font-size="12.00" fill="#0f172a">O</text>
<polygon fill="none" stroke="#1f2933" points="84,-1 84,-19.75 98.25,-19.75 98.25,-1 84,-1"/>
<text xml:space="preserve" text-anchor="start" x="89.62" y="-5.35" font-family="Helvetica,sans-Serif" font-size="12.00" fill="#0f172a"> </text>
<polygon fill="none" stroke="#1f2933" points="98.25,-1 98.25,-19.75 107.25,-19.75 107.25,-1 98.25,-1"/>
<text xml:space="preserve" text-anchor="start" x="101.25" y="-5.35" font-family="Helvetica,sans-Serif" font-size="12.00" fill="#0f172a"> </text>
<polygon fill="none" stroke="#1f2933" points="107.25,-1 107.25,-19.75 122.25,-19.75 122.25,-1 107.25,-1"/>
<text xml:space="preserve" text-anchor="start" x="113.25" y="-5.35" font-family="Helvetica,sans-Serif" font-size="12.00" fill="#0f172a"> </text>
<polygon fill="none" stroke="#1f2933" points="83,0 83,-58.25 123.25,-58.25 123.25,0 83,0"/>
</g>
<!-- tree_1__t2&#45;&gt;tree_1__t9 -->
<g id="edge9" class="edge">
<title>tree_1__t2&#45;&gt;tree_1__t9</title>
<path fill="none" stroke="#4b5563" d="M103.12,-108.46C103.12,-96.6 103.12,-82.55 103.12,-69.65"/>
<polygon fill="#4b5563" stroke="#4b5563" points="106.63,-69.74 103.13,-59.74 99.63,-69.74 106.63,-69.74"/>
</g>
<!-- tree_1__t7 -->
<g id="node9" class="node">
<title>tree_1__t7</title>
<path fill="#ffffff" stroke="none" d="M194.25,-58.25C194.25,-58.25 178,-58.25 178,-58.25 172,-58.25 166,-52.25 166,-46.25 166,-46.25 166,-12 166,-12 166,-6 172,0 178,0 178,0 194.25,0 194.25,0 200.25,0 206.25,-6 206.25,-12 206.25,-12 206.25,-46.25 206.25,-46.25 206.25,-52.25 200.25,-58.25 194.25,-58.25"/>
<polygon fill="none" stroke="#1f2933" points="167,-38.5 167,-57.25 176,-57.25 176,-38.5 167,-38.5"/>
<text xml:space="preserve" text-anchor="start" x="170" y="-42.85" font-family="Helvetica,sans-Serif" font-size="12.00" fill="#0f172a"> </text>
<polygon fill="none" stroke="#1f2933" points="176,-38.5 176,-57.25 190.25,-57.25 190.25,-38.5 176,-38.5"/>
<text xml:space="preserve" text-anchor="start" x="181.62" y="-42.85" font-family="Helvetica,sans-Serif" font-size="12.00" fill="#0f172a"> </text>
<polygon fill="none" stroke="#1f2933" points="190.25,-38.5 190.25,-57.25 205.25,-57.25 205.25,-38.5 190.25,-38.5"/>
<text xml:space="preserve" text-anchor="start" x="193.25" y="-42.85" font-family="Helvetica,sans-Serif" font-size="12.00" fill="#0f172a">O</text>
<polygon fill="none" stroke="#1f2933" points="167,-19.75 167,-38.5 176,-38.5 176,-19.75 167,-19.75"/>
<text xml:space="preserve" text-anchor="start" x="170" y="-24.1" font-family="Helvetica,sans-Serif" font-size="12.00" fill="#0f172a"> </text>
<polygon fill="none" stroke="#1f2933" points="176,-19.75 176,-38.5 190.25,-38.5 190.25,-19.75 176,-19.75"/>
<text xml:space="preserve" text-anchor="start" x="179" y="-24.1" font-family="Helvetica,sans-Serif" font-size="12.00" fill="#0f172a">X</text>
<polygon fill="none" stroke="#1f2933" points="190.25,-19.75 190.25,-38.5 205.25,-38.5 205.25,-19.75 190.25,-19.75"/>
<text xml:space="preserve" text-anchor="start" x="196.25" y="-24.1" font-family="Helvetica,sans-Serif" font-size="12.00" fill="#0f172a"> </text>
<polygon fill="none" stroke="#1f2933" points="167,-1 167,-19.75 176,-19.75 176,-1 167,-1"/>
<text xml:space="preserve" text-anchor="start" x="170" y="-5.35" font-family="Helvetica,sans-Serif" font-size="12.00" fill="#0f172a"> </text>
<polygon fill="none" stroke="#1f2933" points="176,-1 176,-19.75 190.25,-19.75 190.25,-1 176,-1"/>
<text xml:space="preserve" text-anchor="start" x="181.62" y="-5.35" font-family="Helvetica,sans-Serif" font-size="12.00" fill="#0f172a"> </text>
<polygon fill="none" stroke="#1f2933" points="190.25,-1 190.25,-19.75 205.25,-19.75 205.25,-1 190.25,-1"/>
<text xml:space="preserve" text-anchor="start" x="196.25" y="-5.35" font-family="Helvetica,sans-Serif" font-size="12.00" fill="#0f172a"> </text>
<polygon fill="none" stroke="#1f2933" points="166,0 166,-58.25 206.25,-58.25 206.25,0 166,0"/>
</g>
<!-- tree_1__t3&#45;&gt;tree_1__t7 -->
<g id="edge7" class="edge">
<title>tree_1__t3&#45;&gt;tree_1__t7</title>
<path fill="none" stroke="#4b5563" d="M217.09,-108.46C212.31,-96.35 206.62,-81.98 201.44,-68.86"/>
<polygon fill="#4b5563" stroke="#4b5563" points="204.72,-67.64 197.79,-59.63 198.21,-70.22 204.72,-67.64"/>
</g>
<!-- tree_1__t8 -->
<g id="node10" class="node">
<title>tree_1__t8</title>
<path fill="#ffffff" stroke="none" d="M277.25,-58.25C277.25,-58.25 261,-58.25 261,-58.25 255,-58.25 249,-52.25 249,-46.25 249,-46.25 249,-12 249,-12 249,-6 255,0 261,0 261,0 277.25,0 277.25,0 283.25,0 289.25,-6 289.25,-12 289.25,-12 289.25,-46.25 289.25,-46.25 289.25,-52.25 283.25,-58.25 277.25,-58.25"/>
<polygon fill="none" stroke="#1f2933" points="250,-38.5 250,-57.25 265,-57.25 265,-38.5 250,-38.5"/>
<text xml:space="preserve" text-anchor="start" x="256" y="-42.85" font-family="Helvetica,sans-Serif" font-size="12.00" fill="#0f172a"> </text>
<polygon fill="none" stroke="#1f2933" points="265,-38.5 265,-57.25 279.25,-57.25 279.25,-38.5 265,-38.5"/>
<text xml:space="preserve" text-anchor="start" x="270.62" y="-42.85" font-family="Helvetica,sans-Serif" font-size="12.00" fill="#0f172a"> </text>
<polygon fill="none" stroke="#1f2933" points="279.25,-38.5 279.25,-57.25 288.25,-57.25 288.25,-38.5 279.25,-38.5"/>
<text xml:space="preserve" text-anchor="start" x="282.25" y="-42.85" font-family="Helvetica,sans-Serif" font-size="12.00" fill="#0f172a"> </text>
<polygon fill="none" stroke="#1f2933" points="250,-19.75 250,-38.5 265,-38.5 265,-19.75 250,-19.75"/>
<text xml:space="preserve" text-anchor="start" x="256" y="-24.1" font-family="Helvetica,sans-Serif" font-size="12.00" fill="#0f172a"> </text>
<polygon fill="none" stroke="#1f2933" points="265,-19.75 265,-38.5 279.25,-38.5 279.25,-19.75 265,-19.75"/>
<text xml:space="preserve" text-anchor="start" x="268" y="-24.1" font-family="Helvetica,sans-Serif" font-size="12.00" fill="#0f172a">X</text>
<polygon fill="none" stroke="#1f2933" points="279.25,-19.75 279.25,-38.5 288.25,-38.5 288.25,-19.75 279.25,-19.75"/>
<text xml:space="preserve" text-anchor="start" x="282.25" y="-24.1" font-family="Helvetica,sans-Serif" font-size="12.00" fill="#0f172a"> </text>
<polygon fill="none" stroke="#1f2933" points="250,-1 250,-19.75 265,-19.75 265,-1 250,-1"/>
<text xml:space="preserve" text-anchor="start" x="253" y="-5.35" font-family="Helvetica,sans-Serif" font-size="12.00" fill="#0f172a">O</text>
<polygon fill="none" stroke="#1f2933" points="265,-1 265,-19.75 279.25,-19.75 279.25,-1 265,-1"/>
<text xml:space="preserve" text-anchor="start" x="270.62" y="-5.35" font-family="Helvetica,sans-Serif" font-size="12.00" fill="#0f172a"> </text>
<polygon fill="none" stroke="#1f2933" points="279.25,-1 279.25,-19.75 288.25,-19.75 288.25,-1 279.25,-1"/>
<text xml:space="preserve" text-anchor="start" x="282.25" y="-5.35" font-family="Helvetica,sans-Serif" font-size="12.00" fill="#0f172a"> </text>
<polygon fill="none" stroke="#1f2933" points="249,0 249,-58.25 289.25,-58.25 289.25,0 249,0"/>
</g>
<!-- tree_1__t3&#45;&gt;tree_1__t8 -->
<g id="edge8" class="edge">
<title>tree_1__t3&#45;&gt;tree_1__t8</title>
<path fill="none" stroke="#4b5563" d="M238.9,-108.46C243.57,-96.35 249.12,-81.98 254.18,-68.86"/>
<polygon fill="#4b5563" stroke="#4b5563" points="257.4,-70.22 257.74,-59.64 250.87,-67.7 257.4,-70.22"/>
</g>
<!-- tree_1__t5 -->
<g id="node7" class="node">
<title>tree_1__t5</title>
<path fill="#ffffff" stroke="none" d="M360.25,-58.25C360.25,-58.25 344,-58.25 344,-58.25 338,-58.25 332,-52.25 332,-46.25 332,-46.25 332,-12 332,-12 332,-6 338,0 344,0 344,0 360.25,0 360.25,0 366.25,0 372.25,-6 372.25,-12 372.25,-12 372.25,-46.25 372.25,-46.25 372.25,-52.25 366.25,-58.25 360.25,-58.25"/>
<polygon fill="none" stroke="#1f2933" points="333,-38.5 333,-57.25 348,-57.25 348,-38.5 333,-38.5"/>
<text xml:space="preserve" text-anchor="start" x="336" y="-42.85" font-family="Helvetica,sans-Serif" font-size="12.00" fill="#0f172a">O</text>
<polygon fill="none" stroke="#1f2933" points="348,-38.5 348,-57.25 357,-57.25 357,-38.5 348,-38.5"/>
<text xml:space="preserve" text-anchor="start" x="351" y="-42.85" font-family="Helvetica,sans-Serif" font-size="12.00" fill="#0f172a"> </text>
<polygon fill="none" stroke="#1f2933" points="357,-38.5 357,-57.25 371.25,-57.25 371.25,-38.5 357,-38.5"/>
<text xml:space="preserve" text-anchor="start" x="362.62" y="-42.85" font-family="Helvetica,sans-Serif" font-size="12.00" fill="#0f172a"> </text>
<polygon fill="none" stroke="#1f2933" points="333,-19.75 333,-38.5 348,-38.5 348,-19.75 333,-19.75"/>
<text xml:space="preserve" text-anchor="start" x="339" y="-24.1" font-family="Helvetica,sans-Serif" font-size="12.00" fill="#0f172a"> </text>
<polygon fill="none" stroke="#1f2933" points="348,-19.75 348,-38.5 357,-38.5 357,-19.75 348,-19.75"/>
<text xml:space="preserve" text-anchor="start" x="351" y="-24.1" font-family="Helvetica,sans-Serif" font-size="12.00" fill="#0f172a"> </text>
<polygon fill="none" stroke="#1f2933" points="357,-19.75 357,-38.5 371.25,-38.5 371.25,-19.75 357,-19.75"/>
<text xml:space="preserve" text-anchor="start" x="362.62" y="-24.1" font-family="Helvetica,sans-Serif" font-size="12.00" fill="#0f172a"> </text>
<polygon fill="none" stroke="#1f2933" points="333,-1 333,-19.75 348,-19.75 348,-1 333,-1"/>
<text xml:space="preserve" text-anchor="start" x="339" y="-5.35" font-family="Helvetica,sans-Serif" font-size="12.00" fill="#0f172a"> </text>
<polygon fill="none" stroke="#1f2933" points="348,-1 348,-19.75 357,-19.75 357,-1 348,-1"/>
<text xml:space="preserve" text-anchor="start" x="351" y="-5.35" font-family="Helvetica,sans-Serif" font-size="12.00" fill="#0f172a"> </text>
<polygon fill="none" stroke="#1f2933" points="357,-1 357,-19.75 371.25,-19.75 371.25,-1 357,-1"/>
<text xml:space="preserve" text-anchor="start" x="360" y="-5.35" font-family="Helvetica,sans-Serif" font-size="12.00" fill="#0f172a">X</text>
<polygon fill="none" stroke="#1f2933" points="332,0 332,-58.25 372.25,-58.25 372.25,0 332,0"/>
</g>
<!-- tree_1__t4&#45;&gt;tree_1__t5 -->
<g id="edge5" class="edge">
<title>tree_1__t4&#45;&gt;tree_1__t5</title>
<path fill="none" stroke="#4b5563" d="M352.12,-108.46C352.12,-96.6 352.12,-82.55 352.12,-69.65"/>
<polygon fill="#4b5563" stroke="#4b5563" points="355.63,-69.74 352.13,-59.74 348.63,-69.74 355.63,-69.74"/>
</g>
<!-- tree_1__t6 -->
<g id="node8" class="node">
<title>tree_1__t6</title>
<path fill="#ffffff" stroke="none" d="M443.25,-58.25C443.25,-58.25 427,-58.25 427,-58.25 421,-58.25 415,-52.25 415,-46.25 415,-46.25 415,-12 415,-12 415,-6 421,0 427,0 427,0 443.25,0 443.25,0 449.25,0 455.25,-6 455.25,-12 455.25,-12 455.25,-46.25 455.25,-46.25 455.25,-52.25 449.25,-58.25 443.25,-58.25"/>
<polygon fill="none" stroke="#1f2933" points="416,-38.5 416,-57.25 425,-57.25 425,-38.5 416,-38.5"/>
<text xml:space="preserve" text-anchor="start" x="419" y="-42.85" font-family="Helvetica,sans-Serif" font-size="12.00" fill="#0f172a"> </text>
<polygon fill="none" stroke="#1f2933" points="425,-38.5 425,-57.25 440,-57.25 440,-38.5 425,-38.5"/>
<text xml:space="preserve" text-anchor="start" x="431" y="-42.85" font-family="Helvetica,sans-Serif" font-size="12.00" fill="#0f172a"> </text>
<polygon fill="none" stroke="#1f2933" points="440,-38.5 440,-57.25 454.25,-57.25 454.25,-38.5 440,-38.5"/>
<text xml:space="preserve" text-anchor="start" x="445.62" y="-42.85" font-family="Helvetica,sans-Serif" font-size="12.00" fill="#0f172a"> </text>
<polygon fill="none" stroke="#1f2933" points="416,-19.75 416,-38.5 425,-38.5 425,-19.75 416,-19.75"/>
<text xml:space="preserve" text-anchor="start" x="419" y="-24.1" font-family="Helvetica,sans-Serif" font-size="12.00" fill="#0f172a"> </text>
<polygon fill="none" stroke="#1f2933" points="425,-19.75 425,-38.5 440,-38.5 440,-19.75 425,-19.75"/>
<text xml:space="preserve" text-anchor="start" x="428" y="-24.1" font-family="Helvetica,sans-Serif" font-size="12.00" fill="#0f172a">O</text>
<polygon fill="none" stroke="#1f2933" points="440,-19.75 440,-38.5 454.25,-38.5 454.25,-19.75 440,-19.75"/>
<text xml:space="preserve" text-anchor="start" x="445.62" y="-24.1" font-family="Helvetica,sans-Serif" font-size="12.00" fill="#0f172a"> </text>
<polygon fill="none" stroke="#1f2933" points="416,-1 416,-19.75 425,-19.75 425,-1 416,-1"/>
<text xml:space="preserve" text-anchor="start" x="419" y="-5.35" font-family="Helvetica,sans-Serif" font-size="12.00" fill="#0f172a"> </text>
<polygon fill="none" stroke="#1f2933" points="425,-1 425,-19.75 440,-19.75 440,-1 425,-1"/>
<text xml:space="preserve" text-anchor="start" x="431" y="-5.35" font-family="Helvetica,sans-Serif" font-size="12.00" fill="#0f172a"> </text>
<polygon fill="none" stroke="#1f2933" points="440,-1 440,-19.75 454.25,-19.75 454.25,-1 440,-1"/>
<text xml:space="preserve" text-anchor="start" x="443" y="-5.35" font-family="Helvetica,sans-Serif" font-size="12.00" fill="#0f172a">X</text>
<polygon fill="none" stroke="#1f2933" points="415,0 415,-58.25 455.25,-58.25 455.25,0 415,0"/>
</g>
<!-- tree_1__t4&#45;&gt;tree_1__t6 -->
<g id="edge6" class="edge">
<title>tree_1__t4&#45;&gt;tree_1__t6</title>
<path fill="none" stroke="#4b5563" d="M369.12,-114.62C380.41,-100.17 395.46,-80.9 408.34,-64.42"/>
<polygon fill="#4b5563" stroke="#4b5563" points="410.9,-66.82 414.3,-56.79 405.38,-62.51 410.9,-66.82"/>
</g>
<!-- anchor_tic_tac_toe -->
<g id="node12" class="node">
<title>anchor_tic_tac_toe</title>
<path fill="#ffffff" stroke="none" d="M256.75,-446.75C256.75,-446.75 199.5,-446.75 199.5,-446.75 193.5,-446.75 187.5,-440.75 187.5,-434.75 187.5,-434.75 187.5,-422.75 187.5,-422.75 187.5,-416.75 193.5,-410.75 199.5,-410.75 199.5,-410.75 256.75,-410.75 256.75,-410.75 262.75,-410.75 268.75,-416.75 268.75,-422.75 268.75,-422.75 268.75,-434.75 268.75,-434.75 268.75,-440.75 262.75,-446.75 256.75,-446.75"/>
<text xml:space="preserve" text-anchor="middle" x="228.12" y="-422.95" font-family="Helvetica,sans-Serif" font-size="14.00" fill="#6b7280">tic_tac_toe</text>
</g>
<!-- anchor_tic_tac_toe&#45;&gt;tree_1__ROOT -->
<g id="edge11" class="edge">
<title>anchor_tic_tac_toe&#45;&gt;tree_1__ROOT</title>
<path fill="none" stroke="#9ca3af" stroke-dasharray="5,2" d="M228.12,-410.75C228.12,-399.78 228.12,-385.23 228.12,-372.49"/>
<polygon fill="#9ca3af" stroke="#9ca3af" points="231.63,-372.53 228.13,-362.53 224.63,-372.53 231.63,-372.53"/>
</g>
</g>
</svg>
