<?xml version="1.0" encoding="UTF-8" standalone="no"?>
<!DOCTYPE svg PUBLIC "-//W3C//DTD SVG 1.1//EN"
 "http://www.w3.org/Graphics/SVG/1.1/DTD/svg11.dtd">
<!-- Generated by graphviz version 13.1.2 (0)
 -->
<!-- Title: G Pages: 1 -->
<svg width="256pt" height="388pt"
 viewBox="0.00 0.00 256.00 388.00" xmlns="http://www.w3.org/2000/svg" xmlns:xlink="http://www.w3.org/1999/xlink">
<g id="graph0" class="graph" transform="scale(1 1) rotate(0) translate(4 384)">
<title>G</title>
<polygon fill="white" stroke="none" points="-4,4 -4,-384 252,-384 252,4 -4,4"/>
<!-- tree_1__ROOT -->
<g id="node1" class="node">
<title>tree_1__ROOT</title>
<path fill="#ffffff" stroke="#1f2933" d="M187,-294C187,-294 157,-294 157,-294 151,-294 145,-288 145,-282 145,-282 145,-270 145,-270 145,-264 151,-258 157,-258 157,-258 187,-258 187,-258 193,-258 199,-264 199,-270 199,-270 199,-282 199,-282 199,-288 193,-294 187,-294"/>
<text xml:space="preserve" text-anchor="middle" x="172" y="-270.2" font-family="Helvetica,sans-Serif" font-size="14.00">T</text>
</g>
<!-- tree_1__t1 -->
<g id="node2" class="node">
<title>tree_1__t1</title>
<path fill="#ffffff" stroke="#1f2933" d="M187,-208C187,-208 157,-208 157,-208 151,-208 145,-202 145,-196 145,-196 145,-184 145,-184 145,-178 151,-172 157,-172 157,-172 187,-172 187,-172 193,-172 199,-178 199,-184 199,-184 199,-196 199,-196 199,-202 193,-208 187,-208"/>
<text xml:space="preserve" text-anchor="middle" x="172" y="-184.2" font-family="Helvetica,sans-Serif" font-size="14.00">5</text>
</g>
<!-- tree_1__ROOT&#45;&gt;tree_1__t1 -->
<g id="edge1" class="edge">
<title>tree_1__ROOT&#45;&gt;tree_1__t1</title>
<path fill="none" stroke="#4b5563" d="M172,-257.6C172,-246.67 172,-232.32 172,-219.73"/>
<polygon fill="#4b5563" stroke="#4b5563" points="175.5,-219.9 172,-209.9 168.5,-219.9 175.5,-219.9"/>
</g>
<!-- tree_1__t2 -->
<g id="node3" class="node">
<title>tree_1__t2</title>
<path fill="#ffffff" stroke="#1f2933" d="M139,-122C139,-122 109,-122 109,-122 103,-122 97,-116 97,-110 97,-110 97,-98 97,-98 97,-92 103,-86 109,-86 109,-86 139,-86 139,-86 145,-86 151,-92 151,-98 151,-98 151,-110 151,-110 151,-116 145,-122 139,-122"/>
<text xml:space="preserve" text-anchor="middle" x="124" y="-98.2" font-family="Helvetica,sans-Serif" font-size="14.00">3</text>
</g>
<!-- tree_1__t1&#45;&gt;tree_1__t2 -->
<g id="edge2" class="edge">
<title>tree_1__t1&#45;&gt;tree_1__t2</title>
<path fill="none" stroke="#4b5563" d="M162.05,-171.6C155.55,-160.22 146.93,-145.13 139.54,-132.19"/>
<polygon fill="#4b5563" stroke="#4b5563" points="142.68,-130.64 134.68,-123.7 136.61,-134.12 142.68,-130.64"/>
</g>
<!-- tree_1__t3 -->
<g id="node4" class="node">
<title>tree_1__t3</title>
<path fill="#ffffff" stroke="#1f2933" d="M236,-122C236,-122 206,-122 206,-122 200,-122 194,-116 194,-110 194,-110 194,-98 194,-98 194,-92 200,-86 206,-86 206,-86 236,-86 236,-86 242,-86 248,-92 248,-98 248,-98 248,-110 248,-110 248,-116 242,-122 236,-122"/>
<text xml:space="preserve" text-anchor="middle" x="221" y="-98.2" font-family="Helvetica,sans-Serif" font-size="14.00">8</text>
</g>
<!-- tree_1__t1&#45;&gt;tree_1__t3 -->
<g id="edge3" class="edge">
<title>tree_1__t1&#45;&gt;tree_1__t3</title>
<path fill="none" stroke="#4b5563" d="M182.15,-171.6C188.79,-160.22 197.59,-145.13 205.14,-132.19"/>
<polygon fill="#4b5563" stroke="#4b5563" points="208.08,-134.09 210.1,-123.69 202.04,-130.56 208.08,-134.09"/>
</g>
<!-- tree_1__t5 -->
<g id="node6" class="node">
<title>tree_1__t5</title>
<path fill="#ffffff" stroke="#1f2933" d="M42,-36C42,-36 12,-36 12,-36 6,-36 0,-30 0,-24 0,-24 0,-12 0,-12 0,-6 6,0 12,0 12,0 42,0 42,0 48,0 54,-6 54,-12 54,-12 54,-24 54,-24 54,-30 48,-36 42,-36"/>
<text xml:space="preserve" text-anchor="middle" x="27" y="-12.2" font-family="Helvetica,sans-Serif" font-size="14.00">1</text>
</g>
<!-- tree_1__t2&#45;&gt;tree_1__t5 -->
<g id="edge5" class="edge">
<title>tree_1__t2&#45;&gt;tree_1__t5</title>
<path fill="none" stroke="#4b5563" d="M103.9,-85.6C89.99,-73.54 71.25,-57.32 55.76,-43.9"/>
<polygon fill="#4b5563" stroke="#4b5563" points="58.07,-41.27 48.22,-37.37 53.49,-46.57 58.07,-41.27"/>
</g>
<!-- tree_1__t6 -->
<g id="node7" class="node">
<title>tree_1__t6</title>
<path fill="#ffffff" stroke="#1f2933" d="M139,-36C139,-36 109,-36 109,-36 103,-36 97,-30 97,-24 97,-24 97,-12 97,-12 97,-6 103,0 109,0 109,0 139,0 139,0 145,0 151,-6 151,-12 151,-12 151,-24 151,-24 151,-30 145,-36 139,-36"/>
<text xml:space="preserve" text-anchor="middle" x="124" y="-12.2" font-family="Helvetica,sans-Serif" font-size="14.00">4</text>
</g>
<!-- tree_1__t2&#45;&gt;tree_1__t6 -->
<g id="edge6" class="edge">
<title>tree_1__t2&#45;&gt;tree_1__t6</title>
<path fill="none" stroke="#4b5563" d="M124,-85.6C124,-74.67 124,-60.32 124,-47.73"/>
<polygon fill="#4b5563" stroke="#4b5563" points="127.5,-47.9 124,-37.9 120.5,-47.9 127.5,-47.9"/>
</g>
<!-- tree_1__t4 -->
<g id="node5" class="node">
<title>tree_1__t4</title>
<path fill="#ffffff" stroke="#1f2933" d="M236,-36C236,-36 206,-36 206,-36 200,-36 194,-30 194,-24 194,-24 194,-12 194,-12 194,-6 200,0 206,0 206,0 236,0 236,0 242,0 248,-6 248,-12 248,-12 248,-24 248,-24 248,-30 242,-36 236,-36"/>
<text xml:space="preserve" text-anchor="middle" x="221" y="-12.2" font-family="Helvetica,sans-Serif" font-size="14.00">9</text>
</g>
<!-- tree_1__t3&#45;&gt;tree_1__t4 -->
<g id="edge4" class="edge">
<title>tree_1__t3&#45;&gt;tree_1__t4</title>
<path fill="none" stroke="#4b5563" d="M221,-85.6C221,-74.67 221,-60.32 221,-47.73"/>
<polygon fill="#4b5563" stroke="#4b5563" points="224.5,-47.9 221,-37.9 217.5,-47.9 224.5,-47.9"/>
</g>
<!-- anchor_T -->
<g id="node8" class="node">
<title>anchor_T</title>
<path fill="#ffffff" stroke="none" d="M187,-380C187,-380 157,-380 157,-380 151,-380 145,-374 145,-368 145,-368 145,-356 145,-356 145,-350 151,-344 157,-344 157,-344 187,-344 187,-344 193,-344 199,-350 199,-356 199,-356 199,-368 199,-368 199,-374 193,-380 187,-380"/>
<text xml:space="preserve" text-anchor="middle" x="172" y="-356.2" font-family="Helvetica,sans-Serif" font-size="14.00" fill="#6b7280">T</text>
</g>
<!-- anchor_T&#45;&gt;tree_1__ROOT -->
<g id="edge7" class="edge">
<title>anchor_T&#45;&gt;tree_1__ROOT</title>
<path fill="none" stroke="#9ca3af" stroke-dasharray="5,2" d="M172,-344C172,-333.03 172,-318.48 172,-305.74"/>
<polygon fill="#9ca3af" stroke="#9ca3af" points="175.5,-305.78 172,-295.78 168.5,-305.78 175.5,-305.78"/>
</g>
</g>
</svg>
