<?xml version="1.0" encoding="UTF-8" standalone="no"?>
<!DOCTYPE svg PUBLIC "-//W3C//DTD SVG 1.1//EN"
 "http://www.w3.org/Graphics/SVG/1.1/DTD/svg11.dtd">
<!-- Generated by graphviz version 13.1.2 (0)
 -->
<!-- Title: G Pages: 1 -->
<svg width="309pt" height="141pt"
 viewBox="0.00 0.00 309.00 141.00" xmlns="http://www.w3.org/2000/svg" xmlns:xlink="http://www.w3.org/1999/xlink">
<g id="graph0" class="graph" transform="scale(1 1) rotate(0) translate(4 136.75)">
<title>G</title>
<polygon fill="white" stroke="none" points="-4,4 -4,-136.75 304.5,-136.75 304.5,4 -4,4"/>
<!-- arr_1 -->
<g id="node1" class="node">
<title>arr_1</title>
<path fill="#ffffff" stroke="none" d="M288.5,-132.75C288.5,-132.75 146.25,-132.75 146.25,-132.75 140.25,-132.75 134.25,-126.75 134.25,-120.75 134.25,-120.75 134.25,-12 134.25,-12 134.25,-6 140.25,0 146.25,0 146.25,0 288.5,0 288.5,0 294.5,0 300.5,-6 300.5,-12 300.5,-12 300.5,-120.75 300.5,-120.75 300.5,-126.75 294.5,-132.75 288.5,-132.75"/>
<text xml:space="preserve" text-anchor="start" x="172.75" y="-114.55" font-family="Helvetica,sans-Serif" font-weight="bold" font-size="16.00">tuple_block</text>
<polygon fill="#ffffff" stroke="none" points="141.25,-35.75 141.25,-103.25 244,-103.25 244,-35.75 141.25,-35.75"/>
<polygon fill="none" stroke="#1f2933" points="141.25,-35.75 141.25,-103.25 244,-103.25 244,-35.75 141.25,-35.75"/>
<polygon fill="#ffffff" stroke="none" points="149.25,-72.5 149.25,-95.25 166,-95.25 166,-72.5 149.25,-72.5"/>
<polygon fill="none" stroke="#1f2933" points="149.25,-72.5 149.25,-95.25 166,-95.25 166,-72.5 149.25,-72.5"/>
<text xml:space="preserve" text-anchor="start" x="154.25" y="-78.85" font-family="Helvetica,sans-Serif" font-size="12.00" fill="#0f172a">1</text>
<polygon fill="#ffffff" stroke="none" points="166,-72.5 166,-95.25 236,-95.25 236,-72.5 166,-72.5"/>
<polygon fill="none" stroke="#1f2933" points="166,-72.5 166,-95.25 236,-95.25 236,-72.5 166,-72.5"/>
<text xml:space="preserve" text-anchor="start" x="171" y="-78.85" font-family="Helvetica,sans-Serif" font-size="12.00" fill="#475569">dict keys=1</text>
<polygon fill="none" stroke="#1f2933" points="148.25,-71.5 148.25,-96.25 237,-96.25 237,-71.5 148.25,-71.5"/>
<text xml:space="preserve" text-anchor="start" x="168.06" y="-50.1" font-family="Helvetica,sans-Serif" font-size="12.00" fill="#dc2626">0</text>
<text xml:space="preserve" text-anchor="start" x="210.44" y="-50.1" font-family="Helvetica,sans-Serif" font-size="12.00" fill="#dc2626">1</text>
<polygon fill="#ffffff" stroke="none" points="244,-35.75 244,-103.25 293.5,-103.25 293.5,-35.75 244,-35.75"/>
<polygon fill="none" stroke="#1f2933" points="244,-35.75 244,-103.25 293.5,-103.25 293.5,-35.75 244,-35.75"/>
<polygon fill="#ffffff" stroke="none" points="252,-72.5 252,-95.25 268.75,-95.25 268.75,-72.5 252,-72.5"/>
<polygon fill="none" stroke="#1f2933" points="252,-72.5 252,-95.25 268.75,-95.25 268.75,-72.5 252,-72.5"/>
<text xml:space="preserve" text-anchor="start" x="257" y="-78.85" font-family="Helvetica,sans-Serif" font-size="12.00" fill="#0f172a">4</text>
<polygon fill="#ffffff" stroke="none" points="268.75,-72.5 268.75,-95.25 285.5,-95.25 285.5,-72.5 268.75,-72.5"/>
<polygon fill="none" stroke="#1f2933" points="268.75,-72.5 268.75,-95.25 285.5,-95.25 285.5,-72.5 268.75,-72.5"/>
<text xml:space="preserve" text-anchor="start" x="273.75" y="-78.85" font-family="Helvetica,sans-Serif" font-size="12.00" fill="#0f172a">5</text>
<polygon fill="none" stroke="#1f2933" points="251,-71.5 251,-96.25 286.5,-96.25 286.5,-71.5 251,-71.5"/>
<text xml:space="preserve" text-anchor="start" x="257.5" y="-50.1" font-family="Helvetica,sans-Serif" font-size="12.00" fill="#dc2626">0</text>
<text xml:space="preserve" text-anchor="start" x="273.25" y="-50.1" font-family="Helvetica,sans-Serif" font-size="12.00" fill="#dc2626">1</text>
<polygon fill="none" stroke="#1f2933" points="140.25,-34.75 140.25,-104.25 294.5,-104.25 294.5,-34.75 140.25,-34.75"/>
<text xml:space="preserve" text-anchor="start" x="176.44" y="-13.35" font-family="Helvetica,sans-Serif" font-size="12.00" fill="#dc2626">0</text>
<text xml:space="preserve" text-anchor="start" x="251.56" y="-13.35" font-family="Helvetica,sans-Serif" font-size="12.00" fill="#dc2626">1</text>
</g>
<!-- anchor_tuple_block -->
<g id="node2" class="node">
<title>anchor_tuple_block</title>
<path fill="#ffffff" stroke="none" d="M72.25,-84.38C72.25,-84.38 12,-84.38 12,-84.38 6,-84.38 0,-78.38 0,-72.38 0,-72.38 0,-60.38 0,-60.38 0,-54.38 6,-48.38 12,-48.38 12,-48.38 72.25,-48.38 72.25,-48.38 78.25,-48.38 84.25,-54.38 84.25,-60.38 84.25,-60.38 84.25,-72.38 84.25,-72.38 84.25,-78.38 78.25,-84.38 72.25,-84.38"/>
<text xml:space="preserve" text-anchor="middle" x="42.12" y="-60.58" font-family="Helvetica,sans-Serif" font-size="14.00" fill="#6b7280">tuple_block</text>
</g>
<!-- anchor_tuple_block&#45;&gt;arr_1 -->
<g id="edge1" class="edge">
<title>anchor_tuple_block&#45;&gt;arr_1</title>
<path fill="none" stroke="#9ca3af" stroke-dasharray="5,2" d="M84.18,-66.38C95.99,-66.38 109.37,-66.38 122.98,-66.38"/>
<polygon fill="#9ca3af" stroke="#9ca3af" points="122.92,-69.88 132.92,-66.38 122.92,-62.88 122.92,-69.88"/>
</g>
</g>
</svg>
